<svg width="512" height="512" viewBox="0 0 512 512" fill="none" xmlns="http://www.w3.org/2000/svg">
<path fill-rule="evenodd" clip-rule="evenodd" d="M382.25 102.342C347.35 105.37 317.284 116.021 293.835 133.663C287.944 138.094 277.751 147.695 273.634 152.688L271.624 155.126L269.667 152.438C268.591 150.96 266.278 147.5 264.526 144.75C262.774 142 261.289 139.682 261.226 139.598C261.164 139.515 260.356 139.908 259.431 140.471C255.965 142.584 251.791 141.462 248.676 137.579C244.2 131.999 238.848 126.468 233.509 121.906C230.351 119.208 227.618 117 227.435 117C227.252 117 228.689 119.756 230.629 123.125C241.421 141.874 252.09 166.944 259.052 189.912C260.441 194.498 261.664 198.525 261.768 198.86C261.978 199.539 261.724 199.481 270.75 200.915C305.801 206.486 339.926 231.412 363.056 268.34C376.27 289.437 383.691 310.726 383.677 327.5C383.672 334.957 382.923 338.106 379.888 343.433C370.805 359.38 348.933 367.427 317.75 366.295C312.8 366.115 306.05 365.642 302.75 365.245C299.45 364.847 296.63 364.516 296.484 364.511C296.338 364.505 296.606 367.144 297.078 370.375C297.551 373.606 298.098 379.119 298.293 382.625C298.636 388.755 298.692 389 299.751 389C301.267 389 303.986 390.925 305.419 393.012C306.568 394.686 306.6 394.98 306.303 401C305.516 416.916 301.405 433.879 294.265 450.671C293.673 452.064 293.627 452.483 294.099 452.198C302.319 447.233 331.256 428.132 335.837 424.647C337.39 423.465 337.409 423.404 336.712 421.736C335.787 419.523 335.813 417.987 336.817 415.477C337.518 413.725 339 412.414 347.192 406.294C378.107 383.2 403.157 360.367 420.745 339.25C429.778 328.404 435.501 320.152 443.172 306.908C460.832 276.422 471.254 248.132 475.557 219C477.023 209.076 477.366 191.905 476.286 182.5C473.347 156.91 463.968 136.987 447.506 121.361C441.741 115.89 436.436 111.995 428.833 107.652C422.091 103.8 420.112 103.203 411.848 102.525C405.988 102.045 387.027 101.927 382.25 102.342ZM102.743 121.237C84.834 133.2 71.5485 150.969 64.5255 172.352C60.06 185.947 58.369 197.054 58.336 213C58.312 224.425 58.7125 229.462 59.665 229.722C59.9865 229.81 64.046 230.482 68.685 231.215C89.305 234.472 114.859 242.466 136.139 252.315C142.893 255.441 153.809 261.315 157.409 263.761C158.39 264.428 159.232 264.923 159.28 264.862C159.328 264.801 160.439 262.05 161.748 258.75C166.645 246.409 172.207 236.688 177.968 230.405L181.035 227.059L173.392 219.403C148.612 194.579 126.973 162.638 110.711 126.881C108.721 122.507 107.013 118.847 106.915 118.749C106.816 118.65 104.939 119.77 102.743 121.237ZM183.75 207.5C185.66 209.425 187.335 211 187.473 211C187.61 211 186.16 209.425 184.25 207.5C182.34 205.575 180.664 204 180.527 204C180.389 204 181.84 205.575 183.75 207.5Z" fill="#FA7575"/>
<path fill-rule="evenodd" clip-rule="evenodd" d="M104.226 19.5385C104.091 19.7575 103.591 19.931 103.115 19.924C101.441 19.9005 99.3205 20.5595 97.965 21.525C97.212 22.061 96.362 22.5 96.076 22.5C95.7905 22.5 95.2625 22.9085 94.9035 23.408C94.544 23.9075 93.853 24.464 93.3675 24.645C92.882 24.826 92.264 25.4865 91.9935 26.112C91.7235 26.738 91.2845 27.5875 91.018 28C89.9325 29.6815 88.4465 33.6395 88.676 34.238C88.8115 34.59 88.6835 35.1165 88.3925 35.4075C87.7595 36.0405 87.625 47.664 88.192 52.75C88.4065 54.675 88.6265 56.8125 88.681 57.5C88.7355 58.1875 88.957 59.0335 89.1725 59.3795C89.388 59.7255 89.4285 60.438 89.262 60.9625C89.0955 61.487 89.1635 62.042 89.4125 62.196C89.662 62.35 89.7575 63.044 89.6245 63.738C89.492 64.432 89.6135 65 89.895 65C90.176 65 90.2975 65.416 90.1645 65.924C90.032 66.4325 90.2765 67.6935 90.708 68.727C91.14 69.7605 91.375 70.7975 91.231 71.031C91.0865 71.265 91.308 72.2685 91.723 73.262C92.138 74.255 92.4495 75.2215 92.415 75.409C92.2785 76.16 93.1495 80 93.457 80C93.6375 80 93.825 80.3935 93.8725 80.875C93.92 81.3565 94.1065 82.4815 94.2865 83.375C94.4665 84.269 94.419 85.017 94.1815 85.0385C93.047 85.139 91.9865 85.4565 90.4385 86.1605C86.0835 88.1395 84.02 89 83.6275 89C83.3925 89 82.9185 89.2815 82.575 89.625C82.2315 89.969 81.7925 90.261 81.6 90.2745C80.5845 90.346 79 91.131 79 91.563C79 91.836 78.775 91.92 78.5 91.75C78.225 91.58 77.998 91.6229 77.996 91.8455C77.9915 92.325 75.594 93.5 74.621 93.5C74.247 93.5 74.065 93.701 74.217 93.9465C74.369 94.1925 73.876 94.5465 73.1215 94.7335C72.367 94.921 71.239 95.5509 70.614 96.1345C69.9895 96.7175 69.0935 97.251 68.6235 97.32C68.153 97.389 67.689 97.683 67.5925 97.973C67.496 98.2625 67.122 98.5 66.762 98.5C66.4015 98.5 65.972 98.852 65.807 99.2815C65.642 99.7115 65.288 99.9279 65.02 99.7625C64.752 99.5965 64.246 99.92 63.896 100.48C63.546 101.041 62.9875 101.5 62.6545 101.5C62.322 101.5 61.87 101.781 61.65 102.126C61.43 102.47 60.5865 103.089 59.7755 103.501C58.4445 104.177 46.5 115.542 46.5 116.132C46.5 116.268 45.37 117.563 43.989 119.011C42.608 120.459 41.582 121.748 41.7095 121.876C41.8365 122.003 41.3915 122.699 40.7205 123.423C40.049 124.147 39.5 125.023 39.5 125.37C39.5 125.716 39.307 126 39.071 126C38.511 126 35.251 130.916 34.752 132.513C34.539 133.193 34.216 133.862 34.0335 134C33.3775 134.495 31 138.944 31 139.678C31 140.091 30.648 140.78 30.218 141.21C29.788 141.64 29.5765 142.219 29.7475 142.496C29.919 142.773 29.783 143 29.446 143C29.109 143 28.9815 143.148 29.1625 143.329C29.3435 143.51 29.2275 143.976 28.9045 144.365C28.008 145.445 26.0275 150.519 25.681 152.625C25.511 153.656 25.1385 154.5 24.853 154.5C24.567 154.5 24.4745 154.641 24.647 154.813C24.8195 154.986 24.6335 155.91 24.2335 156.866C23.8335 157.823 23.619 158.788 23.7565 159.01C23.894 159.232 23.7985 159.49 23.545 159.582C23.053 159.761 21.384 166.908 21.3455 169C21.333 169.687 21.1625 170.362 20.967 170.5C20.6425 170.728 20.1355 174.051 19.7465 178.5C19.6625 179.462 19.415 181.6 19.197 183.25C18.7165 186.884 18.6655 205.601 19.12 211.5C19.718 219.258 20.117 222.747 20.4355 223C20.6085 223.137 20.785 223.812 20.8275 224.5C20.8705 225.187 21.048 226.65 21.2225 227.75C21.397 228.85 21.6355 230.594 21.7525 231.626C21.87 232.657 22.189 233.918 22.4615 234.428C22.7345 234.938 23.0675 236.569 23.2015 238.052C23.421 240.482 23.8045 242.75 23.996 242.75C24.079 242.75 24.537 245.431 24.615 246.375C24.6435 246.719 24.826 247 25.021 247C25.2155 247 25.408 247.562 25.448 248.25C25.5835 250.571 25.6655 251 25.976 251C26.1465 251 26.3155 251.394 26.3515 251.875C26.4185 252.764 26.8635 254.75 26.996 254.75C27.036 254.75 27.1525 255.385 27.2545 256.162C27.3565 256.939 27.675 257.858 27.9625 258.204C28.25 258.551 28.5925 259.675 28.7245 260.704C28.856 261.732 29.3095 263.267 29.732 264.114C30.1545 264.96 30.5015 266.013 30.503 266.452C30.505 266.891 30.8425 267.894 31.253 268.682C31.664 269.47 32 270.426 32 270.807C32 271.188 32.218 271.5 32.4845 271.5C32.7505 271.5 32.839 271.837 32.681 272.25C32.5225 272.662 32.642 273 32.9465 273C33.251 273 33.5 273.549 33.5 274.22C33.5 274.892 33.725 275.58 34 275.75C34.275 275.92 34.5 276.468 34.5 276.968C34.5 277.468 34.8375 278.157 35.25 278.5C35.6625 278.842 36 279.657 36 280.311C36 280.965 36.2385 281.5 36.5295 281.5C36.8205 281.5 36.92 281.725 36.75 282C36.58 282.275 36.6795 282.5 36.9705 282.5C37.2615 282.5 37.4435 282.673 37.375 282.885C37.306 283.097 37.626 284.166 38.086 285.26C38.546 286.354 39.2195 287.981 39.583 288.875C39.9465 289.769 40.414 290.5 40.622 290.5C40.83 290.5 41 290.934 41 291.464C41 291.994 41.3035 292.732 41.6745 293.103C42.0455 293.474 42.6255 294.615 42.9635 295.639C43.301 296.662 43.7985 297.5 44.0685 297.5C44.338 297.5 44.4365 297.698 44.2865 297.941C44.1365 298.184 44.453 298.941 44.9905 299.624C45.5275 300.307 45.8245 301.008 45.6505 301.183C45.476 301.357 45.5595 301.5 45.8365 301.5C46.2635 301.5 47.5745 303.728 47.601 304.5C47.606 304.637 48.035 305.347 48.555 306.077C49.0745 306.807 49.5 307.616 49.5 307.874C49.5 308.133 49.941 308.744 50.48 309.232C51.019 309.72 51.4425 310.261 51.421 310.434C51.3105 311.318 51.6275 311.917 53 313.419C53.825 314.322 54.5 315.457 54.5 315.941C54.5 316.424 55.1715 317.572 55.992 318.491C56.8125 319.41 57.6155 320.576 57.776 321.081C57.936 321.586 58.2905 322 58.563 322C58.836 322 58.919 322.226 58.748 322.503C58.5765 322.78 58.787 323.141 59.2155 323.306C59.644 323.47 59.869 323.808 59.7155 324.056C59.562 324.304 59.787 324.641 60.2155 324.806C60.644 324.97 60.8885 325.276 60.759 325.485C60.6295 325.695 60.9685 326.269 61.512 326.76C62.0555 327.252 62.5 327.915 62.5 328.232C62.5 328.55 63.2015 329.528 64.0595 330.405C64.917 331.282 65.4635 332 65.2735 332C65.084 332 65.226 332.332 65.5895 332.737C65.9525 333.143 66.7 334.061 67.25 334.777C67.8 335.494 68.478 336.343 68.7565 336.665C69.035 336.987 69.692 337.919 70.2165 338.737C70.741 339.555 71.3545 340.455 71.58 340.737C75.5625 345.721 77.426 347.949 78.3855 348.875C79.027 349.494 79.435 350 79.2925 350C79.15 350 79.8135 350.78 80.7665 351.733C81.72 352.686 82.5 353.665 82.5 353.908C82.5 354.151 83.177 354.869 84.005 355.503C84.8325 356.138 85.397 356.77 85.259 356.907C85.121 357.045 85.977 358.079 87.1605 359.204C88.344 360.329 89.462 361.649 89.645 362.137C89.828 362.625 90.489 363.229 91.114 363.48C91.739 363.731 92.042 363.951 91.7875 363.968C91.533 363.985 93.04 365.687 95.136 367.75C97.2325 369.812 98.838 371.5 98.704 371.5C98.57 371.5 98.7505 371.814 99.1055 372.197C99.46 372.581 99.9185 372.793 100.125 372.668C100.331 372.543 100.5 372.705 100.5 373.028C100.5 373.352 101.456 374.507 102.625 375.596C103.794 376.685 107.024 379.753 109.804 382.413C117.222 389.512 122.614 394.267 123.085 394.125C123.313 394.056 123.5 394.292 123.5 394.649C123.5 395.006 124.377 395.85 125.448 396.524C126.52 397.198 127.294 397.918 127.169 398.125C127.043 398.331 127.19 398.5 127.494 398.5C127.798 398.5 128.599 399.095 129.274 399.823C129.948 400.55 130.5 401.018 130.5 400.861C130.5 400.705 131.143 401.178 131.929 401.913C134.817 404.613 135.954 405.553 136.261 405.494C136.434 405.461 136.979 405.899 137.471 406.467C137.964 407.035 138.59 407.5 138.863 407.5C139.136 407.5 139.782 408.062 140.298 408.75C140.815 409.437 141.508 410 141.84 410C142.172 410 142.793 410.5 143.221 411.111C143.649 411.722 144 412.025 144 411.783C144 411.542 144.506 411.906 145.125 412.592C146.861 414.518 149.791 416.537 150.249 416.122C150.475 415.917 150.528 415.983 150.367 416.267C150.206 416.552 151.407 417.661 153.037 418.733C154.666 419.804 156 420.865 156 421.09C156 421.316 156.254 421.5 156.564 421.5C156.875 421.5 157.973 422.231 159.004 423.125C161.219 425.044 164.575 427.375 165.17 427.409C165.402 427.422 165.901 427.842 166.279 428.341C166.658 428.841 166.975 429.091 166.984 428.897C166.993 428.704 167.527 429.041 168.171 429.647C169.86 431.237 176.501 435.78 176.846 435.582C177.007 435.49 177.276 435.614 177.444 435.858C177.938 436.576 181.5 439.149 181.5 438.789C181.5 438.608 182.103 439.019 182.841 439.703C183.578 440.387 184.366 440.833 184.591 440.693C184.816 440.554 185 440.646 185 440.898C185 441.48 189.466 444.295 190.099 444.112C190.36 444.037 190.457 444.164 190.314 444.396C190.171 444.627 190.717 445.208 191.527 445.686C192.337 446.165 193.007 446.375 193.016 446.153C193.024 445.931 193.362 446.187 193.766 446.72C194.169 447.254 194.5 447.546 194.5 447.369C194.5 447.192 195.091 447.595 195.813 448.264C196.535 448.933 197.292 449.378 197.496 449.252C197.699 449.126 198.25 449.447 198.719 449.966C199.188 450.484 200.277 451.201 201.139 451.558C202.002 451.915 203.075 452.554 203.525 452.978C204.531 453.927 207.495 455.623 208.462 455.804C208.854 455.877 209.374 456.293 209.618 456.729C209.862 457.164 210.272 457.39 210.53 457.231C210.789 457.071 211 457.192 211 457.5C211 457.807 211.201 457.934 211.447 457.782C211.694 457.63 212.029 457.856 212.194 458.284C212.358 458.713 212.689 458.942 212.929 458.793C213.17 458.645 213.75 458.948 214.22 459.467C214.689 459.985 215.619 460.547 216.287 460.714C216.954 460.882 217.5 461.24 217.5 461.509C217.5 461.779 217.95 462 218.5 462C219.05 462 219.5 462.238 219.5 462.529C219.5 462.82 219.725 462.92 220 462.75C220.275 462.58 220.5 462.662 220.5 462.934C220.5 463.479 226.028 466.804 226.625 466.617C226.831 466.553 227 466.71 227 466.967C227 467.225 227.787 467.72 228.75 468.068C229.712 468.416 230.5 468.855 230.5 469.043C230.5 469.457 234.094 471.253 234.625 471.105C234.831 471.047 235 471.208 235 471.463C235 471.718 235.619 472.244 236.375 472.631C237.131 473.019 238.594 473.819 239.625 474.41C240.656 475 241.507 475.318 241.515 475.116C241.523 474.915 241.759 475.144 242.04 475.625C242.32 476.106 242.964 476.5 243.471 476.5C243.978 476.5 244.522 476.837 244.681 477.25C244.839 477.662 245.285 478 245.673 478C246.06 478 246.657 478.337 247 478.75C247.342 479.162 248.021 479.5 248.507 479.5C248.994 479.5 249.528 479.852 249.693 480.281C249.858 480.711 250.219 480.923 250.496 480.752C250.773 480.581 251 480.717 251 481.054C251 481.391 251.139 481.527 251.309 481.357C251.48 481.187 251.908 481.337 252.262 481.691C252.616 482.045 253.958 482.374 255.244 482.422C257.772 482.518 261.411 481.004 264.108 478.735C264.916 478.056 265.862 477.5 266.211 477.5C266.559 477.5 267.244 477.059 267.732 476.52C268.22 475.981 268.761 475.581 268.934 475.633C269.511 475.803 274.5 472.849 274.5 472.337C274.5 472.06 274.635 471.968 274.799 472.133C275.119 472.452 281.213 469.346 282.54 468.188C282.975 467.808 283.445 467.612 283.585 467.752C283.725 467.892 284.248 467.555 284.747 467.003C285.246 466.451 285.922 466 286.249 466C286.575 466 287.271 465.156 287.796 464.125C288.321 463.094 288.924 462.121 289.136 461.963C289.349 461.805 289.625 461.147 289.75 460.5C289.874 459.853 290.263 459.141 290.613 458.919C290.963 458.697 291.025 458.508 290.75 458.5C290.442 458.49 290.453 458.343 290.78 458.117C291.565 457.573 297.631 442.616 299.735 436.039C303.422 424.511 305.756 412.057 306.303 401C306.6 394.979 306.568 394.686 305.419 393.012C304.763 392.056 303.444 390.742 302.488 390.092C299.145 387.82 293.627 389.37 291.684 393.127C291.196 394.07 290.709 396.942 290.438 400.463C289.112 417.731 284.845 433.573 277.126 449.883L275.17 454.017L267.71 458.169C263.607 460.453 259.273 462.94 258.078 463.696C256.884 464.452 255.601 464.954 255.227 464.81C254.183 464.41 229.249 449.939 220.25 444.511C184.202 422.769 153.216 400.294 129.346 378.576C125.824 375.372 121.978 371.962 120.801 371C119.623 370.037 118.037 368.393 117.276 367.345C116.515 366.298 115.767 365.566 115.614 365.718C115.462 365.871 114.927 365.322 114.426 364.498C113.924 363.674 113.174 363 112.757 363C112.341 363 112 362.774 112 362.499C112 362.224 110.031 359.969 107.625 357.488C100.485 350.127 97.5485 346.978 97.472 346.603C97.4325 346.409 97.1975 346.306 96.95 346.375C96.7025 346.444 96.5 346.162 96.5 345.75C96.5 345.337 96.313 345 96.0845 345C95.856 345 95.372 344.445 95.009 343.767C94.646 343.089 94.158 342.652 93.9245 342.796C93.691 342.941 93.5 342.811 93.5 342.508C93.5 341.901 92.9385 341.131 90.875 338.906C90.1185 338.09 89.4975 337.271 89.4945 337.086C89.4915 336.901 88.479 335.654 87.2445 334.316C86.01 332.977 85 331.696 85 331.469C85 331.242 84.5515 330.742 84.003 330.358C83.455 329.974 83.113 329.554 83.243 329.423C83.3735 329.293 82.7155 328.376 81.781 327.386C80.8465 326.395 80.2135 325.453 80.3745 325.292C80.535 325.131 80.3985 325 80.071 325C79.7435 325 79.2615 324.437 79 323.75C78.7385 323.062 78.294 322.5 78.0125 322.5C77.7305 322.5 77.5 322.254 77.5 321.954C77.5 321.33 73.8045 315.916 72.1345 314.092C71.521 313.422 71.1415 312.676 71.291 312.433C71.441 312.191 71.2115 311.858 70.7815 311.693C70.352 311.528 70 311.087 70 310.714C70 309.874 67.506 305.312 66.921 305.082C66.686 304.99 66.621 304.709 66.7765 304.457C66.932 304.206 66.8075 304 66.5 304C66.1925 304 66.0655 303.798 66.2175 303.552C66.37 303.306 66.158 302.976 65.747 302.818C65.336 302.66 65 302.231 65 301.865C65 300.933 63.828 298.508 63.375 298.504C63.169 298.502 63 298.178 63 297.785C63 297.393 62.6065 296.677 62.125 296.196C61.644 295.715 61.275 295.193 61.3055 295.035C61.4315 294.384 60.368 292 59.951 292C59.703 292 59.5 291.669 59.5 291.265C59.5 290.382 57.4595 286.319 56.8975 286.083C56.679 285.991 56.5 285.516 56.5 285.026C56.5 284.536 56.0335 283.542 55.4635 282.817C54.894 282.093 54.5775 281.5 54.761 281.5C54.945 281.5 54.5015 280.487 53.7765 279.25C53.051 278.012 52.587 277 52.745 277C52.903 277 52.499 276.043 51.8475 274.875C51.1965 273.706 50.758 272.469 50.8735 272.125C50.989 271.781 50.8265 271.5 50.512 271.5C50.198 271.5 50.08 271.275 50.25 271C50.42 270.725 50.3205 270.5 50.0295 270.5C49.7385 270.5 49.5 270.077 49.5 269.561C49.5 269.044 49.1225 267.751 48.6615 266.686C48.2005 265.621 47.768 264.451 47.7 264.086C47.6325 263.721 47.208 262.644 46.7565 261.693C46.305 260.742 45.602 258.678 45.194 257.107C44.7865 255.535 44.251 254.179 44.0045 254.092C43.758 254.006 43.6715 253.635 43.812 253.268C43.953 252.901 43.824 252.45 43.526 252.266C43.2275 252.081 43.113 251.721 43.2715 251.465C43.4295 251.209 43.3075 251 43 251C42.6925 251 42.5685 250.794 42.724 250.542C42.88 250.29 42.758 249.446 42.4535 248.667C42.149 247.887 41.8055 246.687 41.6895 246L41.479 244.75L46.3645 244.875C52.7925 245.039 55.6405 245.292 62.25 246.285C65.275 246.739 68.3125 247.183 69 247.272C69.6875 247.36 71.375 247.685 72.75 247.993C74.125 248.301 75.5875 248.622 76 248.707C76.4125 248.792 77.133 249.025 77.601 249.225C78.069 249.425 78.688 249.443 78.976 249.265C79.264 249.086 79.5 249.159 79.5 249.426C79.5 249.693 79.8935 249.848 80.375 249.77C80.8565 249.692 81.49 249.818 81.783 250.049C82.0765 250.28 83.033 250.524 83.908 250.591C84.7835 250.658 85.5 250.908 85.5 251.148C85.5 251.387 85.7815 251.489 86.125 251.374C86.469 251.259 87.9285 251.579 89.3685 252.084C90.809 252.59 92.384 253.066 92.8685 253.141C93.3535 253.217 94.0315 253.454 94.375 253.669C94.719 253.883 95.225 253.92 95.5 253.75C95.775 253.58 96 253.672 96 253.955C96 254.237 96.3375 254.339 96.75 254.181C97.1625 254.022 97.5 254.117 97.5 254.391C97.5 254.792 98.8815 255.25 101.5 255.717C101.88 255.785 105.053 257.031 106.825 257.808C107.692 258.189 108.763 258.5 109.206 258.5C109.648 258.5 110.964 258.939 112.13 259.476C115.429 260.995 121 262.989 121 262.65C121 262.482 121.405 262.712 121.901 263.16C122.397 263.609 123.24 264.06 123.776 264.163C125.04 264.405 126.505 264.94 127.726 265.604C130.411 267.064 136.427 269.966 137.046 270.099C137.433 270.182 137.862 270.37 138 270.516C138.616 271.173 145.77 275.166 146.33 275.166C146.674 275.166 146.84 275.354 146.698 275.583C146.557 275.812 146.792 276 147.22 276C147.649 276 148 276.199 148 276.441C148 276.684 148.394 277.015 148.875 277.177C150.209 277.625 151.61 278.629 152.645 279.88C153.159 280.501 153.792 280.878 154.052 280.717C154.312 280.557 154.474 280.611 154.413 280.838C154.254 281.424 158.441 285.775 159.019 285.625C159.284 285.556 159.5 285.738 159.5 286.029C159.5 286.32 159.725 286.42 160 286.25C160.275 286.08 160.5 286.153 160.5 286.413C160.5 287.25 163.666 287.382 165.85 286.638C168.673 285.676 170.724 283.244 171.506 279.929C172.731 274.737 177.132 262.68 180.007 256.641C185.529 245.042 190.521 238.634 196.506 235.459C200.528 233.326 202 231.301 202 227.901C202 224.471 201.188 223.218 196.16 218.889C186.636 210.688 177.675 201.349 167.96 189.5C166.269 187.437 164.687 185.675 164.443 185.583C164.199 185.491 164 185.173 164 184.875C164 184.577 163.678 183.977 163.285 183.542C162.891 183.106 162.048 182.173 161.41 181.469C160.772 180.764 159.92 179.564 159.517 178.801C159.114 178.038 158.271 176.859 157.642 176.181C157.014 175.503 156.5 174.758 156.5 174.526C156.5 174.295 155.941 173.575 155.258 172.927C154.576 172.28 154.013 171.501 154.008 171.198C154.004 170.894 153.448 170.05 152.774 169.323C152.099 168.595 151.658 168 151.793 168C151.929 168 151.809 167.719 151.527 167.375C149.259 164.607 148.452 163.488 148.478 163.147C148.494 162.928 148.171 162.356 147.759 161.875C147.347 161.394 147.107 161 147.226 161C147.459 161 144.388 156.144 143.527 155.15C143.242 154.82 142.627 153.752 142.161 152.775C141.696 151.799 141.118 151 140.878 151C140.637 151 140.58 150.775 140.75 150.5C140.92 150.225 140.807 150 140.5 150C140.192 150 140.061 149.805 140.208 149.567C140.356 149.328 140.037 148.736 139.5 148.25C138.963 147.764 138.644 147.171 138.791 146.933C138.938 146.695 138.807 146.5 138.5 146.5C138.192 146.5 138.08 146.275 138.25 146C138.42 145.725 138.377 145.499 138.154 145.498C137.932 145.497 137.334 144.484 136.825 143.248C136.317 142.011 135.685 141 135.421 141C135.157 141 135.08 140.775 135.25 140.5C135.42 140.225 135.32 140 135.029 140C134.738 140 134.5 139.662 134.5 139.25C134.5 138.837 134.261 138.5 133.97 138.5C133.679 138.5 133.58 138.275 133.75 138C133.92 137.725 133.82 137.5 133.529 137.5C133.238 137.5 133.047 137.331 133.104 137.125C133.269 136.534 130.802 131.5 130.348 131.5C130.124 131.5 130.069 131.293 130.225 131.04C130.381 130.787 130.161 130.233 129.736 129.808C129.312 129.383 128.962 128.919 128.959 128.776C128.94 127.885 127.821 125.5 127.421 125.5C127.157 125.5 127.08 125.275 127.25 125C127.42 124.725 127.368 124.5 127.136 124.5C126.903 124.5 126.678 124.047 126.637 123.495C126.595 122.942 126.21 122.138 125.78 121.709C125.351 121.28 125 120.591 125 120.178C125 119.766 124.66 119.089 124.245 118.674C123.83 118.259 123.618 117.713 123.774 117.46C123.93 117.208 123.736 116.383 123.342 115.626C122.004 113.052 120.819 110.251 120.91 109.875C120.959 109.668 120.761 109.5 120.47 109.5C120.179 109.5 120.07 109.29 120.228 109.034C120.387 108.778 120.287 108.428 120.008 108.255C119.728 108.082 119.5 107.504 119.5 106.97C119.5 106.436 119.323 106 119.106 106C118.89 106 118.681 105.582 118.643 105.071C118.604 104.561 118.023 102.817 117.351 101.196C116.679 99.576 115.504 96.3375 114.74 94C113.976 91.6625 113.13 89.6065 112.861 89.431C112.592 89.2555 112.517 88.877 112.694 88.5905C112.871 88.3035 112.784 87.9255 112.5 87.75C112.216 87.5745 112.113 87.2215 112.271 86.9655C112.429 86.7095 112.369 86.5 112.136 86.5C111.904 86.5 111.675 86.1065 111.627 85.625C111.416 83.4925 110.851 81.5 110.459 81.5C110.224 81.5 110.152 81.1855 110.3 80.8005C110.447 80.416 110.337 79.9585 110.056 79.7845C109.774 79.6105 109.67 79.1375 109.825 78.734C109.98 78.3305 109.865 78 109.569 78C109.273 78 109.161 77.6625 109.319 77.25C109.477 76.8375 109.365 76.5 109.069 76.5C108.773 76.5 108.662 76.1595 108.821 75.7435C108.981 75.3275 108.842 74.6625 108.513 74.2655C108.183 73.8685 108.059 73.309 108.236 73.022C108.414 72.735 108.34 72.5 108.074 72.5C107.807 72.5 107.652 72.1065 107.729 71.625C107.807 71.1435 107.741 70.529 107.584 70.259C107.426 69.9885 107.242 69.426 107.174 69.009C107.106 68.5915 106.81 67.2375 106.517 66C106.224 64.7625 105.886 63.1305 105.765 62.3735C105.645 61.6165 105.448 60.379 105.328 59.6235C105.208 58.868 104.973 57.125 104.805 55.75C104.638 54.375 104.361 52.6875 104.191 52C103.798 50.4165 103.841 41.318 104.253 39C104.423 38.0375 104.587 36.9775 104.615 36.645C104.703 35.6105 107.191 35.097 110.794 35.3695C112.695 35.513 114.756 35.6574 115.375 35.6905C115.994 35.7229 116.5 35.905 116.5 36.094C116.5 36.283 116.893 36.4305 117.375 36.422C118.57 36.4005 120.24 36.8255 121.402 37.4475C121.933 37.732 122.51 37.8225 122.684 37.649C122.858 37.4755 123 37.5715 123 37.8625C123 38.1535 123.58 38.5375 124.29 38.7155C125 38.8935 127.081 39.7555 128.915 40.6305C130.749 41.5055 132.418 42.172 132.625 42.111C132.831 42.05 133 42.2385 133 42.5295C133 42.8205 133.225 42.92 133.5 42.75C133.775 42.58 134 42.685 134 42.983C134 43.516 136.391 44.7385 137.125 44.5805C137.331 44.5365 137.5 44.674 137.5 44.8865C137.5 45.099 138.344 45.7155 139.375 46.2565C140.406 46.7975 141.362 47.366 141.5 47.5195C142.103 48.1925 145 50.0375 145 49.7485C145 49.5725 145.329 49.726 145.732 50.0895C147.438 51.6275 147.91 51.9235 148.196 51.6365C148.363 51.47 148.5 51.565 148.5 51.848C148.5 52.3575 154.885 57.342 155.644 57.425C155.86 57.449 156.62 58.16 157.331 59.005C158.042 59.8505 158.714 60.452 158.824 60.342C158.934 60.232 159.872 60.954 160.909 61.946C161.945 62.938 163.884 64.65 165.216 65.75C169.108 68.964 182.511 82.775 187.528 88.742C214.406 120.708 235.193 161.33 246.61 204.195C249.169 213.802 250.152 214.673 259.333 215.467C280.282 217.279 299.094 225.065 317 239.332C322.899 244.032 332.94 254.189 338.175 260.75C355.25 282.151 366.935 307.575 367.855 325.322C368.138 330.789 368.114 330.958 366.592 334.21C363 341.885 354.667 346.663 340.25 349.314C332.834 350.677 312.202 350.573 301.625 349.118C291.825 347.77 289.639 348.307 287.451 352.595C285.645 356.136 286.669 360.104 290.031 362.589C293.509 365.16 319.569 367.249 333.25 366.053C345.94 364.944 354.019 362.992 362.25 359.047C372.695 354.041 379.201 347.134 382.544 337.5C383.497 334.754 383.673 333.202 383.677 327.5C383.691 310.725 376.27 289.436 363.056 268.339C339.926 231.412 305.801 206.486 270.75 200.915C261.724 199.48 261.978 199.538 261.768 198.86C261.664 198.524 260.441 194.498 259.052 189.912C252.09 166.943 241.421 141.873 230.629 123.125C228.689 119.756 227.252 117 227.435 117C227.618 117 230.351 119.207 233.509 121.906C238.848 126.468 244.2 131.999 248.676 137.578C252.061 141.797 256.019 142.632 260.167 140.001C261.467 139.177 262.669 138.142 262.838 137.701C263.136 136.924 263.521 136.458 266.794 132.919C267.643 132.001 268.43 131.025 268.544 130.75C268.657 130.475 268.918 130.306 269.125 130.375C269.331 130.443 269.5 130.286 269.5 130.024C269.5 129.512 271.318 127.718 275.857 123.75C277.43 122.375 279.5 120.462 280.456 119.5C281.412 118.537 282.005 118.063 281.773 118.446C281.542 118.829 282.373 118.379 283.62 117.446C284.867 116.513 285.787 115.581 285.664 115.375C285.462 115.036 286.295 114.824 286.645 115.125C286.725 115.193 287.681 114.559 288.77 113.715C289.859 112.87 291.65 111.645 292.75 110.991C293.85 110.337 294.862 109.678 295 109.526C295.137 109.374 295.587 109.176 296 109.085C296.412 108.995 297.087 108.628 297.5 108.27C297.912 107.911 298.756 107.464 299.375 107.275C299.993 107.087 300.5 106.685 300.5 106.383C300.5 106.08 300.65 105.984 300.834 106.168C301.018 106.351 301.524 106.18 301.959 105.786C302.394 105.393 302.975 105.052 303.25 105.029C304.399 104.934 305.5 104.399 305.5 103.937C305.5 103.664 305.725 103.58 306 103.75C306.275 103.92 306.5 103.807 306.5 103.5C306.5 103.192 306.735 103.086 307.022 103.263C307.309 103.441 307.815 103.371 308.147 103.108C308.478 102.845 309.594 102.358 310.625 102.026C311.656 101.694 312.5 101.263 312.5 101.067C312.5 100.872 312.894 100.682 313.375 100.644C313.856 100.607 314.925 100.318 315.75 100.003C316.575 99.6875 317.362 99.403 317.5 99.3705C317.637 99.3375 318.296 99.0275 318.964 98.681C319.632 98.3345 320.363 98.1655 320.589 98.305C320.815 98.445 321 98.3075 321 98C321 97.6925 321.199 97.564 321.442 97.7145C321.908 98.0025 324.628 97.272 326.145 96.4505C326.638 96.184 327.256 96.0994 327.52 96.2625C327.784 96.4255 328 96.3075 328 96C328 95.6925 328.215 95.574 328.478 95.7365C328.741 95.899 329.735 95.7065 330.687 95.3085C331.639 94.9105 332.539 94.7065 332.687 94.8545C332.835 95.0025 333.36 94.9535 333.853 94.7455C334.346 94.538 335.312 94.295 336 94.2055C336.687 94.1165 337.812 93.894 338.5 93.711C339.187 93.528 340.481 93.2935 341.375 93.189C342.269 93.085 343.844 92.878 344.875 92.729C351.357 91.7915 380.75 91.599 380.75 92.494C380.75 92.686 386.242 93.478 389.25 93.7195C390.075 93.7859 391.2 93.9795 391.75 94.1505C392.3 94.321 393.312 94.575 394 94.7145C394.687 94.8545 396.262 95.2285 397.5 95.5465C398.737 95.8645 400.091 96.1635 400.509 96.211C400.926 96.2585 401.488 96.4325 401.759 96.598C402.271 96.9115 406.38 98.1295 407.25 98.226C407.525 98.2565 408.617 98.6665 409.678 99.1375C410.738 99.6079 411.807 99.869 412.053 99.717C412.299 99.5655 412.5 99.6795 412.5 99.9705C412.5 100.261 412.84 100.5 413.257 100.5C413.673 100.5 414.404 100.727 414.882 101.005C415.359 101.283 418 102.473 420.75 103.65C423.5 104.828 427.897 107.055 430.522 108.601C456.996 124.192 472.456 149.156 476.286 182.5C477.366 191.905 477.023 209.075 475.557 219C471.254 248.131 460.832 276.421 443.172 306.908C435.501 320.151 429.778 328.403 420.745 339.25C403.157 360.367 378.107 383.2 347.192 406.294C339 412.414 337.518 413.725 336.817 415.477C336.368 416.6 336 418.073 336 418.75C336 420.345 337.489 424.066 338 423.749C338.217 423.615 338.517 423.825 338.667 424.215C338.817 424.605 339.74 425.304 340.719 425.769C343.413 427.047 347.084 426.497 349.691 424.424C350.823 423.524 351.825 422.61 351.916 422.393C352.008 422.177 352.409 422 352.807 422C353.205 422 353.66 421.664 353.818 421.253C353.976 420.842 354.291 420.62 354.518 420.761C354.745 420.902 355.248 420.564 355.635 420.011C356.023 419.458 356.488 419.155 356.67 419.336C356.851 419.518 357 419.404 357 419.083C357 418.762 357.281 418.5 357.625 418.5C357.969 418.5 359.206 417.626 360.375 416.558C361.544 415.489 362.5 414.711 362.5 414.827C362.5 415.115 363.842 413.991 365.11 412.642C365.682 412.032 366.295 411.623 366.471 411.732C366.648 411.841 367.845 410.964 369.131 409.783C370.417 408.602 371.589 407.755 371.735 407.901C371.88 408.047 372 407.919 372 407.617C372 407.314 372.453 406.923 373.007 406.747C373.561 406.572 373.895 406.235 373.75 406C373.604 405.764 373.939 405.428 374.493 405.252C375.047 405.076 375.737 404.491 376.025 403.952C376.314 403.413 376.74 403.089 376.972 403.232C377.204 403.376 378.59 402.37 380.053 400.996C381.515 399.623 382.775 398.5 382.852 398.5C383.027 398.5 385.364 396.544 386.585 395.375C387.088 394.894 387.725 394.5 388 394.5C388.275 394.5 388.5 394.149 388.5 393.72C388.5 393.292 388.674 393.048 388.886 393.18C389.099 393.311 390.707 392.087 392.461 390.459C394.214 388.831 395.767 387.5 395.912 387.5C396.057 387.5 397.599 386.056 399.338 384.291C401.077 382.526 402.5 381.21 402.5 381.366C402.5 381.522 407.225 376.899 413 371.094C418.775 365.289 423.5 360.354 423.5 360.127C423.5 359.9 424.4 358.97 425.5 358.061C426.6 357.151 427.5 356.158 427.5 355.855C427.5 355.552 428.569 354.311 429.875 353.098C431.181 351.884 431.811 351.197 431.274 351.571C430.737 351.944 431.694 350.823 433.401 349.08C435.107 347.336 436.391 345.728 436.254 345.507C436.117 345.286 436.342 344.976 436.753 344.818C437.164 344.66 437.5 344.277 437.5 343.966C437.5 343.655 438.118 342.804 438.875 342.075C439.631 341.346 440.7 340.113 441.25 339.334C441.8 338.556 443.316 336.531 444.62 334.834C445.924 333.138 446.993 331.503 446.995 331.202C446.998 330.901 447.444 330.252 447.988 329.76C448.531 329.269 448.856 328.671 448.708 328.433C448.561 328.195 448.684 328 448.981 328C449.278 328 449.79 327.381 450.119 326.625C450.447 325.868 451.23 324.554 451.858 323.703C452.486 322.852 453 322.006 453 321.823C453 321.641 453.675 320.559 454.5 319.42C455.325 318.282 456 317.046 456 316.675C456 316.303 456.238 316 456.529 316C456.82 316 456.92 315.775 456.75 315.5C456.58 315.225 456.679 315 456.97 315C457.261 315 457.5 314.561 457.5 314.025C457.5 313.488 457.894 312.82 458.375 312.54C458.856 312.259 459.077 312.023 458.866 312.015C458.656 312.007 459.245 310.893 460.175 309.54C461.106 308.187 462.291 306.05 462.809 304.791C463.326 303.533 463.918 302.503 464.125 302.502C464.331 302.501 464.5 302.05 464.5 301.5C464.5 300.95 464.703 300.5 464.951 300.5C465.328 300.5 466.441 298.082 466.459 297.224C466.462 297.081 466.81 296.619 467.232 296.196C467.654 295.774 468 295.022 468 294.525C468 294.029 468.337 293.342 468.75 293C469.162 292.657 469.5 292.053 469.5 291.656C469.5 291.259 469.77 290.443 470.101 289.842C470.431 289.241 470.754 288.435 470.817 288.05C470.881 287.665 471.229 287.162 471.592 286.932C471.954 286.703 472.046 286.512 471.797 286.507C471.548 286.503 471.752 286.05 472.25 285.5C472.747 284.95 473.011 284.5 472.836 284.5C472.66 284.5 472.927 283.769 473.429 282.875C474.454 281.049 475.759 277.447 475.602 276.875C475.546 276.669 475.7 276.5 475.946 276.5C476.191 276.5 476.566 275.881 476.78 275.125C477.305 273.267 477.196 273.551 478.458 270.75C479.077 269.375 479.64 267.743 479.709 267.124C479.778 266.505 479.984 265.849 480.167 265.666C480.35 265.483 480.5 264.858 480.5 264.278C480.5 263.697 480.85 262.722 481.278 262.111C481.706 261.5 481.904 261 481.717 261C481.53 261 481.638 260.686 481.956 260.303C482.274 259.92 482.626 258.881 482.738 257.994C482.85 257.107 483.272 255.677 483.676 254.816C484.08 253.954 484.486 252.687 484.58 252C484.673 251.312 484.863 250.637 485 250.5C485.23 250.27 487.273 242.583 487.724 240.25C487.831 239.7 488.361 237.225 488.903 234.75C489.445 232.275 489.901 229.912 489.917 229.5C489.972 228.066 490.358 225.745 490.667 225C490.838 224.587 490.899 223.8 490.803 223.25C490.708 222.7 490.763 222.025 490.925 221.75C491.44 220.88 491.593 219.507 492.395 208.5C492.754 203.578 492.715 190.492 492.326 185.25C491.808 178.271 490.245 167.301 489.625 166.298C489.312 165.791 489.064 164.621 488.927 163C488.892 162.587 488.642 161.969 488.37 161.625C488.099 161.281 488.005 161 488.162 161C488.532 161 487.033 155.916 486.453 155.204C486.209 154.903 486.137 154.529 486.295 154.372C486.452 154.214 486.297 153.56 485.949 152.918C485.602 152.275 485.26 151.224 485.188 150.582C485.117 149.94 484.708 148.879 484.279 148.225C483.851 147.57 483.5 146.69 483.5 146.267C483.5 145.845 483.251 145.5 482.946 145.5C482.642 145.5 482.511 145.192 482.656 144.815C482.8 144.438 482.441 143.37 481.858 142.44C481.275 141.51 480.776 140.637 480.749 140.5C480.513 139.281 479.841 138 479.437 138C479.164 138 479.08 137.775 479.25 137.5C479.42 137.225 479.32 137 479.029 137C478.738 137 478.544 136.831 478.599 136.625C478.794 135.885 477.921 134 477.383 134C477.08 134 476.985 133.848 477.171 133.662C477.357 133.476 477.07 132.857 476.535 132.287C475.999 131.716 475.526 131.025 475.484 130.75C475.356 129.905 473.808 127.5 473.392 127.5C473.176 127.5 473 127.186 473 126.803C473 126.42 472.63 125.965 472.178 125.791C471.726 125.618 471.495 125.338 471.665 125.168C471.989 124.844 469.458 121.366 467.812 119.875C467.281 119.393 467.05 118.997 467.298 118.993C467.547 118.989 466.755 118.089 465.54 116.993C464.324 115.897 463.492 115 463.69 115C464.258 115 458.267 109.176 454.069 105.647C448.528 100.989 448.533 100.994 447.211 100.391C446.545 100.088 446 99.6505 446 99.4195C446 99.189 445.765 99 445.479 99C445.192 99 444.514 98.586 443.97 98.08C443.427 97.574 442.368 96.8485 441.616 96.468C440.865 96.0875 439.717 95.3794 439.066 94.895C438.415 94.41 437.684 94.1365 437.441 94.2865C437.198 94.4365 437 94.3205 437 94.0295C437 93.7385 436.662 93.5 436.25 93.5C435.837 93.5 435.5 93.2374 435.5 92.9165C435.5 92.5959 435.36 92.4725 435.19 92.643C435.02 92.813 434.552 92.6235 434.15 92.2215C433.748 91.8195 433.212 91.6185 432.959 91.775C432.707 91.931 432.5 91.87 432.5 91.639C432.5 91.3245 430.051 90.113 429.136 89.9755C429.073 89.966 427.757 89.293 426.212 88.48C424.666 87.667 423.199 87.127 422.951 87.2805C422.703 87.4335 422.5 87.3075 422.5 87C422.5 86.6925 422.275 86.58 422 86.75C421.725 86.92 421.5 86.7965 421.5 86.476C421.5 86.1554 421.162 86.0225 420.75 86.181C420.337 86.339 420 86.2265 420 85.931C420 85.635 419.677 85.517 419.282 85.6685C418.887 85.82 418.49 85.7215 418.4 85.4495C418.309 85.178 417.732 84.9174 417.117 84.8715C416.503 84.825 416 84.6 416 84.3715C416 84.143 415.719 84.0015 415.375 84.057C414.761 84.156 413.732 83.8459 411.75 82.965C411.2 82.7205 410.187 82.4055 409.5 82.2655C406.06 81.564 405.21 81.3355 404.75 80.9895C404.196 80.5725 399.997 79.748 399.322 79.9235C399.087 79.985 398.637 79.8445 398.322 79.612C398.007 79.379 397.412 79.2175 397 79.2525C396.587 79.2875 395.878 79.1365 395.424 78.917C394.714 78.5735 391.849 78.1075 388.25 77.75C387.7 77.695 386.912 77.5229 386.5 77.367C386.087 77.2115 385.412 77.0575 385 77.025C384.587 76.9925 382.9 76.8695 381.25 76.7515C379.6 76.6335 376.675 76.4015 374.75 76.2355C367.266 75.5905 351.18 76.059 342.5 77.175C341.537 77.2985 339.625 77.5415 338.25 77.714C336.875 77.887 334.962 78.2675 334 78.5595C333.037 78.8515 331.237 79.201 330 79.3355C328.762 79.4705 327.674 79.789 327.582 80.0435C327.49 80.298 327.238 80.3969 327.022 80.2635C326.502 79.9425 320.982 81.392 320.175 82.062C319.828 82.3499 319.299 82.435 319 82.25C318.701 82.065 317.903 82.276 317.228 82.7185C316.552 83.161 316 83.4025 316 83.255C316 83.1075 315.212 83.3155 314.25 83.718C313.287 84.12 312.5 84.34 312.5 84.207C312.5 84.074 311.993 84.243 311.375 84.583C310.756 84.923 309.81 85.274 309.271 85.363C308.733 85.4525 308.118 85.8009 307.904 86.1375C307.69 86.4744 307.512 86.5535 307.507 86.314C307.503 86.074 307.198 86.128 306.829 86.4345C306.46 86.7405 306.037 86.87 305.889 86.722C305.741 86.574 304.58 87.0335 303.31 87.7425C302.039 88.452 301 88.908 301 88.756C301 88.604 300.043 88.9675 298.875 89.564C297.706 90.16 296.691 90.61 296.62 90.564C296.356 90.3935 293.239 92.1565 292.915 92.6595C292.73 92.9455 292.172 93.2395 291.674 93.3125C291.176 93.3855 290.688 93.684 290.591 93.976C290.494 94.2674 290.227 94.3904 289.997 94.2485C289.768 94.1069 289.281 94.274 288.915 94.6205C288.549 94.9665 287.406 95.64 286.375 96.117C285.344 96.5935 284.5 97.2124 284.5 97.492C284.5 97.7715 284.141 98 283.702 98C283.02 98 280.277 99.618 279.5 100.479C278.8 101.254 275.5 103.5 275.061 103.5C274.784 103.5 274.262 103.914 273.903 104.42C273.544 104.927 272.687 105.625 272 105.972C271.312 106.319 270.131 107.285 269.375 108.119C268.618 108.953 268 109.467 268 109.26C268 109.054 267.163 109.699 266.139 110.693C265.116 111.687 264.1 112.5 263.882 112.5C263.664 112.5 263.039 113.231 262.494 114.125C261.949 115.018 261.503 115.539 261.502 115.281C261.501 115.024 260.833 115.452 260.018 116.233C259.202 117.014 258.643 117.828 258.776 118.042C258.908 118.256 258.753 118.593 258.431 118.792C258.034 119.037 257.976 118.927 258.249 118.452C258.472 118.066 258.198 118.2 257.641 118.75C257.083 119.3 256.715 119.903 256.822 120.09C256.929 120.277 256.783 120.575 256.498 120.751C255.942 121.095 252.88 118.786 253.315 118.351C253.458 118.208 253.105 117.942 252.53 117.759C251.955 117.577 251.604 117.236 251.748 117.002C251.893 116.768 250.949 115.715 249.65 114.663C248.351 113.611 246.637 112.018 245.842 111.125C245.047 110.231 244.132 109.5 243.809 109.5C243.487 109.5 242.653 108.881 241.957 108.125C240.476 106.516 238.887 105.218 238.422 105.237C238.242 105.244 237.398 104.629 236.547 103.871C235.696 103.113 235 102.594 235 102.718C235 102.842 234.304 102.308 233.454 101.532C232.604 100.755 231.31 99.8214 230.579 99.4565C229.848 99.0915 228.856 98.4675 228.375 98.069C227.893 97.671 227.5 97.5115 227.5 97.7145C227.5 97.918 226.656 97.425 225.625 96.619C223.649 95.076 215 90.34 215 90.802C215 90.95 214.646 90.718 214.214 90.2855C213.782 89.8535 213.107 89.472 212.714 89.4375C212.321 89.403 211.831 89.3165 211.625 89.245C211.418 89.174 210.744 88.951 210.125 88.7495C209.506 88.548 209 88.1844 209 87.9415C209 87.699 208.569 87.5 208.043 87.5C207.498 87.5 206.422 86.5975 205.543 85.4015C204.694 84.2475 204 83.491 204 83.7215C204 83.9515 203.422 83.2645 202.715 82.195C202.008 81.125 201.03 79.9045 200.542 79.4825C200.054 79.0605 199.564 78.4635 199.452 78.1555C198.848 76.487 179.033 56 178.023 56C177.703 56 177.58 55.775 177.75 55.5C177.92 55.225 177.877 54.998 177.654 54.996C177.432 54.9935 175.904 53.756 174.26 52.246C172.616 50.7355 170.971 49.5 170.605 49.5C170.24 49.5 170.072 49.2875 170.232 49.028C170.393 48.7685 169.526 47.972 168.307 47.2575C167.088 46.543 165.959 45.616 165.799 45.1975C165.638 44.7789 165.305 44.5615 165.058 44.714C164.811 44.8665 164.242 44.431 163.793 43.7455C163.344 43.0605 162.771 42.5 162.519 42.5C162.267 42.5 161.322 41.825 160.419 41C159.516 40.175 158.604 39.5 158.392 39.5C158.181 39.5 157.425 38.9935 156.713 38.375C156.002 37.7565 155.321 37.311 155.2 37.386C155.079 37.4605 154.367 36.954 153.618 36.2595C152.87 35.5655 151.524 34.7555 150.629 34.46C149.733 34.1645 149 33.715 149 33.461C149 33.2075 148.662 33 148.25 33C147.837 33 147.5 32.8235 147.5 32.608C147.5 32.028 144.693 30.473 144.32 30.8465C144.144 31.0225 144 30.8665 144 30.5C144 30.1335 143.868 29.9645 143.708 30.125C143.548 30.2855 142.977 29.977 142.44 29.44C141.903 28.903 141.246 28.5975 140.982 28.7615C140.717 28.925 140.5 28.848 140.5 28.59C140.5 28.142 137.975 26.879 137.146 26.9125C136.928 26.9215 136.412 26.626 136 26.256C135.384 25.704 127.033 22.2565 125.25 21.8185C124.975 21.7505 123.91 21.4105 122.885 21.062C121.859 20.714 120.79 20.5705 120.51 20.744C120.229 20.917 120 20.7965 120 20.476C120 20.143 119.651 20.027 119.186 20.205C118.739 20.377 118.12 20.308 117.811 20.053C117.502 19.7975 116.687 19.5665 116 19.5395C107.453 19.205 104.432 19.205 104.226 19.5385ZM98.125 100.536C97.506 100.773 97 100.835 97 100.672C97 100.51 96.6625 100.657 96.25 101C95.8375 101.342 95.4965 101.426 95.4925 101.186C95.488 100.946 95.3195 100.975 95.1175 101.251C94.9155 101.526 94.1875 102.014 93.5 102.334C92.8125 102.655 90.9 103.552 89.25 104.328C87.6 105.104 86.234 105.629 86.2145 105.495C86.1945 105.36 85.783 105.646 85.299 106.129C84.815 106.613 84.2315 106.893 84.0025 106.751C83.773 106.609 83.51 106.694 83.4175 106.939C83.3255 107.185 81.45 108.459 79.25 109.771C77.05 111.083 74.744 112.61 74.125 113.165C73.506 113.72 73 114.034 73 113.862C73 113.691 72.1565 114.326 71.125 115.273C70.094 116.22 69.0705 116.996 68.851 116.997C68.6315 116.999 67.9005 117.595 67.226 118.323C66.552 119.05 66 119.513 66 119.351C66 119.102 63.949 121.165 57.125 128.281C56.506 128.926 56 129.601 56 129.78C56 130.405 53.6085 132.942 53.3055 132.639C53.1375 132.471 53 132.708 53 133.166C53 133.625 52.7375 134 52.4165 134C52.096 134 51.978 134.145 52.1555 134.322C52.3325 134.499 51.8075 135.407 50.9885 136.339C50.17 137.272 49.5 138.364 49.5 138.767C49.5 139.17 49.275 139.5 49 139.5C48.725 139.5 48.5 139.837 48.5 140.25C48.5 140.662 48.275 141 48 141C47.725 141 47.5 141.45 47.5 142C47.5 142.55 47.275 143 47 143C46.725 143 46.5 143.439 46.5 143.975C46.5 144.511 46.1065 145.17 45.625 145.44C45.1435 145.709 44.8425 146.072 44.956 146.246C45.2625 146.719 43.8825 150 43.377 150C43.1375 150 43.08 150.225 43.25 150.5C43.42 150.775 43.328 151 43.045 151C42.7625 151 42.661 151.337 42.819 151.75C42.9775 152.162 42.8445 152.5 42.524 152.5C42.2035 152.5 42.08 152.725 42.25 153C42.42 153.275 42.3205 153.5 42.0295 153.5C41.7385 153.5 41.5355 153.668 41.5795 153.875C41.623 154.081 41.536 154.587 41.3865 155C41.2365 155.412 40.8415 156.749 40.5085 157.97C40.175 159.192 39.665 160.767 39.375 161.47C39.0845 162.174 38.7665 163.2 38.668 163.75C38.569 164.3 38.343 165.087 38.1655 165.5C37.9875 165.912 37.8835 166.514 37.9345 166.837C37.985 167.16 37.8165 167.554 37.56 167.713C37.3035 167.871 37.2115 168.451 37.3555 169C37.507 169.581 37.3705 170 37.029 170C36.7055 170 36.577 170.22 36.743 170.488C36.909 170.757 36.7955 171.902 36.491 173.033C36.1865 174.163 35.846 176.137 35.734 177.419C35.622 178.701 35.4055 180.425 35.253 181.25C34.675 184.376 34.4475 189.545 34.5045 198.25C34.5715 208.425 34.69 210.301 35.7845 218.5C35.913 219.462 36.0925 220.925 36.183 221.75C36.2735 222.575 36.623 224.543 36.9595 226.125C37.612 229.193 37.5455 229.147 41.25 229.081C52.3595 228.883 57.6165 229.293 69.5 231.285C90.1915 234.752 115.344 242.69 136.139 252.314C142.893 255.44 153.809 261.315 157.409 263.761C158.39 264.428 159.232 264.923 159.28 264.862C159.328 264.8 160.439 262.05 161.748 258.75C166.645 246.409 172.207 236.688 177.968 230.404L181.035 227.058L173.392 219.402C152.152 198.125 134.101 172.939 118.453 142.75C114.64 135.394 106.658 118.512 106.277 117C106.243 116.862 105.903 116.187 105.523 115.5C105.142 114.812 104.89 114.25 104.961 114.25C105.087 114.25 104.6 112.991 103.221 109.75C102.87 108.925 101.999 106.57 101.285 104.518C100.57 102.465 99.8205 100.633 99.618 100.445C99.4155 100.258 98.744 100.298 98.125 100.536ZM292.18 259.049C289.03 259.451 284.951 261.603 282.891 263.95C275.99 271.809 278.01 283.746 287.09 288.777C289.511 290.117 290.176 290.25 294.5 290.25C300.03 290.25 302.6 289.282 305.941 285.941C309.232 282.65 310.25 280.007 310.25 274.75C310.25 271.057 310.042 269.829 309.093 267.902C305.981 261.584 299.38 258.128 292.18 259.049Z" fill="#255640"/>
<path fill-rule="evenodd" clip-rule="evenodd" d="M142 66.329C136.477 67.3775 134.053 69.1465 132.658 73.1485C131.322 76.9765 131.45 88.2 132.921 96.401C137.808 123.64 151.866 158.497 170.305 189.091C172.66 192.999 175.28 197.221 176.127 198.473C178.191 201.527 187.295 210.806 195.111 217.824C200.366 222.543 201.564 223.881 202.007 225.525C203.142 229.742 201.12 233.391 196.324 235.781C190.161 238.852 183.9 247.473 178.374 260.5C176.222 265.571 172.664 275.886 171.479 280.482C170.788 283.163 167.806 286.364 165.583 286.809C164.741 286.977 163.983 287.402 163.9 287.754C163.795 288.203 161.956 287.654 157.75 285.919C139.269 278.294 115.013 271.558 97.6585 269.23C85.907 267.654 69.5 268.555 69.5 270.776C69.5 272.283 73.5435 287.125 75.7255 293.626C85.079 321.496 104.889 355.084 121.413 371.09C139.323 388.438 163.971 407.832 191 425.844C206.814 436.381 217.184 442.759 240.176 456.084L255.602 465.025L262.426 461.069C266.179 458.894 270.478 456.47 271.979 455.682C275.127 454.031 275.564 453.38 279.255 444.849C285.698 429.959 289.089 416.143 290.425 399.341C290.754 395.202 291.089 393.617 291.849 392.591C293.225 390.733 295.903 389 297.398 389H298.65L298.289 382.625C298.091 379.119 297.552 373.663 297.09 370.5L296.25 364.75L293.75 364.138C290.164 363.259 289.072 362.551 287.708 360.224C286.308 357.834 286.121 354.684 287.25 352.501C288.138 350.784 290.728 348.708 292.548 348.254C293.262 348.076 297.65 348.433 302.298 349.048C313.581 350.54 331.03 350.666 339.25 349.315C350.623 347.447 358.726 343.919 363.419 338.794C366.908 334.986 367.753 332.624 367.732 326.75C367.697 316.996 364.152 305.191 356.77 290.25C343.328 263.044 323.298 241.027 300.25 228.126C288.035 221.288 273.023 216.583 260.75 215.745C250.814 215.068 249.019 213.823 247.042 206.242C241.625 185.465 233.898 164.971 223.952 145C212.007 121.016 198.548 100.974 182.146 82.75C177.901 78.033 177.311 77.5755 171.699 74.662C164.34 70.8425 159.026 68.7185 153.784 67.5015C149.42 66.4885 144.001 65.9495 142 66.329ZM290.475 259.151C285.957 260.429 281.865 263.997 279.826 268.439C278.333 271.689 278.339 277.823 279.838 281.088C281.356 284.395 284.635 287.748 287.927 289.358C290.251 290.495 291.401 290.735 294.497 290.725C301.054 290.706 306.201 287.51 309.073 281.677C311.97 275.793 310.993 268.943 306.531 263.862C303.007 259.847 295.648 257.688 290.475 259.151Z" fill="#EDE9C1"/>
<path fill-rule="evenodd" clip-rule="evenodd" d="M361.864 75.861C362.752 75.9715 364.327 75.973 365.364 75.865C366.401 75.7565 365.675 75.6665 363.75 75.664C361.825 75.662 360.976 75.7505 361.864 75.861Z" fill="#255640"/>
</svg>
