<svg width="512" height="512" viewBox="0 0 512 512" fill="none" xmlns="http://www.w3.org/2000/svg">
<path fill-rule="evenodd" clip-rule="evenodd" d="M246.5 32.713C237.34 34.746 234.38 36.456 212.976 52.0805L194.25 65.75L168.5 66.0235C139.524 66.3315 140.215 66.252 131.567 70.2995C121.636 74.948 114.336 82.1655 109.663 91.9545C108.929 93.492 105.153 104.537 101.272 116.5L94.2155 138.25L75.52 151.855C65.237 159.338 55.722 166.538 54.3745 167.855C46.2945 175.754 41.3775 186.575 40.6595 198.038C40.1675 205.887 40.9275 209.189 48.805 233.428L56.024 255.641L49.2815 276.445C40.428 303.763 40.7805 302.343 40.7775 310.75C40.7755 316.474 40.9825 318.518 41.9145 321.966C44.143 330.21 48.1875 337.274 53.966 343.011C55.7745 344.807 65.4505 352.201 75.5 359.466C85.5375 366.724 93.833 372.726 93.934 372.806C94.0355 372.886 97.2485 382.581 101.075 394.351C104.901 406.12 108.818 417.417 109.779 419.455C115.437 431.448 126.039 440.287 139.313 444.078C143.119 445.165 144.096 445.208 168.634 445.38L194.017 445.558L212.77 459.188C231.551 472.839 235.117 475.079 241.567 477.272C252.505 480.993 266.118 479.899 276.476 474.466C280.497 472.357 288.2 467.033 290.854 464.528C296.173 459.508 292.401 451 284.856 451C283.005 451 282.056 451.392 279.431 453.24C268.042 461.262 266.025 462.236 258.944 463.137C253.459 463.834 247.881 462.848 242.757 460.273C240.828 459.304 230.642 452.244 220.121 444.584C209.6 436.924 200.421 430.396 199.723 430.078C198.817 429.665 191.337 429.498 173.602 429.492C145.888 429.484 144.676 429.362 137.561 425.878C133.322 423.803 127.323 417.938 125.153 413.75C124.298 412.1 120.506 401.187 116.727 389.5C112.947 377.812 109.354 367.125 108.742 365.75C107.35 362.622 106.887 362.211 95 353.545C65.079 331.733 64.7485 331.465 61.442 326.349C58.1875 321.314 57.2445 317.718 57.2855 310.5L57.321 304.25L64.97 281C69.37 267.626 72.6345 256.9 72.6545 255.75C72.6775 254.46 70.337 246.558 66.0645 233.5C62.421 222.362 58.8905 211.368 58.2195 209.069C56.87 204.442 56.616 198.916 57.545 194.399C58.295 190.753 61.533 184.234 64.0125 181.379C65.2285 179.978 74.522 172.855 86.725 163.97C101.518 153.199 107.611 148.481 108.196 147.341C108.645 146.466 112.294 135.625 116.303 123.25C120.403 110.595 124.364 99.276 125.355 97.381C128.671 91.044 135.329 85.6945 143 83.2035C145.452 82.407 148.675 82.28 172.763 82.03L199.775 81.75L203.234 79.2805C205.137 77.9225 214.244 71.3135 223.472 64.5935C232.7 57.874 241.619 51.725 243.292 50.93C249.886 47.7945 257.431 47.3785 264.867 49.74C269.309 51.151 273.393 53.83 294.5 69.1855C303.163 75.4875 310.974 80.9485 311.859 81.3215C313.142 81.8625 318.573 82 338.654 82C362.192 82 364.096 82.0655 367.745 82.9985C377.913 85.599 385.234 92.7085 388.857 103.5C389.734 106.112 393.276 116.939 396.728 127.559C400.179 138.179 403.452 147.439 404 148.136C404.548 148.833 413.91 155.89 424.805 163.818C436.051 172.002 445.627 179.343 446.96 180.801C449.771 183.877 452.685 189.242 453.736 193.276C454.729 197.087 454.71 203.63 453.694 208.097C452.312 214.175 453.479 217.432 457.786 219.517C460.435 220.799 462.589 220.644 465.286 218.977C467.409 217.666 468.627 215.372 469.656 210.75C472.245 199.116 470.315 187.164 464.19 176.898C460.1 170.043 455.738 166.191 435.46 151.528L417.176 138.305L410.288 117.028C406.499 105.325 402.64 94.0985 401.712 92.08C395.655 78.9095 382.824 69.101 368.283 66.5255C366.486 66.207 355.935 66 341.509 66H317.7L300.725 53.671C276.52 36.091 275.481 35.468 266.561 33.195C262.748 32.2235 260.693 32.0095 255.561 32.051C252.09 32.0795 248.013 32.377 246.5 32.713ZM331.771 130.06C326.083 132.647 319.729 134.726 314.135 135.828C307.306 137.174 294.686 136.967 282.5 135.307C264.508 132.858 258.744 132.378 250.5 132.647C233.04 133.215 221.518 137.951 210.187 149.216C200.098 159.246 194.02 171.574 192.433 185.228L191.838 190.344L186.544 189.413C178.318 187.967 169.551 185.68 159.984 182.484C152.339 179.93 150.97 179.612 149.273 179.995C144.025 181.178 141.514 186.626 143.985 191.469C145.314 194.074 146.943 194.956 156 197.971C168.27 202.055 180.294 204.91 190.159 206.082L195.407 206.705L197.078 210.224C202.931 222.542 213.414 233.611 224.953 239.656C234.531 244.673 244.428 246.823 255.714 246.337C270.504 245.7 275.75 243.137 275.75 236.549C275.75 232.906 274.114 230.508 270.751 229.224C268.586 228.397 268.303 228.4 264.368 229.304C258.354 230.685 247.68 230.604 242.25 229.137C233.916 226.885 226.495 222.492 220.674 216.365C217.386 212.903 213.689 208.099 214.077 207.792C214.172 207.717 217.731 207.382 221.985 207.048C235.432 205.994 248.531 203.126 261.25 198.453C272.954 194.152 292.477 183.48 295.371 179.801C299.231 174.893 295.2 166.991 288.843 167.003C287.015 167.006 286.46 167.279 280 171.351C262.687 182.264 244.416 188.606 224.069 190.765C220.319 191.163 215.14 191.491 212.561 191.494L207.871 191.5L208.21 188.375C209.326 178.066 214.016 168.111 221.181 160.839C230.162 151.724 241.829 147.852 257.711 148.714C260.989 148.892 269.539 149.859 276.711 150.863C288.463 152.507 290.861 152.69 301 152.716C312.485 152.744 316.524 152.296 323.912 150.172C325.376 149.752 326.663 149.496 326.771 149.604C326.942 149.775 325.029 157.339 322.816 165.25C321.56 169.737 318.432 177.629 315.482 183.75C310.654 193.769 304.809 202.419 297.805 209.909C293.411 214.607 292.48 216.791 293.466 220.083C294.653 224.043 298.734 226.536 302.785 225.776C305.178 225.327 309.626 221.168 315.202 214.167C328.982 196.865 339.182 172.442 344.287 144.525C345.753 136.505 345.694 133.878 343.991 131.487C342.757 129.754 339.511 128.021 337.5 128.022C336.813 128.023 334.235 128.94 331.771 130.06ZM447.25 238.752C444.068 239.875 442.753 241.8 440.723 248.303C439.72 251.515 438.9 254.879 438.9 255.779C438.9 256.68 442.104 267.279 446.019 279.333C449.935 291.387 453.442 302.375 453.814 303.75C454.703 307.046 454.674 314.552 453.758 318C452.604 322.339 449.788 327.527 446.903 330.628C445.28 332.372 436.522 339.089 424.335 347.935C413.382 355.886 404.097 362.854 403.701 363.418C403.305 363.983 399.718 374.526 395.728 386.847C391.739 399.169 387.587 411.07 386.503 413.294C383.098 420.28 376.675 425.634 368.5 428.3C366.042 429.102 362.888 429.227 338.75 429.474L311.75 429.75L310.124 430.91C305.863 433.949 305.721 440.711 309.852 443.861L311.673 445.25H339.712C365.639 445.25 368.013 445.179 371.237 444.305C382.532 441.245 392.109 434.487 398.279 425.224C401.956 419.704 402.918 417.223 410.523 393.655L417.169 373.061L435.737 359.582C454.339 346.079 458.971 342.169 462.492 337C468.064 328.817 470.614 320.691 470.651 311C470.681 303.107 470.597 302.767 462.185 276.787L455.397 255.824L456.705 251.537C458.295 246.324 458.314 245.331 456.875 242.492C455.078 238.946 451.089 237.396 447.25 238.752ZM328.367 280.517C323.539 281.724 319.695 284.904 317.56 289.457C316.499 291.72 316.256 292.961 316.278 296C316.325 302.267 319.354 307.127 324.92 309.86C327.299 311.028 328.388 311.25 331.75 311.25C335.112 311.25 336.202 311.028 338.581 309.86C344.146 307.127 347.176 302.267 347.222 296C347.255 291.527 345.765 287.798 342.734 284.766C339.206 281.239 332.918 279.379 328.367 280.517ZM132.966 286.167C113.616 296.133 113.898 295.962 112.593 298.5C109.829 303.875 113.674 310 119.813 310C121.144 310 123.811 308.884 129.372 306C133.615 303.8 137.179 302 137.293 302C137.407 302 137.5 316.015 137.5 333.144V364.288L138.625 366.515C140.091 369.415 142.475 371 145.374 371C148.19 371 150.505 369.909 152.045 367.856L153.25 366.25L153.384 326.212L153.518 286.173L152.384 284.508C150.747 282.103 148.924 280.925 146.398 280.64C144.34 280.408 143.378 280.804 132.966 286.167ZM190 281.277C181.871 283.021 173.499 289.551 169.827 297.011C166.77 303.222 166.519 305.424 166.509 326.045C166.501 342.634 166.592 344.699 167.486 348.195C170.971 361.821 182.654 371 196.51 371C204.428 371 211.009 368.375 216.751 362.929C220.783 359.104 223.558 354.745 225.141 349.75C226.212 346.371 226.25 345.54 226.248 325.75L226.245 305.25L224.884 301.25C219.879 286.543 205.044 278.049 190 281.277ZM262.108 281.509C252.177 284.111 244.548 291.034 240.869 300.784C239.786 303.655 239.745 304.417 239.6 324.58C239.47 342.573 239.561 345.843 240.268 348.58C242.406 356.867 248.471 364.285 256.077 367.917C260.967 370.252 264.163 371 269.25 371C274.344 371 277.535 370.251 282.45 367.904C290.15 364.227 296.051 356.891 298.243 348.27C299.375 343.814 299.35 307.758 298.212 303.322C294.101 287.311 277.725 277.417 262.108 281.509ZM378.983 284.41C378.562 284.597 377.755 285.087 377.191 285.5C375.213 286.946 320.81 355.731 320.161 357.606C318.302 362.974 323.122 368.62 328.832 367.764C330.515 367.511 331.634 366.932 333.037 365.585C336.023 362.72 388.556 296.459 389.366 294.537C390.816 291.094 389.015 286.567 385.466 284.732C384.017 283.983 380.358 283.801 378.983 284.41ZM191.808 297.289C190.128 297.826 188.54 298.894 186.724 300.711C182.599 304.836 182.5 305.428 182.5 326.072C182.5 342.21 182.572 343.654 183.495 346.122C187.065 355.663 199.851 358.091 206.674 350.523C210.27 346.534 210.233 346.77 210.405 327.103C210.577 307.41 210.396 305.916 207.353 301.908C203.987 297.474 197.377 295.51 191.808 297.289ZM264.227 297.523C261.382 298.618 258.026 301.675 256.663 304.415C255.835 306.078 255.737 308.037 255.608 325.389C255.476 343.202 255.531 344.675 256.404 346.639C257.696 349.547 259.682 351.77 262.428 353.385C264.467 354.583 265.271 354.75 269.011 354.75C272.599 354.75 273.664 354.548 275.761 353.471C278.559 352.033 281.552 348.467 282.435 345.519C282.811 344.266 282.999 337.529 282.995 325.442C282.991 307.422 282.979 307.226 281.821 304.75C278.694 298.063 271.017 294.91 264.227 297.523ZM372.25 339.699C365.622 341.795 361.551 346.936 361.122 353.75C360.708 360.327 363.823 365.619 369.858 368.59C376.362 371.792 383.28 370.422 388.191 364.96C394.235 358.238 393.138 347.354 385.892 342.158C381.782 339.209 376.696 338.293 372.25 339.699Z" fill="#255640"/>
<path fill-rule="evenodd" clip-rule="evenodd" d="M274.25 57.9641C269.385 59.6986 266.546 61.5521 247.082 75.7016L227.414 90.0001H202.037C173.281 90.0001 172.607 90.0731 165.07 93.9946C157.599 97.8811 152.133 103.354 148.585 110.5C147.561 112.563 143.467 124.339 139.487 136.67L132.25 159.09L112.5 173.485C101.638 181.403 91.6145 189.089 90.226 190.565C85.4215 195.677 82.469 201.011 80.715 207.75C79.6435 211.867 79.496 221.008 80.445 224.5C80.781 225.738 84.3285 236.858 88.328 249.212L95.5995 271.674L88.0425 294.962C79.5965 320.991 79.0025 323.642 79.955 331.067C80.5365 335.604 82.288 341.267 84.149 344.63C84.9145 346.013 87.774 348.378 94.9695 353.58C106.419 361.858 107.724 363.005 108.777 365.717C109.472 367.51 110.86 368.687 120.501 375.66C126.515 380.011 131.649 383.836 131.91 384.16C132.171 384.485 135.601 394.691 139.532 406.841C145.576 425.517 146.84 428.974 147.715 429.209C148.285 429.362 159.933 429.49 173.602 429.493C191.338 429.498 198.817 429.666 199.723 430.079C200.421 430.397 209.6 436.924 220.121 444.584C230.642 452.244 240.828 459.305 242.757 460.273C247.881 462.848 253.459 463.835 258.944 463.137C266.025 462.236 268.042 461.262 279.431 453.241C283.74 450.206 286.304 450.15 290.808 452.99C291.782 453.604 292.498 453.196 299.882 447.821L307.898 441.986L307.24 439.798C306.182 436.284 307.264 432.95 310.124 430.91L311.75 429.75L338.75 429.474C362.888 429.227 366.042 429.103 368.5 428.301C376.675 425.634 383.098 420.281 386.503 413.295C387.587 411.07 391.739 399.169 395.728 386.848C399.718 374.527 403.305 363.984 403.701 363.419C404.097 362.854 413.382 355.887 424.335 347.936C436.522 339.089 445.28 332.373 446.903 330.628C449.788 327.527 452.604 322.34 453.758 318C454.674 314.553 454.703 307.046 453.814 303.75C453.442 302.375 449.935 291.388 446.019 279.334C442.104 267.279 438.9 256.68 438.9 255.78C438.9 254.879 439.732 251.479 440.748 248.224C442.175 243.652 442.96 241.94 444.196 240.704C445.89 239.01 449 237.857 450.72 238.285C451.661 238.519 452.014 237.721 454.78 229.101L457.81 219.661L456.235 218.628C454.367 217.404 452.993 214.754 453.018 212.425C453.028 211.504 453.362 209.4 453.76 207.75C454.708 203.827 454.696 196.963 453.736 193.276C452.685 189.243 449.771 183.877 446.96 180.802C445.627 179.343 436.051 172.003 424.805 163.818C413.91 155.89 404.548 148.833 404 148.136C403.452 147.439 400.179 138.18 396.728 127.56C393.276 116.94 389.734 106.113 388.857 103.5C385.234 92.7086 377.913 85.5991 367.745 82.9986C364.096 82.0656 362.192 82.0001 338.654 82.0001C318.555 82.0001 313.143 81.8631 311.859 81.3206C310.974 80.9471 302.952 75.3221 294.032 68.8206C285.112 62.3196 277.574 57.0166 277.282 57.0366C276.989 57.0566 275.625 57.4741 274.25 57.9641ZM331.771 130.06C326.083 132.648 319.729 134.726 314.135 135.829C307.306 137.175 294.686 136.967 282.5 135.308C264.508 132.858 258.744 132.379 250.5 132.647C233.04 133.216 221.518 137.952 210.187 149.216C200.098 159.246 194.02 171.575 192.433 185.229L191.838 190.345L186.544 189.414C178.318 187.967 169.551 185.68 159.984 182.485C152.339 179.931 150.97 179.612 149.273 179.995C144.025 181.179 141.514 186.627 143.985 191.47C145.314 194.075 146.943 194.956 156 197.971C168.27 202.056 180.294 204.911 190.159 206.083L195.407 206.706L197.078 210.225C202.931 222.542 213.414 233.612 224.953 239.656C234.531 244.674 244.428 246.823 255.714 246.337C270.504 245.701 275.75 243.138 275.75 236.55C275.75 232.906 274.114 230.508 270.751 229.224C268.586 228.397 268.303 228.401 264.368 229.304C258.354 230.685 247.68 230.605 242.25 229.138C233.916 226.886 226.495 222.493 220.674 216.365C217.386 212.903 213.689 208.1 214.077 207.793C214.172 207.717 217.731 207.383 221.985 207.049C235.432 205.994 248.531 203.127 261.25 198.453C272.954 194.153 292.477 183.481 295.371 179.801C297.572 177.002 297.214 172.214 294.607 169.607C293.633 168.633 293.69 168.625 303.188 168.355C310.094 168.159 314.063 167.799 317.477 167.06C320.076 166.497 322.295 166.129 322.408 166.241C322.783 166.616 318.411 177.666 315.481 183.75C310.658 193.765 304.812 202.417 297.805 209.909C293.411 214.608 292.48 216.791 293.466 220.084C294.653 224.044 298.734 226.537 302.785 225.777C305.178 225.328 309.626 221.169 315.202 214.168C328.982 196.865 339.182 172.442 344.287 144.526C345.753 136.505 345.694 133.879 343.991 131.488C342.757 129.754 339.511 128.022 337.5 128.023C336.813 128.023 334.235 128.94 331.771 130.06ZM246.5 164.497C233.983 165.688 224.919 169.776 216.112 178.203C211.078 183.021 208 187.423 208 189.807V191.5L212.625 191.495C215.169 191.492 220.319 191.164 224.069 190.766C244.151 188.634 262.147 182.445 279.5 171.701C286.05 167.646 285.993 167.702 283.958 167.333C283.019 167.162 277.863 166.473 272.5 165.801C261.055 164.368 252.412 163.934 246.5 164.497ZM328.367 280.517C323.539 281.724 319.695 284.904 317.56 289.457C316.499 291.721 316.256 292.961 316.278 296C316.325 302.268 319.354 307.127 324.92 309.86C327.299 311.029 328.388 311.25 331.75 311.25C335.112 311.25 336.202 311.029 338.581 309.86C344.146 307.127 347.176 302.268 347.222 296C347.255 291.527 345.765 287.798 342.734 284.767C339.206 281.239 332.918 279.379 328.367 280.517ZM132.966 286.167C113.616 296.133 113.898 295.963 112.593 298.5C109.829 303.875 113.674 310 119.813 310C121.144 310 123.811 308.884 129.372 306C133.615 303.8 137.179 302 137.293 302C137.407 302 137.5 316.015 137.5 333.144V364.288L138.625 366.515C140.091 369.416 142.475 371 145.374 371C148.19 371 150.505 369.909 152.045 367.856L153.25 366.25L153.384 326.212L153.518 286.174L152.384 284.508C150.747 282.103 148.924 280.925 146.398 280.64C144.34 280.409 143.378 280.804 132.966 286.167ZM190 281.277C181.871 283.021 173.499 289.552 169.827 297.011C166.77 303.223 166.519 305.424 166.509 326.045C166.501 342.634 166.592 344.7 167.486 348.196C170.971 361.821 182.654 371 196.51 371C204.428 371 211.009 368.376 216.751 362.93C220.783 359.105 223.558 354.746 225.141 349.75C226.212 346.371 226.25 345.54 226.248 325.75L226.245 305.25L224.884 301.25C219.879 286.543 205.044 278.049 190 281.277ZM262.108 281.51C252.177 284.112 244.548 291.035 240.869 300.784C239.786 303.655 239.745 304.418 239.6 324.581C239.47 342.574 239.561 345.843 240.268 348.581C242.406 356.868 248.471 364.286 256.077 367.918C260.967 370.252 264.163 371 269.25 371C274.344 371 277.535 370.252 282.45 367.905C290.15 364.228 296.051 356.891 298.243 348.27C299.375 343.814 299.35 307.758 298.212 303.322C294.101 287.311 277.725 277.418 262.108 281.51ZM378.983 284.41C378.562 284.597 377.755 285.088 377.191 285.5C375.213 286.946 320.81 355.731 320.161 357.607C318.302 362.974 323.122 368.62 328.832 367.764C330.515 367.512 331.634 366.932 333.037 365.585C336.023 362.72 388.556 296.46 389.366 294.537C390.816 291.095 389.015 286.568 385.466 284.732C384.017 283.983 380.358 283.801 378.983 284.41ZM191.808 297.29C190.128 297.826 188.54 298.895 186.724 300.711C182.599 304.836 182.5 305.429 182.5 326.072C182.5 342.211 182.572 343.654 183.495 346.123C187.065 355.663 199.851 358.091 206.674 350.523C210.27 346.534 210.233 346.77 210.405 327.104C210.577 307.411 210.396 305.916 207.353 301.908C203.987 297.475 197.377 295.511 191.808 297.29ZM264.227 297.523C261.382 298.618 258.026 301.676 256.663 304.416C255.835 306.079 255.737 308.037 255.608 325.39C255.476 343.203 255.531 344.675 256.404 346.64C257.696 349.547 259.682 351.771 262.428 353.385C264.467 354.583 265.271 354.75 269.011 354.75C272.599 354.75 273.664 354.548 275.761 353.471C278.559 352.034 281.552 348.467 282.435 345.519C282.811 344.267 282.999 337.53 282.995 325.442C282.991 307.423 282.979 307.227 281.821 304.75C278.694 298.064 271.017 294.911 264.227 297.523ZM372.25 339.7C365.622 341.796 361.551 346.936 361.122 353.75C360.708 360.328 363.823 365.62 369.858 368.59C376.362 371.793 383.28 370.423 388.191 364.96C394.235 358.238 393.138 347.354 385.892 342.158C381.782 339.21 376.696 338.294 372.25 339.7Z" fill="#EDE9C1"/>
</svg>
