<svg width="512" height="512" viewBox="0 0 512 512" fill="none" xmlns="http://www.w3.org/2000/svg">
<path fill-rule="evenodd" clip-rule="evenodd" d="M123.25 32.9305C122.425 33.44 121.379 34.283 120.925 34.8035C120.471 35.324 105.734 63.425 88.175 97.25L56.25 158.75L56.122 306.75C55.9955 452.775 56.007 454.802 56.9825 458.664C57.5265 460.818 58.6935 463.855 59.5755 465.414C61.842 469.422 67.1685 474.531 71.0545 476.426C77.915 479.77 62.1935 479.52 257.025 479.379L433.75 479.25L437.188 477.874C444.112 475.102 449.592 470.059 452.584 463.706C455.257 458.031 455.483 455.68 455.48 433.5C455.478 414.823 455.406 413.091 454.547 411.201C452.317 406.291 446.293 405.017 442.22 408.593C441.253 409.442 440.189 410.613 439.856 411.194C439.418 411.957 439.18 418.302 439 434.083L438.75 455.916L437.231 458.076C435.453 460.604 433.123 462.293 430.403 463.026C429.06 463.388 374.735 463.503 254.854 463.4L81.25 463.25L78.8745 462.08C76.0875 460.707 73.871 458.21 73.0705 455.539C72.649 454.131 72.5 416.568 72.5 311.567V169.5H160.842C249.171 169.5 249.184 169.5 251.323 168.464C255.499 166.443 256.993 161.284 254.548 157.327C252.137 153.427 260.475 153.78 163.947 153.5L77.645 153.25L83.64 141.704L89.6345 130.16L106.899 129.829C116.394 129.648 128.165 129.5 133.057 129.5C137.948 129.5 143.143 129.255 144.6 128.954C151.813 127.469 159.626 121.503 162.874 115C163.766 113.213 165.776 107.812 167.34 103C169.956 94.949 170.185 93.8705 170.216 89.5C170.246 85.274 170.096 84.4365 168.853 81.905C167.067 78.268 162.889 74.4045 159.284 73.0555C156.826 72.136 154.855 72.0035 138.343 71.6455L120.114 71.25L126.163 59.637L132.212 48.024L160.069 47.887C187.316 47.753 187.957 47.7275 189.308 46.719C191.354 45.191 192.509 43.4305 193.052 41.0135C193.468 39.1655 193.373 38.528 192.393 36.554C191.764 35.2875 190.485 33.745 189.551 33.1255L187.852 32L156.301 32.002C126.458 32.0035 124.669 32.054 123.25 32.9305ZM210.495 33.125C207.673 35.0455 206.741 36.734 206.815 39.796C206.896 43.1695 208.402 45.601 211.283 47.0075C213.286 47.9855 214.538 48 296.371 48H379.426L385.463 59.699C388.783 66.133 391.5 71.523 391.5 71.6765C391.5 71.83 382.894 72.022 372.375 72.1025L353.25 72.25L350.608 73.642C343.771 77.2445 339.78 84.901 340.989 92.0985C341.753 96.6515 347.361 113.086 349.231 116.25C351.512 120.11 356.314 124.6 360.221 126.523C365.725 129.233 367.551 129.488 381.508 129.494C392.971 129.5 394.442 129.406 396.008 128.574C401.502 125.654 401.642 117.644 396.25 114.633C394.344 113.569 393.71 113.516 382.808 113.508C369.528 113.499 368.272 113.253 364.926 110.009C362.705 107.856 362.462 107.332 359.761 98.8735C358.202 93.9915 357.003 89.604 357.095 89.1235C357.252 88.311 358.749 88.241 378.592 88.1195L399.92 87.9895L406.038 99.8695C409.403 106.404 414.562 116.25 417.503 121.75C420.443 127.25 425.373 136.644 428.457 142.625L434.065 153.5H360.69C288.514 153.5 287.282 153.516 285.283 154.492C279.371 157.379 279.371 165.621 285.283 168.508C287.283 169.484 288.52 169.5 363.153 169.5H438.99L439.12 273.875C439.248 377.232 439.26 378.267 440.25 379.948C441.563 382.177 443.346 383.459 445.946 384.043C448.714 384.665 451.788 383.367 453.804 380.724L455.25 378.828V269.039V159.25L453.948 156.75C453.232 155.375 439.084 128.037 422.508 96C405.932 63.9625 391.828 36.8975 391.165 35.8555C390.502 34.8135 389.237 33.5205 388.355 32.9825C386.778 32.021 385.232 32.0035 299.449 32.002L212.148 32L210.495 33.125ZM108.278 94.25C106.475 97.6875 103.537 103.289 101.75 106.698C99.9625 110.106 98.5 113.031 98.5 113.198C98.5 113.364 107.867 113.5 119.317 113.5C134.263 113.5 140.714 113.327 142.192 112.889C143.432 112.521 145.147 111.378 146.507 110.014C148.626 107.888 148.941 107.194 151.681 98.6145C153.286 93.59 154.471 89.1465 154.315 88.7395C154.071 88.103 151.078 88 132.793 88H111.556L108.278 94.25ZM252.769 220.556C241.232 222.237 230.295 229.783 226.087 238.967C224.948 241.454 224.893 241.879 225.449 243.967C226.94 249.568 232.977 251.923 237.777 248.778C238.413 248.361 239.769 246.76 240.792 245.219C245.078 238.762 253.418 235.111 260.802 236.462C264.982 237.226 269.474 239.582 272.067 242.37C273.47 243.881 279.635 254.031 288.941 270.156C297.005 284.13 303.511 295.656 303.399 295.768C303.286 295.88 297.581 293.732 290.722 290.992C283.862 288.253 277.51 286.009 276.605 286.006C274.587 285.999 271.343 287.592 270.27 289.118C268.054 292.272 268.343 296.924 270.915 299.488C271.853 300.423 279.432 303.684 296.435 310.466C319.397 319.625 320.758 320.103 323.326 319.889C325.554 319.704 326.336 319.37 327.756 317.993C328.705 317.074 329.699 315.631 329.965 314.786C330.985 311.549 337.62 263.546 337.29 261.789C336.383 256.954 330.714 254.165 326.172 256.32C322.523 258.052 322.179 259.024 319.985 273.81C318.889 281.202 317.932 287.433 317.86 287.657C317.788 287.881 311.336 276.969 303.524 263.407C295.711 249.846 288.486 237.512 287.468 236C281.96 227.818 272.391 221.942 262.285 220.536C257.963 219.936 257.017 219.938 252.769 220.556ZM183.25 286.752C170.6 291.816 159.513 296.344 158.613 296.815C153.456 299.511 153.552 307.406 158.778 310.366C162.07 312.231 163.63 311.902 177 306.524C183.737 303.813 189.312 301.655 189.388 301.728C189.464 301.801 183.758 311.846 176.709 324.052C162.072 349.393 161.51 350.448 159.933 355.517C158.46 360.251 158.328 368.961 159.651 374C163.636 389.171 176.548 399.971 192.324 401.331C195.386 401.594 196.226 401.48 198.18 400.534C201.096 399.122 202.695 396.637 202.684 393.535C202.666 388.656 199.975 386.111 194.142 385.457C189.111 384.893 186.007 383.805 183.02 381.561C173.942 374.74 172.104 364.065 178.188 353.5C194.883 324.505 203.651 309.484 203.795 309.629C203.893 309.726 204.852 315.802 205.927 323.13C207.289 332.419 208.164 336.938 208.816 338.05C210.245 340.491 212.13 341.638 215.104 341.876C217.281 342.051 218.058 341.879 219.488 340.908C221.889 339.276 223.5 336.723 223.499 334.551C223.498 332.924 216.912 286.681 216.209 283.363C215.842 281.63 213.828 279.195 211.965 278.232C208.904 276.649 207.303 277.124 183.25 286.752ZM342 343.561C340.387 344.205 338.591 345.893 337.702 347.6C336.576 349.765 336.86 352.557 338.586 356.306C340.703 360.901 341.108 367.224 339.566 371.616C337.091 378.666 331.423 383.605 324.237 384.974C322.154 385.371 312.21 385.5 291.39 385.397L261.529 385.25L272.343 376.75C281.517 369.538 283.304 367.917 284.134 366.052C285.836 362.225 284.707 358.645 281.005 356.125C278.92 354.706 275.381 354.619 273.226 355.933C271.405 357.043 235.544 385.217 232.926 387.594C229.456 390.745 229.33 395.888 232.646 399.037C236.932 403.107 273.621 431.447 274.995 431.749C282.078 433.305 287.603 425.32 283.482 419.485C282.991 418.789 277.883 414.514 272.132 409.985L261.675 401.75L294.212 401.47C322.967 401.223 327.082 401.091 329.612 400.333C340.075 397.199 348.202 390.512 352.675 381.354C355.381 375.814 356.503 371.051 356.491 365.151C356.479 359.155 355.417 354.547 352.883 349.5C351.017 345.782 350.471 345.109 348.519 344.125C346.149 342.93 344.041 342.748 342 343.561Z" fill="#255640"/>
<path fill-rule="evenodd" clip-rule="evenodd" d="M193 41.162C193 42.624 191.232 45.3005 189.339 46.704C187.985 47.7085 187.271 47.7555 171.328 47.894L154.728 48.0375L148.672 59.644C145.342 66.027 142.717 71.419 142.838 71.625C142.96 71.831 146.075 72 149.761 72C155.315 72 156.937 72.1775 159.23 73.0355C162.891 74.4055 167.055 78.2425 168.853 81.905C170.096 84.4365 170.247 85.274 170.217 89.5C170.186 93.8705 169.956 94.949 167.34 103C165.777 107.813 163.767 113.212 162.874 114.999C160.033 120.685 153.943 125.873 147.25 128.312C145.092 129.098 142.536 129.258 128.57 129.486L112.39 129.75L106.26 141.5L100.13 153.25L175.19 153.5C259.125 153.78 252.147 153.443 254.548 157.328C256.993 161.284 255.5 166.443 251.324 168.465C249.189 169.498 249.037 169.5 172.589 169.5H95.993L96.1215 313.125L96.25 456.75L97.8485 460.125L99.4475 463.5L264.099 463.497C372.857 463.496 429.364 463.324 430.559 462.992C433.161 462.27 435.489 460.554 437.232 458.076L438.75 455.916L439 434.083C439.181 418.302 439.418 411.957 439.856 411.194C440.919 409.341 443.921 407.06 445.749 406.718L447.519 406.385L447.385 395.338L447.25 384.291L445.562 383.946C443.391 383.502 441.51 382.086 440.25 379.948C439.26 378.267 439.249 377.232 439.121 273.875L438.991 169.5H363.153C288.521 169.5 287.284 169.484 285.283 168.508C279.649 165.757 279.335 157.939 284.727 154.673C286.184 153.79 289.449 153.739 360.1 153.5L433.949 153.25L425.782 137.5L417.614 121.75H408.953H400.291L399.946 123.439C399.493 125.653 398.124 127.431 395.992 128.575C394.44 129.407 392.977 129.5 381.508 129.494C367.551 129.488 365.726 129.233 360.222 126.523C356.314 124.6 351.512 120.111 349.231 116.25C347.362 113.086 341.753 96.6516 340.989 92.0985C339.781 84.901 343.771 77.2445 350.608 73.642L353.25 72.25L372.375 72.1025C382.894 72.022 391.5 71.83 391.5 71.6765C391.5 71.523 388.784 66.133 385.463 59.699L379.426 48H296.371C214.122 48 213.296 47.99 211.283 46.9925C208.957 45.8405 207.485 44.045 207.027 41.8025L206.711 40.25L199.855 40.111L193 39.972V41.162ZM252.77 220.556C241.232 222.237 230.295 229.784 226.087 238.968C224.948 241.454 224.894 241.879 225.45 243.968C226.94 249.568 232.977 251.924 237.778 248.778C238.413 248.362 239.77 246.761 240.792 245.22C245.079 238.762 253.419 235.112 260.803 236.462C264.983 237.226 269.475 239.582 272.067 242.371C273.471 243.881 279.635 254.032 288.941 270.157C297.006 284.13 303.512 295.656 303.399 295.768C303.286 295.881 297.582 293.732 290.722 290.992C283.863 288.253 277.51 286.009 276.605 286.006C274.587 285.999 271.343 287.593 270.271 289.119C268.054 292.272 268.343 296.924 270.916 299.489C271.854 300.424 279.433 303.684 296.436 310.467C319.397 319.626 320.758 320.103 323.327 319.89C325.555 319.705 326.337 319.37 327.757 317.994C328.705 317.075 329.699 315.631 329.965 314.786C330.985 311.55 337.62 263.546 337.291 261.789C336.383 256.954 330.714 254.165 326.173 256.321C322.524 258.052 322.18 259.025 319.986 273.811C318.889 281.203 317.933 287.433 317.86 287.657C317.788 287.881 311.337 276.969 303.524 263.407C295.712 249.846 288.487 237.513 287.469 236C281.961 227.818 272.391 221.942 262.286 220.537C257.964 219.936 257.017 219.938 252.77 220.556ZM183.25 286.752C170.6 291.816 159.514 296.344 158.613 296.815C153.457 299.511 153.553 307.407 158.778 310.367C162.071 312.232 163.63 311.903 177 306.524C183.738 303.814 189.312 301.656 189.388 301.728C189.464 301.801 183.759 311.846 176.709 324.052C162.073 349.393 161.51 350.448 159.933 355.518C158.461 360.252 158.328 368.961 159.652 374C163.637 389.171 176.549 399.972 192.325 401.331C195.386 401.594 196.227 401.48 198.181 400.534C201.096 399.122 202.695 396.637 202.684 393.536C202.667 388.657 199.976 386.111 194.143 385.457C189.112 384.893 186.007 383.806 183.021 381.562C173.943 374.741 172.104 364.066 178.188 353.5C194.884 324.505 203.651 309.485 203.796 309.629C203.893 309.726 204.852 315.802 205.927 323.13C207.29 332.419 208.165 336.938 208.816 338.05C210.245 340.491 212.13 341.638 215.105 341.877C217.281 342.052 218.058 341.88 219.488 340.908C221.89 339.276 223.5 336.723 223.499 334.551C223.499 332.924 216.913 286.681 216.21 283.363C215.842 281.63 213.828 279.196 211.966 278.232C208.904 276.649 207.304 277.124 183.25 286.752ZM342.001 343.562C340.387 344.205 338.591 345.893 337.703 347.6C336.577 349.765 336.86 352.558 338.587 356.306C340.704 360.901 341.108 367.224 339.566 371.617C337.092 378.666 331.423 383.606 324.238 384.975C322.155 385.372 312.211 385.5 291.39 385.397L261.53 385.25L272.343 376.75C281.518 369.538 283.304 367.917 284.134 366.052C285.836 362.225 284.708 358.645 281.005 356.125C278.921 354.706 275.381 354.619 273.226 355.933C271.406 357.043 235.544 385.218 232.926 387.594C229.456 390.745 229.331 395.888 232.646 399.037C236.933 403.108 273.621 431.447 274.995 431.749C282.078 433.305 287.604 425.32 283.482 419.485C282.991 418.79 277.883 414.515 272.132 409.985L261.675 401.75L294.213 401.47C322.968 401.223 327.083 401.091 329.612 400.333C340.076 397.199 348.203 390.512 352.676 381.354C355.382 375.814 356.503 371.051 356.492 365.152C356.48 359.155 355.418 354.548 352.884 349.5C351.017 345.782 350.471 345.109 348.519 344.125C346.149 342.93 344.042 342.748 342.001 343.562Z" fill="#EDE9C1"/>
</svg>
