<svg xmlns="http://www.w3.org/2000/svg" width="1024" height="1024" viewBox="0 0 1024 1024" version="1.1"><path d="M 764.500 204.683 C 694.701 210.739, 634.568 232.041, 587.670 267.325 C 575.889 276.188, 555.502 295.389, 547.268 305.375 L 543.248 310.251 539.335 304.875 C 537.183 301.919, 532.556 295, 529.052 289.500 C 525.548 284, 522.579 279.363, 522.453 279.196 C 522.328 279.029, 520.712 279.815, 518.863 280.942 C 511.931 285.168, 503.583 282.923, 497.353 275.157 C 488.401 263.998, 477.696 252.936, 467.018 243.812 C 460.703 238.415, 455.236 234, 454.871 234 C 454.505 234, 457.379 239.512, 461.258 246.250 C 482.843 283.747, 504.181 333.887, 518.104 379.824 C 520.883 388.996, 523.328 397.049, 523.536 397.720 C 523.957 399.077, 523.448 398.961, 541.500 401.830 C 611.603 412.972, 679.852 462.824, 726.112 536.679 C 752.541 578.873, 767.382 621.451, 767.355 655 C 767.344 669.914, 765.846 676.211, 759.777 686.866 C 741.611 718.759, 697.866 734.853, 635.500 732.589 C 625.600 732.230, 612.100 731.284, 605.500 730.489 C 598.900 729.693, 593.261 729.032, 592.969 729.021 C 592.677 729.009, 593.212 734.288, 594.157 740.750 C 595.102 747.212, 596.196 758.237, 596.587 765.250 C 597.272 777.509, 597.384 778, 599.502 778 C 602.535 778, 607.973 781.849, 610.838 786.024 C 613.136 789.372, 613.201 789.959, 612.606 802 C 611.032 833.832, 602.810 867.757, 588.530 901.341 C 587.346 904.127, 587.255 904.966, 588.199 904.395 C 604.638 894.465, 662.512 856.263, 671.674 849.293 C 674.781 846.929, 674.818 846.808, 673.424 843.472 C 671.575 839.046, 671.627 835.974, 673.635 830.954 C 675.037 827.450, 678 824.828, 694.385 812.588 C 756.215 766.400, 806.315 720.734, 841.490 678.500 C 859.557 656.807, 871.002 640.303, 886.345 613.816 C 921.664 552.843, 942.508 496.263, 951.115 438 C 954.047 418.151, 954.733 383.810, 952.572 365 C 946.694 313.819, 927.937 273.974, 895.012 242.722 C 883.482 231.779, 872.873 223.990, 857.667 215.303 C 844.183 207.599, 840.225 206.405, 823.696 205.050 C 811.976 204.089, 774.055 203.854, 764.500 204.683 M 205.486 242.474 C 169.668 266.400, 143.097 301.937, 129.051 344.704 C 120.120 371.893, 116.738 394.107, 116.672 426 C 116.624 448.850, 117.425 458.923, 119.330 459.444 C 119.973 459.620, 128.092 460.964, 137.370 462.430 C 178.610 468.944, 229.719 484.931, 272.279 504.629 C 285.786 510.881, 307.618 522.630, 314.818 527.522 C 316.781 528.856, 318.465 529.846, 318.561 529.724 C 318.656 529.601, 320.878 524.100, 323.496 517.500 C 333.290 492.818, 344.415 473.376, 355.936 460.809 L 362.070 454.117 346.785 438.805 C 297.225 389.158, 253.947 325.276, 221.422 253.762 C 217.443 245.013, 214.026 237.693, 213.830 237.497 C 213.633 237.300, 209.879 239.540, 205.486 242.474 M 367.500 415 C 371.320 418.850, 374.671 422, 374.946 422 C 375.221 422, 372.320 418.850, 368.500 415 C 364.680 411.150, 361.329 408, 361.054 408 C 360.779 408, 363.680 411.150, 367.500 415" stroke="none" fill="#fa7575" fill-rule="evenodd"/><path d="M 208.453 39.077 C 208.182 39.515, 207.182 39.862, 206.230 39.848 C 202.882 39.801, 198.641 41.119, 195.930 43.050 C 194.424 44.122, 192.724 45, 192.152 45 C 191.581 45, 190.525 45.817, 189.807 46.816 C 189.088 47.815, 187.706 48.928, 186.735 49.290 C 185.764 49.652, 184.528 50.973, 183.987 52.224 C 183.447 53.476, 182.569 55.175, 182.036 56 C 179.865 59.363, 176.893 67.279, 177.352 68.476 C 177.623 69.180, 177.367 70.233, 176.785 70.815 C 175.519 72.081, 175.250 95.328, 176.384 105.500 C 176.813 109.350, 177.253 113.625, 177.362 115 C 177.471 116.375, 177.914 118.067, 178.345 118.759 C 178.776 119.451, 178.857 120.876, 178.524 121.925 C 178.191 122.974, 178.327 124.084, 178.825 124.392 C 179.324 124.700, 179.515 126.088, 179.249 127.476 C 178.984 128.864, 179.227 130, 179.790 130 C 180.352 130, 180.595 130.832, 180.329 131.848 C 180.064 132.865, 180.553 135.387, 181.416 137.454 C 182.280 139.521, 182.750 141.595, 182.462 142.062 C 182.173 142.530, 182.616 144.537, 183.446 146.524 C 184.276 148.510, 184.899 150.443, 184.830 150.818 C 184.557 152.320, 186.299 160, 186.914 160 C 187.275 160, 187.650 160.787, 187.745 161.750 C 187.840 162.713, 188.213 164.963, 188.573 166.750 C 188.933 168.538, 188.838 170.034, 188.363 170.077 C 186.094 170.278, 183.973 170.913, 180.877 172.321 C 172.167 176.279, 168.040 178, 167.255 178 C 166.785 178, 165.837 178.563, 165.150 179.250 C 164.463 179.938, 163.585 180.522, 163.200 180.549 C 161.169 180.692, 158 182.262, 158 183.126 C 158 183.672, 157.550 183.840, 157 183.500 C 156.450 183.160, 155.996 183.246, 155.992 183.691 C 155.983 184.650, 151.188 187, 149.242 187 C 148.494 187, 148.130 187.402, 148.434 187.893 C 148.738 188.385, 147.752 189.093, 146.243 189.467 C 144.734 189.842, 142.478 191.102, 141.228 192.269 C 139.979 193.435, 138.187 194.502, 137.247 194.640 C 136.306 194.778, 135.378 195.366, 135.185 195.946 C 134.992 196.525, 134.244 197, 133.524 197 C 132.803 197, 131.944 197.704, 131.614 198.563 C 131.284 199.423, 130.576 199.856, 130.040 199.525 C 129.504 199.193, 128.492 199.840, 127.792 200.961 C 127.092 202.083, 125.975 203, 125.309 203 C 124.644 203, 123.740 203.563, 123.300 204.252 C 122.860 204.940, 121.173 206.178, 119.551 207.002 C 116.889 208.355, 93 231.085, 93 232.265 C 93 232.536, 90.740 235.127, 87.978 238.023 C 85.216 240.919, 83.164 243.497, 83.419 243.752 C 83.673 244.007, 82.783 245.399, 81.441 246.847 C 80.098 248.295, 79 250.047, 79 250.740 C 79 251.433, 78.614 252, 78.142 252 C 77.022 252, 70.502 261.832, 69.504 265.026 C 69.078 266.387, 68.432 267.725, 68.067 268 C 66.755 268.990, 62 277.889, 62 279.357 C 62 280.182, 61.296 281.561, 60.436 282.421 C 59.576 283.281, 59.153 284.438, 59.495 284.992 C 59.838 285.547, 59.566 286, 58.892 286 C 58.218 286, 57.963 286.296, 58.325 286.658 C 58.687 287.020, 58.455 287.952, 57.809 288.730 C 56.016 290.891, 52.055 301.039, 51.362 305.250 C 51.022 307.313, 50.277 309, 49.706 309 C 49.134 309, 48.949 309.282, 49.294 309.627 C 49.639 309.972, 49.267 311.820, 48.467 313.733 C 47.667 315.647, 47.238 317.576, 47.513 318.021 C 47.788 318.465, 47.597 318.980, 47.090 319.165 C 46.106 319.522, 42.768 333.816, 42.691 338 C 42.666 339.375, 42.325 340.725, 41.934 341 C 41.285 341.457, 40.271 348.102, 39.493 357 C 39.325 358.925, 38.830 363.200, 38.394 366.500 C 37.433 373.768, 37.331 411.202, 38.240 423 C 39.436 438.516, 40.234 445.494, 40.871 446 C 41.217 446.275, 41.570 447.625, 41.655 449 C 41.741 450.375, 42.096 453.300, 42.445 455.500 C 42.794 457.700, 43.271 461.188, 43.505 463.252 C 43.740 465.315, 44.378 467.837, 44.923 468.857 C 45.469 469.877, 46.135 473.138, 46.403 476.105 C 46.842 480.965, 47.609 485.500, 47.992 485.500 C 48.158 485.500, 49.074 490.863, 49.230 492.750 C 49.287 493.438, 49.652 494, 50.042 494 C 50.431 494, 50.816 495.125, 50.896 496.500 C 51.167 501.142, 51.331 502, 51.952 502 C 52.293 502, 52.631 502.788, 52.703 503.750 C 52.837 505.529, 53.727 509.500, 53.992 509.500 C 54.072 509.500, 54.305 510.771, 54.509 512.325 C 54.713 513.879, 55.350 515.717, 55.925 516.409 C 56.500 517.102, 57.185 519.351, 57.449 521.408 C 57.712 523.465, 58.619 526.534, 59.464 528.228 C 60.309 529.921, 61.003 532.026, 61.006 532.904 C 61.010 533.782, 61.685 535.789, 62.506 537.364 C 63.328 538.940, 64 540.852, 64 541.614 C 64 542.376, 64.436 543, 64.969 543 C 65.501 543, 65.678 543.675, 65.362 544.500 C 65.045 545.325, 65.284 546, 65.893 546 C 66.502 546, 67 547.098, 67 548.441 C 67 549.784, 67.450 551.160, 68 551.500 C 68.550 551.840, 69 552.936, 69 553.937 C 69 554.937, 69.675 556.315, 70.500 557 C 71.325 557.685, 72 559.315, 72 560.622 C 72 561.930, 72.477 563, 73.059 563 C 73.641 563, 73.840 563.450, 73.500 564 C 73.160 564.550, 73.359 565, 73.941 565 C 74.523 565, 74.887 565.347, 74.750 565.770 C 74.612 566.194, 75.252 568.332, 76.172 570.520 C 77.092 572.709, 78.439 575.962, 79.166 577.750 C 79.893 579.538, 80.828 581, 81.244 581 C 81.660 581, 82 581.868, 82 582.929 C 82 583.989, 82.607 585.464, 83.349 586.206 C 84.091 586.948, 85.251 589.230, 85.927 591.278 C 86.602 593.325, 87.597 595, 88.137 595 C 88.676 595, 88.873 595.397, 88.573 595.882 C 88.273 596.368, 88.906 597.883, 89.981 599.249 C 91.055 600.615, 91.649 602.017, 91.301 602.366 C 90.952 602.715, 91.119 603, 91.673 603 C 92.527 603, 95.149 607.457, 95.202 609 C 95.212 609.275, 96.070 610.694, 97.110 612.154 C 98.149 613.614, 99 615.232, 99 615.749 C 99 616.267, 99.882 617.488, 100.960 618.464 C 102.038 619.440, 102.885 620.522, 102.842 620.869 C 102.621 622.636, 103.255 623.834, 106 626.839 C 107.650 628.645, 109 630.915, 109 631.882 C 109 632.849, 110.343 635.144, 111.984 636.982 C 113.625 638.821, 115.231 641.152, 115.552 642.162 C 115.872 643.173, 116.581 644, 117.126 644 C 117.672 644, 117.838 644.453, 117.496 645.007 C 117.153 645.561, 117.574 646.283, 118.431 646.612 C 119.288 646.941, 119.738 647.616, 119.431 648.112 C 119.124 648.608, 119.574 649.283, 120.431 649.612 C 121.288 649.941, 121.777 650.552, 121.518 650.971 C 121.259 651.390, 121.937 652.538, 123.024 653.521 C 124.111 654.505, 125 655.830, 125 656.465 C 125 657.100, 126.403 659.056, 128.119 660.810 C 129.834 662.565, 130.927 664, 130.547 664 C 130.168 664, 130.452 664.664, 131.179 665.475 C 131.905 666.286, 133.400 668.122, 134.500 669.555 C 135.600 670.988, 136.956 672.687, 137.513 673.330 C 138.070 673.974, 139.384 675.838, 140.433 677.474 C 141.482 679.110, 142.709 680.910, 143.160 681.474 C 151.125 691.442, 154.852 695.898, 156.771 697.750 C 158.054 698.988, 158.870 700, 158.585 700 C 158.300 700, 159.627 701.560, 161.533 703.467 C 163.440 705.373, 165 707.331, 165 707.817 C 165 708.303, 166.354 709.739, 168.010 711.007 C 169.665 712.276, 170.794 713.540, 170.518 713.815 C 170.242 714.091, 171.954 716.158, 174.321 718.408 C 176.688 720.659, 178.924 723.298, 179.290 724.274 C 179.656 725.250, 180.978 726.459, 182.228 726.961 C 183.478 727.463, 184.084 727.902, 183.575 727.937 C 183.066 727.971, 186.080 731.375, 190.272 735.500 C 194.465 739.625, 197.676 743, 197.408 743 C 197.140 743, 197.501 743.628, 198.211 744.395 C 198.920 745.162, 199.837 745.586, 200.250 745.336 C 200.662 745.086, 201 745.411, 201 746.057 C 201 746.704, 202.913 749.015, 205.250 751.193 C 207.588 753.371, 214.049 759.506, 219.608 764.826 C 234.444 779.025, 245.228 788.534, 246.171 788.250 C 246.627 788.112, 247 788.585, 247 789.299 C 247 790.013, 248.754 791.701, 250.897 793.049 C 253.041 794.397, 254.589 795.837, 254.338 796.250 C 254.087 796.662, 254.380 797, 254.989 797 C 255.597 797, 257.199 798.191, 258.548 799.646 C 259.896 801.101, 261 802.036, 261 801.723 C 261 801.410, 262.287 802.357, 263.859 803.827 C 269.635 809.226, 271.909 811.106, 272.523 810.989 C 272.869 810.923, 273.958 811.798, 274.943 812.934 C 275.928 814.070, 277.181 815, 277.727 815 C 278.273 815, 279.565 816.125, 280.597 817.500 C 281.630 818.875, 283.017 820, 283.681 820 C 284.344 820, 285.587 821, 286.443 822.223 C 287.299 823.445, 288 824.050, 288 823.567 C 288 823.084, 289.012 823.812, 290.250 825.185 C 293.722 829.037, 299.583 833.075, 300.498 832.245 C 300.951 831.835, 301.057 831.966, 300.734 832.535 C 300.412 833.104, 302.815 835.323, 306.074 837.466 C 309.333 839.609, 312 841.731, 312 842.181 C 312 842.632, 312.508 843, 313.129 843 C 313.750 843, 315.946 844.463, 318.009 846.250 C 322.439 850.088, 329.150 854.750, 330.341 854.819 C 330.804 854.845, 331.802 855.684, 332.559 856.683 C 333.317 857.683, 333.951 858.183, 333.968 857.795 C 333.986 857.408, 335.054 858.083, 336.342 859.295 C 339.720 862.475, 353.002 871.561, 353.692 871.165 C 354.014 870.980, 354.552 871.229, 354.888 871.717 C 355.877 873.153, 363 878.299, 363 877.578 C 363 877.216, 364.207 878.038, 365.682 879.406 C 367.157 880.774, 368.732 881.666, 369.182 881.387 C 369.632 881.109, 370 881.293, 370 881.796 C 370 882.961, 378.932 888.591, 380.198 888.225 C 380.721 888.074, 380.915 888.329, 380.629 888.792 C 380.343 889.254, 381.434 890.416, 383.054 891.373 C 384.674 892.330, 386.014 892.750, 386.032 892.307 C 386.049 891.863, 386.724 892.374, 387.532 893.441 C 388.339 894.509, 389 895.093, 389 894.739 C 389 894.385, 390.182 895.191, 391.626 896.529 C 393.070 897.867, 394.585 898.757, 394.992 898.505 C 395.399 898.253, 396.500 898.895, 397.439 899.932 C 398.377 900.969, 400.555 902.402, 402.279 903.116 C 404.004 903.830, 406.151 905.109, 407.050 905.957 C 409.062 907.854, 414.991 911.247, 416.925 911.608 C 417.709 911.755, 418.749 912.587, 419.237 913.458 C 419.724 914.329, 420.545 914.781, 421.061 914.462 C 421.578 914.143, 422 914.385, 422 915 C 422 915.615, 422.403 915.869, 422.895 915.565 C 423.388 915.260, 424.059 915.712, 424.388 916.569 C 424.717 917.426, 425.379 917.884, 425.859 917.587 C 426.340 917.290, 427.501 917.896, 428.440 918.934 C 429.379 919.971, 431.239 921.094, 432.574 921.429 C 433.908 921.764, 435 922.480, 435 923.019 C 435 923.559, 435.900 924, 437 924 C 438.100 924, 439 924.477, 439 925.059 C 439 925.641, 439.450 925.840, 440 925.500 C 440.550 925.160, 441 925.325, 441 925.868 C 441 926.958, 452.057 933.608, 453.250 933.235 C 453.663 933.106, 454 933.421, 454 933.935 C 454 934.450, 455.575 935.440, 457.500 936.136 C 459.425 936.832, 461 937.710, 461 938.087 C 461 938.914, 468.189 942.507, 469.250 942.210 C 469.663 942.094, 470 942.417, 470 942.927 C 470 943.436, 471.238 944.488, 472.750 945.263 C 474.262 946.039, 477.188 947.639, 479.250 948.820 C 481.313 950, 483.014 950.636, 483.030 950.233 C 483.047 949.830, 483.519 950.288, 484.080 951.250 C 484.641 952.213, 485.929 953, 486.943 953 C 487.957 953, 489.045 953.675, 489.362 954.500 C 489.678 955.325, 490.571 956, 491.346 956 C 492.121 956, 493.315 956.675, 494 957.500 C 494.685 958.325, 496.042 959, 497.015 959 C 497.989 959, 499.056 959.704, 499.386 960.563 C 499.716 961.423, 500.439 961.847, 500.993 961.504 C 501.547 961.162, 502 961.434, 502 962.108 C 502 962.782, 502.279 963.055, 502.619 962.714 C 502.960 962.374, 503.817 962.674, 504.525 963.382 C 505.232 964.090, 507.916 964.748, 510.488 964.845 C 515.545 965.037, 522.823 962.009, 528.217 957.471 C 529.832 956.112, 531.724 955, 532.422 955 C 533.119 955, 534.488 954.118, 535.464 953.040 C 536.440 951.962, 537.522 951.163, 537.869 951.266 C 539.023 951.607, 549 945.699, 549 944.674 C 549 944.120, 549.270 943.936, 549.599 944.266 C 550.238 944.905, 562.427 938.693, 565.081 936.376 C 565.951 935.617, 566.891 935.224, 567.171 935.504 C 567.450 935.784, 568.496 935.110, 569.494 934.006 C 570.493 932.903, 571.844 932, 572.498 932 C 573.151 932, 574.543 930.313, 575.593 928.250 C 576.642 926.188, 577.848 924.242, 578.273 923.927 C 578.699 923.611, 579.251 922.294, 579.500 921 C 579.749 919.706, 580.526 918.283, 581.227 917.839 C 581.927 917.394, 582.050 917.017, 581.500 917 C 580.884 916.981, 580.907 916.687, 581.560 916.235 C 583.130 915.146, 595.263 885.232, 599.470 872.078 C 606.844 849.023, 611.512 824.115, 612.606 802 C 613.201 789.959, 613.136 789.372, 610.838 786.024 C 609.526 784.112, 606.888 781.484, 604.976 780.185 C 598.290 775.640, 587.254 778.740, 583.368 786.255 C 582.393 788.140, 581.418 793.884, 580.877 800.926 C 578.224 835.463, 569.690 867.146, 554.253 899.767 L 550.341 908.035 535.421 916.339 C 527.214 920.906, 518.546 925.880, 516.157 927.393 C 513.768 928.905, 511.202 929.908, 510.454 929.621 C 508.367 928.820, 458.499 899.879, 440.500 889.023 C 368.405 845.539, 306.433 800.589, 258.692 757.153 C 251.648 750.744, 243.957 743.925, 241.602 742 C 239.246 740.075, 236.074 736.786, 234.552 734.691 C 233.030 732.596, 231.535 731.132, 231.229 731.437 C 230.924 731.743, 229.854 730.644, 228.852 728.996 C 227.849 727.348, 226.348 726, 225.515 726 C 224.682 726, 224 725.549, 224 724.999 C 224 724.448, 220.063 719.938, 215.250 714.976 C 200.970 700.254, 195.097 693.956, 194.944 693.207 C 194.865 692.818, 194.395 692.613, 193.900 692.750 C 193.405 692.888, 193 692.325, 193 691.500 C 193 690.675, 192.626 690, 192.169 690 C 191.712 690, 190.744 688.890, 190.018 687.534 C 189.292 686.178, 188.316 685.304, 187.849 685.593 C 187.382 685.882, 187 685.622, 187 685.017 C 187 683.803, 185.877 682.262, 181.750 677.812 C 180.237 676.181, 178.995 674.543, 178.989 674.173 C 178.983 673.803, 176.958 671.309, 174.489 668.632 C 172.020 665.954, 170 663.392, 170 662.939 C 170 662.485, 169.103 661.485, 168.006 660.717 C 166.910 659.949, 166.226 659.108, 166.486 658.847 C 166.747 658.587, 165.431 656.753, 163.562 654.772 C 161.693 652.790, 160.427 650.906, 160.749 650.585 C 161.070 650.263, 160.797 650, 160.142 650 C 159.487 650, 158.523 648.875, 158 647.500 C 157.477 646.125, 156.588 645, 156.025 645 C 155.461 645, 155 644.509, 155 643.909 C 155 642.661, 147.609 631.832, 144.269 628.184 C 143.042 626.845, 142.283 625.352, 142.582 624.867 C 142.882 624.382, 142.423 623.716, 141.563 623.386 C 140.704 623.056, 140 622.175, 140 621.428 C 140 619.748, 135.012 610.624, 133.842 610.165 C 133.372 609.980, 133.242 609.418, 133.553 608.915 C 133.864 608.412, 133.615 608, 133 608 C 132.385 608, 132.131 607.597, 132.435 607.105 C 132.740 606.612, 132.316 605.952, 131.494 605.636 C 130.672 605.321, 130 604.463, 130 603.731 C 130 601.866, 127.656 597.017, 126.750 597.008 C 126.338 597.004, 126 596.357, 126 595.571 C 126 594.786, 125.213 593.355, 124.250 592.393 C 123.288 591.430, 122.550 590.386, 122.611 590.071 C 122.863 588.769, 120.736 584, 119.902 584 C 119.406 584, 119 583.339, 119 582.531 C 119 580.764, 114.919 572.638, 113.795 572.167 C 113.358 571.983, 113 571.032, 113 570.052 C 113 569.072, 112.067 567.084, 110.927 565.635 C 109.788 564.186, 109.155 563, 109.522 563 C 109.890 563, 109.003 560.975, 107.553 558.500 C 106.102 556.025, 105.174 554, 105.490 554 C 105.806 554, 104.998 552.087, 103.695 549.750 C 102.393 547.413, 101.516 544.938, 101.747 544.250 C 101.978 543.563, 101.653 543, 101.024 543 C 100.396 543, 100.160 542.550, 100.500 542 C 100.840 541.450, 100.641 541, 100.059 541 C 99.477 541, 99 540.155, 99 539.122 C 99 538.089, 98.245 535.502, 97.323 533.372 C 96.401 531.242, 95.536 528.903, 95.400 528.172 C 95.265 527.442, 94.416 525.288, 93.513 523.386 C 92.610 521.484, 91.204 517.356, 90.388 514.214 C 89.573 511.071, 88.502 508.358, 88.009 508.185 C 87.516 508.012, 87.343 507.270, 87.624 506.537 C 87.906 505.803, 87.648 504.901, 87.052 504.532 C 86.455 504.163, 86.226 503.443, 86.543 502.931 C 86.859 502.419, 86.615 502, 86 502 C 85.385 502, 85.137 501.588, 85.448 501.084 C 85.760 500.580, 85.516 498.893, 84.907 497.334 C 84.298 495.775, 83.611 493.375, 83.379 492 L 82.958 489.500 92.729 489.750 C 105.585 490.079, 111.281 490.585, 124.500 492.570 C 130.550 493.479, 136.625 494.367, 138 494.544 C 139.375 494.720, 142.750 495.370, 145.500 495.986 C 148.250 496.603, 151.175 497.245, 152 497.415 C 152.825 497.584, 154.266 498.050, 155.202 498.450 C 156.138 498.850, 157.376 498.886, 157.952 498.530 C 158.528 498.173, 159 498.319, 159 498.852 C 159 499.386, 159.787 499.696, 160.750 499.540 C 161.713 499.384, 162.980 499.636, 163.566 500.099 C 164.153 500.561, 166.066 501.049, 167.816 501.183 C 169.567 501.316, 171 501.817, 171 502.296 C 171 502.775, 171.563 502.978, 172.250 502.748 C 172.938 502.518, 175.857 503.158, 178.737 504.169 C 181.618 505.181, 184.768 506.132, 185.737 506.283 C 186.707 506.434, 188.063 506.909, 188.750 507.338 C 189.438 507.767, 190.450 507.840, 191 507.500 C 191.550 507.160, 192 507.344, 192 507.910 C 192 508.475, 192.675 508.678, 193.500 508.362 C 194.325 508.045, 195 508.234, 195 508.782 C 195 509.585, 197.763 510.501, 203 511.434 C 203.761 511.570, 210.107 514.062, 213.651 515.617 C 215.384 516.378, 217.527 517, 218.412 517 C 219.297 517, 221.929 517.879, 224.261 518.952 C 230.858 521.990, 242 525.978, 242 525.300 C 242 524.965, 242.811 525.424, 243.802 526.321 C 244.794 527.218, 246.481 528.120, 247.552 528.326 C 250.081 528.811, 253.011 529.880, 255.453 531.208 C 260.822 534.129, 272.855 539.932, 274.093 540.198 C 274.867 540.364, 275.725 540.740, 276 541.033 C 277.232 542.346, 291.541 550.333, 292.661 550.333 C 293.349 550.333, 293.680 550.708, 293.397 551.167 C 293.114 551.625, 293.584 552, 294.441 552 C 295.298 552, 296 552.398, 296 552.883 C 296 553.369, 296.788 554.031, 297.750 554.354 C 300.418 555.250, 303.220 557.258, 305.290 559.760 C 306.319 561.002, 307.585 561.756, 308.105 561.435 C 308.624 561.114, 308.949 561.222, 308.826 561.676 C 308.509 562.849, 316.882 571.551, 318.039 571.250 C 318.568 571.113, 319 571.477, 319 572.059 C 319 572.641, 319.450 572.840, 320 572.500 C 320.550 572.160, 321 572.307, 321 572.827 C 321 574.500, 327.332 574.765, 331.701 573.277 C 337.347 571.353, 341.449 566.488, 343.013 559.858 C 345.462 549.475, 354.265 525.360, 360.015 513.282 C 371.059 490.085, 381.042 477.268, 393.013 470.919 C 401.056 466.653, 404 462.602, 404 455.802 C 404 448.942, 402.376 446.436, 392.321 437.778 C 373.272 421.377, 355.350 402.699, 335.921 379 C 332.539 374.875, 329.374 371.350, 328.886 371.167 C 328.399 370.983, 328 370.346, 328 369.751 C 328 369.155, 327.356 367.955, 326.570 367.084 C 325.783 366.213, 324.096 364.347, 322.820 362.938 C 321.544 361.529, 319.841 359.128, 319.035 357.602 C 318.229 356.076, 316.542 353.719, 315.285 352.363 C 314.028 351.006, 313 349.517, 313 349.053 C 313 348.590, 311.883 347.150, 310.517 345.855 C 309.152 344.560, 308.027 343.003, 308.017 342.396 C 308.008 341.789, 306.896 340.101, 305.548 338.646 C 304.199 337.191, 303.317 336, 303.587 336 C 303.858 336, 303.618 335.438, 303.055 334.750 C 298.518 329.214, 296.904 326.977, 296.956 326.294 C 296.989 325.857, 296.342 324.712, 295.518 323.750 C 294.694 322.788, 294.214 322, 294.452 322 C 294.918 322, 288.777 312.288, 287.055 310.301 C 286.484 309.641, 285.254 307.504, 284.323 305.551 C 283.392 303.598, 282.236 302, 281.756 302 C 281.275 302, 281.160 301.550, 281.500 301 C 281.840 300.450, 281.615 300, 281 300 C 280.385 300, 280.123 299.610, 280.417 299.134 C 280.712 298.657, 280.074 297.472, 279 296.500 C 277.926 295.528, 277.288 294.343, 277.583 293.866 C 277.877 293.390, 277.615 293, 277 293 C 276.385 293, 276.160 292.550, 276.500 292 C 276.840 291.450, 276.754 290.998, 276.309 290.996 C 275.864 290.994, 274.668 288.969, 273.651 286.496 C 272.634 284.023, 271.370 282, 270.842 282 C 270.314 282, 270.160 281.550, 270.500 281 C 270.840 280.450, 270.641 280, 270.059 280 C 269.477 280, 269 279.325, 269 278.500 C 269 277.675, 268.523 277, 267.941 277 C 267.359 277, 267.160 276.550, 267.500 276 C 267.840 275.450, 267.641 275, 267.059 275 C 266.477 275, 266.094 274.663, 266.209 274.250 C 266.538 273.069, 261.605 263, 260.697 263 C 260.249 263, 260.138 262.586, 260.450 262.081 C 260.763 261.575, 260.323 260.466, 259.473 259.616 C 258.624 258.767, 257.924 257.838, 257.918 257.552 C 257.881 255.771, 255.642 251, 254.843 251 C 254.315 251, 254.160 250.550, 254.500 250 C 254.840 249.450, 254.737 249, 254.272 249 C 253.806 249, 253.357 248.095, 253.274 246.990 C 253.191 245.884, 252.420 244.277, 251.561 243.419 C 250.703 242.560, 250 241.182, 250 240.357 C 250 239.532, 249.321 238.178, 248.491 237.348 C 247.661 236.518, 247.237 235.426, 247.549 234.921 C 247.860 234.417, 247.472 232.766, 246.685 231.252 C 244.009 226.104, 241.639 220.502, 241.820 219.750 C 241.919 219.337, 241.523 219, 240.941 219 C 240.359 219, 240.141 218.581, 240.457 218.069 C 240.774 217.557, 240.575 216.856, 240.016 216.510 C 239.457 216.165, 239 215.009, 239 213.941 C 239 212.873, 238.646 212, 238.213 212 C 237.780 212, 237.363 211.164, 237.286 210.143 C 237.209 209.122, 236.047 205.634, 234.703 202.393 C 233.359 199.152, 231.009 192.675, 229.481 188 C 227.953 183.325, 226.261 179.213, 225.723 178.862 C 225.184 178.511, 225.034 177.754, 225.388 177.181 C 225.743 176.607, 225.568 175.851, 225 175.500 C 224.432 175.149, 224.226 174.443, 224.543 173.931 C 224.859 173.419, 224.738 173, 224.273 173 C 223.809 173, 223.350 172.213, 223.255 171.250 C 222.832 166.985, 221.703 163, 220.918 163 C 220.448 163, 220.304 162.371, 220.600 161.601 C 220.895 160.832, 220.675 159.917, 220.112 159.569 C 219.548 159.221, 219.341 158.275, 219.651 157.468 C 219.960 156.661, 219.730 156, 219.138 156 C 218.547 156, 218.322 155.325, 218.638 154.500 C 218.955 153.675, 218.730 153, 218.138 153 C 217.547 153, 217.324 152.319, 217.643 151.487 C 217.963 150.655, 217.685 149.325, 217.026 148.531 C 216.367 147.737, 216.118 146.618, 216.473 146.044 C 216.828 145.470, 216.681 145, 216.148 145 C 215.614 145, 215.304 144.213, 215.459 143.250 C 215.614 142.287, 215.483 141.058, 215.168 140.518 C 214.853 139.977, 214.484 138.852, 214.348 138.018 C 214.212 137.183, 213.621 134.475, 213.035 132 C 212.448 129.525, 211.772 126.261, 211.531 124.747 C 211.290 123.233, 210.896 120.758, 210.656 119.247 C 210.416 117.736, 209.946 114.250, 209.611 111.500 C 209.277 108.750, 208.723 105.375, 208.382 104 C 207.596 100.833, 207.682 82.636, 208.506 78 C 208.847 76.075, 209.174 73.955, 209.230 73.290 C 209.406 71.221, 214.383 70.194, 221.589 70.739 C 225.390 71.026, 229.512 71.315, 230.750 71.381 C 231.988 71.446, 233 71.810, 233 72.188 C 233 72.566, 233.787 72.861, 234.750 72.844 C 237.140 72.801, 240.480 73.651, 242.804 74.895 C 243.867 75.464, 245.021 75.645, 245.369 75.298 C 245.716 74.951, 246 75.143, 246 75.725 C 246 76.307, 247.161 77.075, 248.580 77.431 C 250 77.787, 254.162 79.511, 257.830 81.261 C 261.499 83.011, 264.837 84.344, 265.250 84.222 C 265.663 84.100, 266 84.477, 266 85.059 C 266 85.641, 266.450 85.840, 267 85.500 C 267.550 85.160, 268 85.370, 268 85.966 C 268 87.032, 272.783 89.477, 274.250 89.161 C 274.663 89.073, 275 89.348, 275 89.773 C 275 90.198, 276.688 91.431, 278.750 92.513 C 280.813 93.595, 282.725 94.732, 283 95.039 C 284.207 96.385, 290 100.075, 290 99.497 C 290 99.145, 290.659 99.452, 291.465 100.179 C 294.876 103.255, 295.820 103.847, 296.393 103.273 C 296.727 102.940, 297 103.130, 297 103.696 C 297 104.715, 309.770 114.684, 311.288 114.850 C 311.721 114.898, 313.240 116.320, 314.662 118.010 C 316.085 119.701, 317.429 120.904, 317.649 120.684 C 317.869 120.464, 319.745 121.908, 321.818 123.892 C 323.891 125.876, 327.768 129.300, 330.432 131.500 C 338.217 137.928, 365.022 165.550, 375.056 177.484 C 428.812 241.417, 470.387 322.661, 493.221 408.390 C 498.338 427.604, 500.305 429.346, 518.666 430.935 C 560.564 434.559, 598.188 450.130, 634 478.665 C 645.798 488.065, 665.881 508.378, 676.350 521.500 C 710.500 564.302, 733.871 615.150, 735.710 650.645 C 736.276 661.578, 736.228 661.916, 733.184 668.420 C 726.001 683.770, 709.334 693.327, 680.500 698.628 C 665.668 701.355, 624.405 701.146, 603.250 698.237 C 583.651 695.541, 579.278 696.614, 574.903 705.191 C 571.290 712.273, 573.338 720.208, 580.062 725.179 C 587.018 730.321, 639.139 734.498, 666.500 732.107 C 691.881 729.888, 708.038 725.985, 724.500 718.095 C 745.391 708.082, 758.402 694.268, 765.089 675 C 766.994 669.509, 767.346 666.404, 767.355 655 C 767.382 621.451, 752.541 578.873, 726.112 536.679 C 679.852 462.824, 611.603 412.972, 541.500 401.830 C 523.448 398.961, 523.957 399.077, 523.536 397.720 C 523.328 397.049, 520.883 388.996, 518.104 379.824 C 504.181 333.887, 482.843 283.747, 461.258 246.250 C 457.379 239.513, 454.505 234, 454.871 234 C 455.236 234, 460.703 238.415, 467.018 243.812 C 477.696 252.936, 488.401 263.998, 497.353 275.157 C 504.122 283.595, 512.038 285.264, 520.335 280.003 C 522.934 278.354, 525.337 276.284, 525.676 275.403 C 526.272 273.849, 527.043 272.916, 533.588 265.839 C 535.286 264.003, 536.861 262.050, 537.088 261.500 C 537.315 260.950, 537.837 260.612, 538.250 260.750 C 538.663 260.887, 539 260.572, 539 260.048 C 539 259.024, 542.637 255.436, 551.715 247.500 C 554.861 244.750, 559 240.925, 560.912 239 C 562.824 237.075, 564.010 236.127, 563.547 236.893 C 563.084 237.659, 564.746 236.759, 567.240 234.893 C 569.734 233.027, 571.574 231.162, 571.328 230.750 C 570.925 230.072, 572.591 229.648, 573.290 230.250 C 573.450 230.387, 575.363 229.118, 577.540 227.430 C 579.718 225.741, 583.300 223.290, 585.500 221.983 C 587.700 220.675, 589.725 219.357, 590 219.053 C 590.275 218.749, 591.175 218.352, 592 218.171 C 592.825 217.990, 594.175 217.256, 595 216.540 C 595.825 215.823, 597.513 214.928, 598.750 214.551 C 599.987 214.174, 601 213.371, 601 212.766 C 601 212.161, 601.301 211.968, 601.669 212.336 C 602.037 212.703, 603.049 212.360, 603.919 211.573 C 604.788 210.786, 605.950 210.105, 606.500 210.059 C 608.799 209.868, 611 208.799, 611 207.874 C 611 207.328, 611.450 207.160, 612 207.500 C 612.550 207.840, 613 207.615, 613 207 C 613 206.385, 613.470 206.172, 614.044 206.527 C 614.618 206.882, 615.630 206.742, 616.294 206.216 C 616.957 205.691, 619.188 204.717, 621.250 204.053 C 623.313 203.388, 625 202.526, 625 202.135 C 625 201.745, 625.788 201.364, 626.750 201.289 C 627.712 201.214, 629.850 200.636, 631.500 200.006 C 633.150 199.375, 634.725 198.806, 635 198.741 C 635.275 198.675, 636.593 198.055, 637.928 197.362 C 639.264 196.669, 640.726 196.331, 641.178 196.610 C 641.630 196.890, 642 196.615, 642 196 C 642 195.385, 642.398 195.128, 642.885 195.429 C 643.817 196.005, 649.257 194.544, 652.291 192.901 C 653.276 192.368, 654.513 192.199, 655.041 192.525 C 655.568 192.851, 656 192.615, 656 192 C 656 191.385, 656.430 191.148, 656.956 191.473 C 657.482 191.798, 659.470 191.413, 661.374 190.617 C 663.279 189.821, 665.079 189.413, 665.375 189.709 C 665.671 190.005, 666.721 189.907, 667.707 189.491 C 668.693 189.076, 670.625 188.590, 672 188.411 C 673.375 188.233, 675.625 187.788, 677 187.422 C 678.375 187.056, 680.962 186.587, 682.750 186.378 C 684.538 186.170, 687.688 185.756, 689.750 185.458 C 702.715 183.583, 761.500 183.198, 761.500 184.988 C 761.500 185.372, 772.485 186.956, 778.500 187.439 C 780.150 187.572, 782.400 187.959, 783.500 188.301 C 784.600 188.642, 786.625 189.150, 788 189.429 C 789.375 189.709, 792.525 190.457, 795 191.093 C 797.475 191.729, 800.183 192.327, 801.018 192.422 C 801.852 192.517, 802.977 192.865, 803.518 193.196 C 804.542 193.823, 812.760 196.259, 814.500 196.452 C 815.050 196.513, 817.235 197.333, 819.356 198.275 C 821.477 199.216, 823.615 199.738, 824.106 199.434 C 824.598 199.131, 825 199.359, 825 199.941 C 825 200.523, 825.681 201, 826.514 201 C 827.346 201, 828.809 201.455, 829.764 202.010 C 830.719 202.566, 836 204.947, 841.500 207.301 C 847 209.656, 855.795 214.111, 861.044 217.203 C 913.993 248.384, 944.913 298.313, 952.572 365 C 954.733 383.810, 954.047 418.151, 951.115 438 C 942.508 496.263, 921.664 552.843, 886.345 613.816 C 871.002 640.303, 859.557 656.807, 841.490 678.500 C 806.315 720.734, 756.215 766.400, 694.385 812.588 C 678 824.828, 675.037 827.450, 673.635 830.954 C 672.736 833.201, 672 836.147, 672 837.500 C 672 840.691, 674.978 848.132, 676.001 847.499 C 676.435 847.231, 677.035 847.650, 677.335 848.430 C 677.634 849.210, 679.481 850.609, 681.438 851.538 C 686.826 854.094, 694.168 852.994, 699.382 848.849 C 701.647 847.048, 703.650 845.220, 703.833 844.787 C 704.017 844.354, 704.818 844, 705.615 844 C 706.411 844, 707.321 843.328, 707.636 842.506 C 707.952 841.684, 708.582 841.241, 709.036 841.522 C 709.491 841.804, 710.497 841.129, 711.271 840.023 C 712.046 838.917, 712.977 838.310, 713.340 838.673 C 713.703 839.036, 714 838.808, 714 838.167 C 714 837.525, 714.563 837, 715.250 837 C 715.938 837, 718.413 835.252, 720.750 833.116 C 723.088 830.979, 725 829.422, 725 829.655 C 725 830.231, 727.685 827.983, 730.220 825.284 C 731.365 824.065, 732.590 823.247, 732.943 823.465 C 733.296 823.683, 735.690 821.929, 738.262 819.567 C 740.835 817.205, 743.178 815.511, 743.470 815.803 C 743.761 816.095, 744 815.839, 744 815.234 C 744 814.629, 744.907 813.847, 746.015 813.495 C 747.123 813.144, 747.791 812.471, 747.500 812 C 747.209 811.529, 747.878 810.856, 748.987 810.504 C 750.095 810.152, 751.474 808.982, 752.051 807.904 C 752.628 806.826, 753.480 806.179, 753.944 806.465 C 754.408 806.752, 757.180 804.740, 760.106 801.993 C 763.031 799.247, 765.550 797, 765.704 797 C 766.055 797, 770.728 793.088, 773.171 790.750 C 774.177 789.788, 775.450 789, 776 789 C 776.550 789, 777 788.298, 777 787.441 C 777 786.584, 777.348 786.097, 777.773 786.360 C 778.198 786.622, 781.415 784.174, 784.922 780.919 C 788.428 777.663, 791.535 775, 791.825 775 C 792.115 775, 795.198 772.112, 798.676 768.582 C 802.154 765.053, 805 762.420, 805 762.732 C 805 763.044, 814.450 753.799, 826 742.189 C 837.550 730.578, 847 720.708, 847 720.254 C 847 719.801, 848.800 717.941, 851 716.122 C 853.200 714.302, 855 712.317, 855 711.711 C 855 711.104, 857.138 708.623, 859.750 706.196 C 862.362 703.769, 863.622 702.394, 862.549 703.142 C 861.475 703.889, 863.389 701.647, 866.802 698.160 C 870.214 694.672, 872.782 691.457, 872.509 691.014 C 872.235 690.572, 872.684 689.952, 873.506 689.636 C 874.328 689.321, 875 688.554, 875 687.933 C 875 687.311, 876.237 685.609, 877.750 684.151 C 879.262 682.693, 881.400 680.226, 882.500 678.669 C 883.600 677.112, 886.633 673.062, 889.241 669.669 C 891.849 666.276, 893.986 663.007, 893.991 662.405 C 893.996 661.803, 894.889 660.505, 895.976 659.521 C 897.063 658.538, 897.712 657.343, 897.417 656.866 C 897.123 656.390, 897.368 656, 897.962 656 C 898.557 656, 899.580 654.763, 900.238 653.250 C 900.895 651.737, 902.460 649.108, 903.716 647.406 C 904.972 645.704, 906 644.012, 906 643.647 C 906 643.282, 907.350 641.119, 909 638.841 C 910.650 636.564, 912 634.092, 912 633.350 C 912 632.607, 912.477 632, 913.059 632 C 913.641 632, 913.840 631.550, 913.500 631 C 913.160 630.450, 913.359 630, 913.941 630 C 914.523 630, 915 629.122, 915 628.050 C 915 626.977, 915.788 625.641, 916.750 625.080 C 917.712 624.519, 918.155 624.047, 917.733 624.030 C 917.312 624.014, 918.490 621.786, 920.351 619.080 C 922.213 616.374, 924.583 612.100, 925.618 609.583 C 926.653 607.067, 927.837 605.006, 928.250 605.004 C 928.663 605.002, 929 604.100, 929 603 C 929 601.900, 929.406 601, 929.902 601 C 930.657 601, 932.883 596.164, 932.918 594.448 C 932.924 594.162, 933.620 593.238, 934.464 592.393 C 935.309 591.548, 936 590.044, 936 589.051 C 936 588.058, 936.675 586.685, 937.500 586 C 938.325 585.315, 939 584.106, 939 583.312 C 939 582.518, 939.541 580.886, 940.202 579.684 C 940.863 578.483, 941.508 576.870, 941.635 576.100 C 941.763 575.330, 942.459 574.325, 943.184 573.865 C 943.908 573.406, 944.093 573.024, 943.595 573.015 C 943.097 573.007, 943.505 572.100, 944.500 571 C 945.495 569.900, 946.023 569, 945.672 569 C 945.321 569, 945.855 567.538, 946.858 565.750 C 948.908 562.098, 951.518 554.894, 951.205 553.750 C 951.092 553.338, 951.401 553, 951.892 553 C 952.382 553, 953.133 551.763, 953.560 550.250 C 954.610 546.535, 954.392 547.103, 956.916 541.500 C 958.155 538.750, 959.281 535.487, 959.419 534.248 C 959.557 533.010, 959.969 531.698, 960.335 531.332 C 960.701 530.966, 961 529.717, 961 528.556 C 961 527.395, 961.701 525.445, 962.557 524.223 C 963.413 523, 963.808 522, 963.434 522 C 963.061 522, 963.276 521.373, 963.912 520.607 C 964.548 519.840, 965.252 517.762, 965.476 515.988 C 965.701 514.215, 966.545 511.354, 967.352 509.632 C 968.160 507.909, 968.973 505.375, 969.160 504 C 969.347 502.625, 969.726 501.275, 970.001 501 C 970.461 500.541, 974.547 485.167, 975.449 480.500 C 975.662 479.400, 976.723 474.450, 977.807 469.500 C 978.891 464.550, 979.803 459.825, 979.834 459 C 979.944 456.132, 980.717 451.491, 981.335 450 C 981.676 449.175, 981.799 447.600, 981.607 446.500 C 981.416 445.400, 981.526 444.050, 981.851 443.500 C 982.881 441.761, 983.186 439.015, 984.791 417 C 985.509 407.157, 985.431 380.984, 984.653 370.500 C 983.617 356.542, 980.490 334.602, 979.251 332.597 C 978.624 331.583, 978.129 329.243, 977.854 326 C 977.784 325.175, 977.284 323.938, 976.741 323.250 C 976.199 322.562, 976.011 322, 976.324 322 C 977.064 322, 974.067 311.832, 972.907 310.408 C 972.418 309.807, 972.275 309.058, 972.590 308.744 C 972.904 308.429, 972.594 307.120, 971.899 305.836 C 971.205 304.551, 970.520 302.449, 970.377 301.165 C 970.235 299.880, 969.417 297.759, 968.559 296.450 C 967.702 295.141, 967 293.380, 967 292.535 C 967 291.691, 966.502 291, 965.893 291 C 965.284 291, 965.022 290.384, 965.312 289.631 C 965.601 288.877, 964.883 286.740, 963.716 284.881 C 962.550 283.021, 961.552 281.275, 961.498 281 C 961.027 278.562, 959.682 276, 958.874 276 C 958.328 276, 958.160 275.550, 958.500 275 C 958.840 274.450, 958.641 274, 958.059 274 C 957.477 274, 957.089 273.662, 957.198 273.250 C 957.589 271.770, 955.843 268, 954.766 268 C 954.161 268, 953.971 267.696, 954.342 267.324 C 954.714 266.952, 954.141 265.715, 953.070 264.574 C 951.998 263.433, 951.053 262.050, 950.969 261.500 C 950.713 259.811, 947.616 255, 946.784 255 C 946.353 255, 946 254.373, 946 253.607 C 946 252.841, 945.261 251.930, 944.357 251.583 C 943.453 251.237, 942.991 250.676, 943.330 250.337 C 943.979 249.688, 938.916 242.732, 935.625 239.750 C 934.563 238.787, 934.100 237.994, 934.597 237.986 C 935.094 237.978, 933.511 236.178, 931.080 233.986 C 928.649 231.794, 926.984 230, 927.380 230 C 928.516 230, 916.534 218.352, 908.138 211.295 C 897.056 201.979, 897.067 201.988, 894.422 200.783 C 893.090 200.176, 892 199.301, 892 198.839 C 892 198.378, 891.531 198, 890.958 198 C 890.385 198, 889.028 197.172, 887.941 196.160 C 886.855 195.148, 884.736 193.697, 883.233 192.936 C 881.730 192.175, 879.435 190.759, 878.132 189.790 C 876.830 188.820, 875.368 188.273, 874.882 188.573 C 874.397 188.873, 874 188.641, 874 188.059 C 874 187.477, 873.325 187, 872.500 187 C 871.675 187, 871 186.475, 871 185.833 C 871 185.192, 870.721 184.945, 870.381 185.286 C 870.040 185.626, 869.104 185.247, 868.300 184.443 C 867.496 183.639, 866.425 183.237, 865.919 183.550 C 865.414 183.862, 865 183.740, 865 183.278 C 865 182.649, 860.103 180.226, 858.272 179.951 C 858.147 179.932, 855.515 178.586, 852.424 176.960 C 849.333 175.334, 846.398 174.254, 845.902 174.561 C 845.406 174.867, 845 174.615, 845 174 C 845 173.385, 844.550 173.160, 844 173.500 C 843.450 173.840, 843 173.593, 843 172.952 C 843 172.311, 842.325 172.045, 841.500 172.362 C 840.675 172.678, 840 172.453, 840 171.862 C 840 171.270, 839.354 171.034, 838.565 171.337 C 837.775 171.640, 836.981 171.443, 836.800 170.899 C 836.619 170.356, 835.465 169.835, 834.235 169.743 C 833.006 169.650, 832 169.200, 832 168.743 C 832 168.286, 831.438 168.003, 830.750 168.114 C 829.522 168.312, 827.465 167.692, 823.500 165.930 C 822.400 165.441, 820.375 164.811, 819 164.531 C 812.120 163.128, 810.420 162.671, 809.500 161.979 C 808.392 161.145, 799.994 159.496, 798.645 159.847 C 798.174 159.970, 797.274 159.689, 796.645 159.224 C 796.015 158.758, 794.825 158.435, 794 158.505 C 793.175 158.575, 791.757 158.273, 790.849 157.834 C 789.429 157.147, 783.699 156.215, 776.500 155.500 C 775.400 155.390, 773.825 155.046, 773 154.734 C 772.175 154.423, 770.825 154.115, 770 154.050 C 769.175 153.985, 765.800 153.739, 762.500 153.503 C 759.200 153.267, 753.350 152.803, 749.500 152.471 C 734.532 151.181, 702.360 152.118, 685 154.350 C 683.075 154.597, 679.250 155.083, 676.500 155.428 C 673.750 155.774, 669.925 156.535, 668 157.119 C 666.075 157.703, 662.475 158.402, 660 158.671 C 657.525 158.941, 655.349 159.578, 655.165 160.087 C 654.980 160.596, 654.476 160.794, 654.044 160.527 C 653.005 159.885, 641.965 162.784, 640.351 164.124 C 639.656 164.700, 638.598 164.870, 638 164.500 C 637.402 164.130, 635.807 164.552, 634.456 165.437 C 633.105 166.322, 632 166.805, 632 166.510 C 632 166.215, 630.425 166.631, 628.500 167.436 C 626.575 168.240, 625 168.680, 625 168.414 C 625 168.148, 623.987 168.486, 622.750 169.166 C 621.513 169.846, 619.620 170.548, 618.543 170.726 C 617.467 170.905, 616.237 171.602, 615.809 172.275 C 615.381 172.949, 615.024 173.107, 615.015 172.628 C 615.007 172.148, 614.396 172.256, 613.658 172.869 C 612.920 173.481, 612.074 173.740, 611.778 173.444 C 611.482 173.148, 609.160 174.067, 606.620 175.485 C 604.079 176.904, 602 177.816, 602 177.512 C 602 177.208, 600.087 177.935, 597.750 179.128 C 595.413 180.320, 593.383 181.220, 593.240 181.128 C 592.712 180.787, 586.478 184.313, 585.830 185.319 C 585.461 185.891, 584.345 186.479, 583.348 186.625 C 582.352 186.771, 581.377 187.368, 581.183 187.952 C 580.988 188.535, 580.454 188.781, 579.995 188.497 C 579.537 188.214, 578.562 188.548, 577.831 189.241 C 577.099 189.933, 574.813 191.280, 572.750 192.234 C 570.688 193.187, 569 194.425, 569 194.984 C 569 195.543, 568.282 196, 567.404 196 C 566.040 196, 560.554 199.236, 559 200.958 C 557.601 202.508, 551.001 207, 550.123 207 C 549.568 207, 548.525 207.829, 547.807 208.841 C 547.088 209.854, 545.375 211.251, 544 211.945 C 542.625 212.639, 540.263 214.571, 538.750 216.239 C 537.237 217.907, 536 218.934, 536 218.521 C 536 218.109, 534.326 219.398, 532.279 221.386 C 530.233 223.374, 528.201 225, 527.764 225 C 527.328 225, 526.079 226.463, 524.989 228.250 C 523.899 230.037, 523.006 231.078, 523.004 230.563 C 523.002 230.048, 521.666 230.904, 520.036 232.466 C 518.405 234.028, 517.287 235.656, 517.552 236.084 C 517.816 236.512, 517.506 237.187, 516.862 237.585 C 516.069 238.075, 515.952 237.855, 516.499 236.905 C 516.944 236.132, 516.396 236.400, 515.282 237.500 C 514.167 238.600, 513.431 239.806, 513.644 240.181 C 513.858 240.555, 513.566 241.150, 512.996 241.503 C 511.884 242.190, 505.761 237.572, 506.631 236.703 C 506.917 236.417, 506.210 235.884, 505.061 235.519 C 503.911 235.154, 503.208 234.473, 503.497 234.005 C 503.787 233.536, 501.898 231.431, 499.300 229.327 C 496.702 227.222, 493.275 224.037, 491.685 222.250 C 490.094 220.462, 488.265 219, 487.619 219 C 486.974 219, 485.306 217.762, 483.914 216.250 C 480.952 213.033, 477.775 210.437, 476.845 210.474 C 476.485 210.488, 474.797 209.259, 473.095 207.742 C 471.393 206.226, 470 205.188, 470 205.436 C 470 205.684, 468.609 204.617, 466.909 203.064 C 465.208 201.511, 462.621 199.643, 461.159 198.913 C 459.696 198.183, 457.712 196.935, 456.750 196.138 C 455.787 195.342, 455 195.023, 455 195.429 C 455 195.836, 453.312 194.850, 451.250 193.238 C 447.299 190.152, 430 180.680, 430 181.604 C 430 181.900, 429.293 181.436, 428.429 180.571 C 427.564 179.707, 426.214 178.944, 425.429 178.875 C 424.643 178.806, 423.663 178.633, 423.250 178.490 C 422.837 178.348, 421.488 177.902, 420.250 177.499 C 419.012 177.096, 418 176.369, 418 175.883 C 418 175.398, 417.139 175, 416.087 175 C 414.996 175, 412.845 173.195, 411.087 170.803 C 409.389 168.495, 408 166.982, 408 167.443 C 408 167.903, 406.844 166.529, 405.430 164.390 C 404.017 162.250, 402.061 159.809, 401.085 158.965 C 400.109 158.121, 399.128 156.927, 398.905 156.311 C 397.697 152.974, 358.067 112, 356.047 112 C 355.406 112, 355.160 111.550, 355.500 111 C 355.840 110.450, 355.754 109.996, 355.309 109.992 C 354.864 109.987, 351.809 107.512, 348.520 104.492 C 345.232 101.471, 341.943 99, 341.211 99 C 340.480 99, 340.144 98.575, 340.465 98.056 C 340.786 97.537, 339.053 95.944, 336.615 94.515 C 334.177 93.086, 331.919 91.232, 331.598 90.395 C 331.277 89.558, 330.610 89.123, 330.116 89.428 C 329.623 89.733, 328.484 88.862, 327.586 87.491 C 326.688 86.121, 325.542 85, 325.039 85 C 324.535 85, 322.645 83.650, 320.839 82 C 319.032 80.350, 317.208 79, 316.785 79 C 316.362 79, 314.851 77.987, 313.427 76.750 C 312.004 75.513, 310.642 74.622, 310.400 74.772 C 310.158 74.921, 308.735 73.908, 307.237 72.519 C 305.740 71.131, 303.049 69.511, 301.258 68.920 C 299.466 68.329, 298 67.430, 298 66.922 C 298 66.415, 297.325 66, 296.500 66 C 295.675 66, 295 65.647, 295 65.216 C 295 64.056, 289.387 60.946, 288.640 61.693 C 288.288 62.045, 288 61.733, 288 61 C 288 60.267, 287.737 59.929, 287.417 60.250 C 287.096 60.571, 285.954 59.954, 284.880 58.880 C 283.806 57.806, 282.493 57.195, 281.964 57.523 C 281.434 57.850, 281 57.696, 281 57.180 C 281 56.284, 275.950 53.758, 274.293 53.825 C 273.857 53.843, 272.825 53.252, 272 52.512 C 270.769 51.408, 254.066 44.513, 250.500 43.637 C 249.950 43.501, 247.821 42.821, 245.770 42.124 C 243.718 41.428, 241.580 41.141, 241.020 41.488 C 240.459 41.834, 240 41.593, 240 40.952 C 240 40.286, 239.302 40.054, 238.373 40.410 C 237.479 40.754, 236.241 40.616, 235.623 40.106 C 235.005 39.595, 233.375 39.133, 232 39.079 C 214.906 38.410, 208.865 38.410, 208.453 39.077 M 196.250 201.072 C 195.012 201.547, 194 201.670, 194 201.345 C 194 201.021, 193.325 201.315, 192.500 202 C 191.675 202.685, 190.993 202.852, 190.985 202.372 C 190.976 201.893, 190.639 201.951, 190.235 202.502 C 189.831 203.052, 188.375 204.028, 187 204.669 C 185.625 205.310, 181.800 207.105, 178.500 208.657 C 175.200 210.209, 172.468 211.259, 172.429 210.990 C 172.389 210.720, 171.566 211.292, 170.598 212.259 C 169.630 213.227, 168.463 213.786, 168.005 213.503 C 167.546 213.219, 167.020 213.389, 166.835 213.879 C 166.651 214.370, 162.900 216.918, 158.500 219.542 C 154.100 222.166, 149.488 225.221, 148.250 226.331 C 147.012 227.441, 146 228.068, 146 227.725 C 146 227.382, 144.313 228.652, 142.250 230.546 C 140.188 232.441, 138.141 233.993, 137.702 233.995 C 137.263 233.998, 135.801 235.191, 134.452 236.646 C 133.104 238.101, 132 239.027, 132 238.703 C 132 238.204, 127.898 242.331, 114.250 256.563 C 113.012 257.853, 112 259.202, 112 259.560 C 112 260.810, 107.217 265.884, 106.611 265.278 C 106.275 264.942, 106 265.417, 106 266.333 C 106 267.250, 105.475 268, 104.833 268 C 104.192 268, 103.956 268.290, 104.311 268.644 C 104.665 268.998, 103.615 270.814, 101.977 272.679 C 100.340 274.544, 99 276.729, 99 277.535 C 99 278.341, 98.550 279, 98 279 C 97.450 279, 97 279.675, 97 280.500 C 97 281.325, 96.550 282, 96 282 C 95.450 282, 95 282.900, 95 284 C 95 285.100, 94.550 286, 94 286 C 93.450 286, 93 286.878, 93 287.950 C 93 289.023, 92.213 290.341, 91.250 290.880 C 90.287 291.419, 89.685 292.145, 89.912 292.493 C 90.525 293.438, 87.765 300, 86.754 300 C 86.275 300, 86.160 300.450, 86.500 301 C 86.840 301.550, 86.656 302, 86.090 302 C 85.525 302, 85.322 302.675, 85.638 303.500 C 85.955 304.325, 85.689 305, 85.048 305 C 84.407 305, 84.160 305.450, 84.500 306 C 84.840 306.550, 84.641 307, 84.059 307 C 83.477 307, 83.071 307.337, 83.159 307.750 C 83.246 308.163, 83.072 309.175, 82.773 310 C 82.473 310.825, 81.683 313.498, 81.017 315.941 C 80.350 318.384, 79.330 321.534, 78.750 322.941 C 78.169 324.348, 77.533 326.400, 77.336 327.500 C 77.138 328.600, 76.686 330.175, 76.331 331 C 75.975 331.825, 75.767 333.029, 75.869 333.675 C 75.970 334.321, 75.633 335.109, 75.120 335.426 C 74.607 335.743, 74.423 336.902, 74.711 338.001 C 75.014 339.163, 74.741 340, 74.058 340 C 73.411 340, 73.154 340.440, 73.486 340.977 C 73.818 341.514, 73.591 343.804, 72.982 346.066 C 72.373 348.327, 71.692 352.275, 71.468 354.839 C 71.244 357.402, 70.811 360.850, 70.506 362.500 C 69.350 368.752, 68.895 379.091, 69.009 396.500 C 69.143 416.851, 69.380 420.603, 71.569 437 C 71.826 438.925, 72.185 441.850, 72.366 443.500 C 72.547 445.150, 73.246 449.087, 73.919 452.250 C 75.224 458.386, 75.091 458.295, 82.500 458.162 C 104.719 457.767, 115.233 458.587, 139 462.570 C 180.383 469.505, 230.688 485.380, 272.279 504.629 C 285.786 510.881, 307.618 522.630, 314.818 527.522 C 316.781 528.856, 318.465 529.846, 318.561 529.724 C 318.656 529.601, 320.878 524.100, 323.496 517.500 C 333.290 492.818, 344.415 473.376, 355.936 460.809 L 362.070 454.117 346.785 438.805 C 304.305 396.251, 268.202 345.878, 236.907 285.500 C 229.281 270.788, 213.316 237.025, 212.555 234 C 212.486 233.725, 211.807 232.375, 211.046 231 C 210.285 229.625, 209.780 228.500, 209.923 228.500 C 210.174 228.500, 209.201 225.983, 206.443 219.500 C 205.741 217.850, 203.998 213.141, 202.570 209.036 C 201.141 204.931, 199.641 201.266, 199.236 200.891 C 198.831 200.516, 197.488 200.597, 196.250 201.072 M 584.361 518.098 C 578.060 518.903, 569.903 523.207, 565.782 527.901 C 551.981 543.619, 556.020 567.493, 574.181 577.554 C 579.022 580.235, 580.353 580.500, 589 580.500 C 600.060 580.500, 605.201 578.564, 611.882 571.882 C 618.465 565.300, 620.500 560.014, 620.500 549.500 C 620.500 542.115, 620.085 539.658, 618.187 535.805 C 611.963 523.168, 598.760 516.257, 584.361 518.098" stroke="none" fill="#1c3d57" fill-rule="evenodd"/><path d="M 284 132.658 C 272.954 134.755, 268.106 138.293, 265.315 146.297 C 262.644 153.953, 262.899 176.400, 265.841 192.802 C 275.616 247.280, 303.733 316.994, 340.610 378.182 C 345.320 385.998, 350.560 394.441, 352.254 396.946 C 356.383 403.053, 374.590 421.611, 390.221 435.648 C 400.731 445.086, 403.128 447.762, 404.014 451.050 C 406.284 459.483, 402.239 466.783, 392.647 471.563 C 380.322 477.704, 367.801 494.946, 356.748 521 C 352.445 531.142, 345.327 551.772, 342.958 560.964 C 341.576 566.327, 335.612 572.728, 331.167 573.617 C 329.482 573.954, 327.967 574.805, 327.801 575.509 C 327.590 576.406, 323.913 575.308, 315.500 571.838 C 278.537 556.588, 230.025 543.116, 195.317 538.461 C 171.814 535.309, 139 537.110, 139 541.553 C 139 544.567, 147.087 574.251, 151.451 587.253 C 170.158 642.992, 209.778 710.168, 242.826 742.179 C 278.645 776.875, 327.942 815.663, 382 851.687 C 413.627 872.762, 434.369 885.518, 480.352 912.168 L 511.203 930.049 524.852 922.139 C 532.358 917.788, 540.956 912.939, 543.959 911.364 C 550.255 908.061, 551.129 906.760, 558.511 889.698 C 571.397 859.918, 578.179 832.287, 580.850 798.682 C 581.508 790.404, 582.177 787.235, 583.697 785.182 C 586.450 781.466, 591.806 778, 594.797 778 L 597.299 778 596.579 765.250 C 596.183 758.238, 595.104 747.325, 594.180 741 L 592.500 729.500 587.500 728.275 C 580.328 726.517, 578.145 725.103, 575.417 720.449 C 572.616 715.669, 572.241 709.368, 574.499 705.002 C 576.275 701.568, 581.455 697.416, 585.096 696.508 C 586.524 696.152, 595.299 696.866, 604.596 698.096 C 627.161 701.080, 662.060 701.332, 678.500 698.631 C 701.246 694.893, 717.452 687.839, 726.839 677.589 C 733.815 669.973, 735.506 665.248, 735.464 653.500 C 735.394 633.992, 728.304 610.383, 713.539 580.500 C 686.656 526.088, 646.595 482.055, 600.500 456.251 C 576.071 442.577, 546.045 433.166, 521.500 431.491 C 501.627 430.135, 498.037 427.646, 494.084 412.483 C 483.250 370.929, 467.796 329.942, 447.904 290 C 424.015 242.032, 397.097 201.949, 364.293 165.500 C 355.803 156.066, 354.621 155.151, 343.397 149.324 C 328.681 141.685, 318.053 137.437, 307.568 135.003 C 298.841 132.977, 288.002 131.899, 284 132.658 M 580.951 518.303 C 571.914 520.858, 563.731 527.995, 559.652 536.878 C 556.667 543.379, 556.678 555.645, 559.676 562.176 C 562.711 568.789, 569.270 575.496, 575.853 578.716 C 580.502 580.991, 582.802 581.470, 588.994 581.451 C 602.107 581.413, 612.403 575.021, 618.146 563.355 C 623.940 551.586, 621.986 537.887, 613.063 527.725 C 606.013 519.695, 591.296 515.377, 580.951 518.303" stroke="none" fill="#fbd39b" fill-rule="evenodd"/><path d="M 723.728 151.722 C 725.503 151.943, 728.653 151.946, 730.728 151.730 C 732.802 151.513, 731.350 151.333, 727.500 151.328 C 723.650 151.324, 721.952 151.501, 723.728 151.722" stroke="none" fill="#1c3c54" fill-rule="evenodd"/></svg>