<svg xmlns="http://www.w3.org/2000/svg" width="1024" height="1024" viewBox="0 0 1024 1024" version="1.1"><path d="M 493 65.426 C 474.679 69.492, 468.760 72.912, 425.952 104.161 L 388.500 131.500 337 132.047 C 279.047 132.663, 280.429 132.504, 263.133 140.599 C 243.271 149.896, 228.671 164.331, 219.326 183.909 C 217.858 186.984, 210.306 209.075, 202.544 233 L 188.431 276.500 151.040 303.711 C 130.474 318.677, 111.444 333.077, 108.749 335.711 C 92.589 351.508, 82.755 373.150, 81.319 396.076 C 80.335 411.775, 81.855 418.378, 97.610 466.857 L 112.048 511.283 98.563 552.891 C 80.856 607.527, 81.561 604.686, 81.555 621.500 C 81.551 632.949, 81.965 637.036, 83.829 643.933 C 88.286 660.421, 96.375 674.548, 107.932 686.022 C 111.549 689.614, 130.901 704.402, 151 718.933 C 171.075 733.448, 187.666 745.453, 187.868 745.613 C 188.071 745.772, 194.497 765.162, 202.149 788.702 C 209.801 812.241, 217.635 834.835, 219.558 838.911 C 230.873 862.896, 252.078 880.575, 278.626 888.156 C 286.238 890.330, 288.192 890.417, 337.267 890.761 L 388.034 891.117 425.540 918.377 C 463.102 945.679, 470.234 950.158, 483.133 954.545 C 505.009 961.986, 532.235 959.798, 552.951 948.933 C 560.994 944.715, 576.400 934.066, 581.707 929.057 C 592.346 919.016, 584.801 902, 569.711 902 C 566.009 902, 564.111 902.784, 558.862 906.481 C 536.083 922.524, 532.049 924.472, 517.887 926.274 C 506.917 927.669, 495.762 925.696, 485.513 920.546 C 481.656 918.609, 461.284 904.488, 440.242 889.168 C 419.200 873.848, 400.842 860.793, 399.445 860.157 C 397.633 859.331, 382.673 858.996, 347.203 858.985 C 291.776 858.968, 289.352 858.724, 275.122 851.757 C 266.644 847.606, 254.645 835.877, 250.305 827.500 C 248.596 824.200, 241.012 802.375, 233.453 779 C 225.893 755.625, 218.707 734.250, 217.483 731.500 C 214.700 725.245, 213.774 724.423, 190 707.091 C 130.158 663.466, 129.497 662.930, 122.884 652.699 C 116.375 642.629, 114.489 635.437, 114.571 621 L 114.642 608.500 129.940 562 C 138.740 535.253, 145.269 513.801, 145.309 511.500 C 145.355 508.921, 140.674 493.116, 132.129 467 C 124.842 444.725, 117.781 422.737, 116.439 418.138 C 113.740 408.885, 113.232 397.833, 115.090 388.799 C 116.590 381.506, 123.066 368.468, 128.025 362.758 C 130.457 359.956, 149.044 345.710, 173.450 327.940 C 203.036 306.399, 215.221 296.962, 216.392 294.683 C 217.290 292.932, 224.587 271.250, 232.605 246.500 C 240.805 221.190, 248.727 198.552, 250.710 194.762 C 257.341 182.088, 270.657 171.389, 286 166.407 C 290.904 164.814, 297.350 164.560, 345.525 164.060 L 399.549 163.500 406.468 158.561 C 410.274 155.845, 428.488 142.627, 446.944 129.187 C 465.400 115.748, 483.238 103.450, 486.583 101.860 C 499.772 95.589, 514.861 94.757, 529.734 99.480 C 538.618 102.302, 546.785 107.660, 589 138.371 C 606.325 150.975, 621.948 161.897, 623.718 162.643 C 626.284 163.725, 637.146 164, 677.308 164 C 724.383 164, 728.191 164.131, 735.489 165.997 C 755.825 171.198, 770.467 185.417, 777.714 207 C 779.468 212.225, 786.551 233.879, 793.455 255.119 C 800.358 276.359, 806.903 294.878, 807.999 296.272 C 809.096 297.666, 827.820 311.780, 849.609 327.636 C 872.102 344.005, 891.254 358.686, 893.920 361.603 C 899.542 367.754, 905.370 378.485, 907.472 386.552 C 909.457 394.174, 909.420 407.260, 907.387 416.195 C 904.623 428.351, 906.957 434.864, 915.571 439.035 C 920.869 441.599, 925.178 441.289, 930.572 437.955 C 934.817 435.332, 937.254 430.744, 939.311 421.500 C 944.490 398.232, 940.630 374.328, 928.380 353.797 C 920.199 340.087, 911.475 332.383, 870.920 303.056 L 834.352 276.611 820.575 234.056 C 812.998 210.650, 805.279 188.197, 803.423 184.160 C 791.309 157.819, 765.647 138.202, 736.566 133.051 C 732.971 132.414, 711.870 132, 683.017 132 L 635.400 132 601.450 107.342 C 553.040 72.182, 550.961 70.936, 533.122 66.390 C 525.496 64.447, 521.385 64.019, 511.122 64.102 C 504.180 64.159, 496.025 64.754, 493 65.426 M 663.542 260.120 C 652.165 265.295, 639.457 269.452, 628.270 271.657 C 614.612 274.349, 589.372 273.934, 565 270.615 C 529.015 265.716, 517.487 264.757, 501 265.294 C 466.080 266.431, 443.035 275.903, 420.373 298.432 C 400.196 318.492, 388.040 343.149, 384.866 370.457 L 383.676 380.689 373.088 378.827 C 356.635 375.934, 339.101 371.360, 319.968 364.969 C 304.677 359.861, 301.939 359.224, 298.546 359.990 C 288.049 362.357, 283.027 373.253, 287.969 382.939 C 290.627 388.149, 293.885 389.912, 312 395.942 C 336.539 404.111, 360.587 409.821, 380.318 412.165 L 390.813 413.411 394.156 420.449 C 405.861 445.084, 426.828 467.223, 449.906 479.312 C 469.062 489.347, 488.856 493.646, 511.428 492.674 C 541.007 491.401, 551.500 486.275, 551.500 473.099 C 551.500 465.812, 548.227 461.016, 541.502 458.448 C 537.171 456.794, 536.606 456.801, 528.735 458.608 C 516.707 461.370, 495.359 461.209, 484.500 458.275 C 467.832 453.771, 452.989 444.985, 441.348 432.730 C 434.771 425.806, 427.378 416.199, 428.154 415.585 C 428.344 415.434, 435.461 414.765, 443.970 414.097 C 470.864 411.988, 497.062 406.253, 522.500 396.906 C 545.907 388.305, 584.953 366.961, 590.741 359.602 C 598.462 349.787, 590.400 333.982, 577.685 334.006 C 574.030 334.013, 572.920 334.559, 560 342.703 C 525.373 364.528, 488.832 377.212, 448.137 381.531 C 440.637 382.327, 430.279 382.983, 425.121 382.989 L 415.742 383 416.419 376.750 C 418.651 356.133, 428.031 336.222, 442.361 321.678 C 460.324 303.448, 483.657 295.704, 515.421 297.428 C 521.977 297.784, 539.077 299.718, 553.421 301.726 C 576.925 305.015, 581.722 305.381, 602 305.432 C 624.970 305.489, 633.048 304.592, 647.824 300.345 C 650.752 299.504, 653.325 298.992, 653.542 299.208 C 653.883 299.550, 650.058 314.679, 645.631 330.500 C 643.119 339.475, 636.863 355.258, 630.964 367.500 C 621.308 387.539, 609.618 404.839, 595.610 419.818 C 586.821 429.215, 584.959 433.582, 586.932 440.167 C 589.305 448.087, 597.467 453.073, 605.570 451.553 C 610.355 450.655, 619.252 442.337, 630.404 428.335 C 657.964 393.730, 678.364 344.884, 688.573 289.051 C 691.506 273.010, 691.387 267.757, 687.982 262.975 C 685.514 259.508, 679.022 256.043, 675 256.045 C 673.625 256.046, 668.469 257.880, 663.542 260.120 M 894.500 477.504 C 888.136 479.751, 885.506 483.600, 881.445 496.607 C 879.440 503.030, 877.800 509.758, 877.800 511.559 C 877.800 513.360, 884.207 534.558, 892.038 558.667 C 899.870 582.775, 906.884 604.750, 907.627 607.500 C 909.406 614.092, 909.347 629.105, 907.515 636 C 905.208 644.679, 899.576 655.054, 893.806 661.256 C 890.559 664.745, 873.043 678.178, 848.670 695.871 C 826.763 711.773, 808.193 725.708, 807.401 726.837 C 806.610 727.967, 799.435 749.053, 791.456 773.695 C 783.477 798.338, 775.174 822.140, 773.005 826.589 C 766.195 840.561, 753.350 851.268, 737 856.601 C 732.083 858.205, 725.775 858.454, 677.500 858.948 L 623.500 859.500 620.248 861.820 C 611.726 867.898, 611.441 881.422, 619.704 887.722 L 623.346 890.500 679.423 890.500 C 731.278 890.500, 736.025 890.358, 742.473 888.611 C 765.063 882.490, 784.218 868.974, 796.557 850.449 C 803.911 839.408, 805.836 834.446, 821.046 787.311 L 834.337 746.122 871.474 719.165 C 908.678 692.159, 917.942 684.339, 924.983 674 C 936.128 657.634, 941.228 641.383, 941.302 622 C 941.362 606.215, 941.194 605.535, 924.369 553.574 L 910.793 511.648 913.409 503.074 C 916.590 492.649, 916.628 490.662, 913.750 484.985 C 910.155 477.892, 902.178 474.792, 894.500 477.504 M 656.734 561.034 C 647.078 563.448, 639.390 569.808, 635.120 578.914 C 632.997 583.441, 632.511 585.922, 632.556 592 C 632.649 604.535, 638.708 614.254, 649.839 619.720 C 654.597 622.057, 656.776 622.500, 663.500 622.500 C 670.224 622.500, 672.403 622.057, 677.161 619.720 C 688.292 614.254, 694.351 604.535, 694.444 592 C 694.510 583.054, 691.530 575.596, 685.467 569.533 C 678.412 562.478, 665.836 558.758, 656.734 561.034 M 265.931 572.334 C 227.231 592.266, 227.796 591.925, 225.186 597 C 219.657 607.750, 227.348 620, 239.626 620 C 242.287 620, 247.621 617.768, 258.744 612 C 267.229 607.600, 274.358 604, 274.586 604 C 274.814 604, 275 632.030, 275 666.288 L 275 728.576 277.250 733.030 C 280.181 738.831, 284.949 742, 290.747 742 C 296.379 742, 301.010 739.818, 304.090 735.712 L 306.500 732.500 306.767 652.424 L 307.035 572.347 304.767 569.016 C 301.494 564.206, 297.848 561.850, 292.795 561.280 C 288.680 560.817, 286.756 561.608, 265.931 572.334 M 380 562.554 C 363.742 566.042, 346.997 579.103, 339.654 594.022 C 333.540 606.445, 333.037 610.848, 333.017 652.090 C 333.002 685.268, 333.184 689.399, 334.972 696.391 C 341.942 723.642, 365.307 742, 393.020 742 C 408.855 742, 422.018 736.751, 433.502 725.859 C 441.566 718.209, 447.116 709.491, 450.282 699.500 C 452.423 692.742, 452.500 691.080, 452.495 651.500 L 452.490 610.500 449.767 602.500 C 439.758 573.086, 410.088 556.098, 380 562.554 M 524.216 563.019 C 504.353 568.223, 489.096 582.069, 481.738 601.568 C 479.572 607.310, 479.490 608.835, 479.200 649.161 C 478.940 685.147, 479.122 691.686, 480.535 697.161 C 484.811 713.735, 496.941 728.571, 512.154 735.835 C 521.933 740.504, 528.326 742, 538.500 742 C 548.687 742, 555.069 740.503, 564.899 735.809 C 580.300 728.455, 592.102 713.782, 596.485 696.540 C 598.750 687.628, 598.700 615.516, 596.423 606.644 C 588.201 574.622, 555.450 554.835, 524.216 563.019 M 757.966 568.820 C 757.123 569.194, 755.509 570.175, 754.381 571 C 750.425 573.892, 641.619 711.462, 640.321 715.213 C 636.604 725.948, 646.244 737.240, 657.663 735.528 C 661.029 735.023, 663.267 733.864, 666.073 731.170 C 672.045 725.440, 777.111 592.919, 778.731 589.074 C 781.631 582.189, 778.029 573.135, 770.931 569.464 C 768.033 567.966, 760.715 567.602, 757.966 568.820 M 383.615 594.579 C 380.256 595.652, 377.080 597.789, 373.448 601.422 C 365.197 609.672, 365 610.857, 365 652.144 C 365 684.421, 365.143 687.308, 366.990 692.245 C 374.130 711.326, 399.702 716.182, 413.347 701.046 C 420.540 693.068, 420.465 693.540, 420.809 654.207 C 421.153 614.821, 420.791 611.832, 414.706 603.816 C 407.974 594.949, 394.753 591.021, 383.615 594.579 M 528.453 595.046 C 522.763 597.236, 516.052 603.351, 513.325 608.831 C 511.670 612.157, 511.473 616.074, 511.216 650.779 C 510.952 686.405, 511.062 689.350, 512.808 693.279 C 515.392 699.094, 519.364 703.541, 524.855 706.770 C 528.933 709.166, 530.541 709.500, 538.021 709.500 C 545.197 709.500, 547.327 709.096, 551.521 706.942 C 557.117 704.067, 563.104 696.934, 564.870 691.038 C 565.621 688.533, 565.997 675.059, 565.990 650.884 C 565.981 614.845, 565.958 614.453, 563.642 609.500 C 557.387 596.127, 542.034 589.821, 528.453 595.046 M 744.500 679.399 C 731.244 683.591, 723.101 693.872, 722.243 707.500 C 721.415 720.655, 727.646 731.239, 739.715 737.180 C 752.724 743.585, 766.559 740.845, 776.382 729.920 C 788.470 716.476, 786.275 694.708, 771.784 684.316 C 763.563 678.419, 753.392 676.587, 744.500 679.399" stroke="none" fill="#1d3c54" fill-rule="evenodd"/><path d="M 548.500 115.928 C 538.769 119.397, 533.091 123.104, 494.164 151.403 L 454.827 180 404.074 180 C 346.562 180, 345.214 180.146, 330.139 187.989 C 315.198 195.762, 304.266 206.707, 297.170 221 C 295.122 225.125, 286.933 248.678, 278.973 273.340 L 264.500 318.180 225 346.970 C 203.275 362.805, 183.229 378.177, 180.452 381.130 C 170.843 391.353, 164.938 402.022, 161.430 415.500 C 159.287 423.734, 158.992 442.015, 160.890 449 C 161.562 451.475, 168.657 473.715, 176.656 498.423 L 191.199 543.347 176.085 589.923 C 159.193 641.982, 158.005 647.283, 159.910 662.133 C 161.073 671.207, 164.576 682.533, 168.298 689.259 C 169.829 692.025, 175.548 696.756, 189.939 707.160 C 212.838 723.716, 215.448 726.010, 217.553 731.434 C 218.944 735.019, 221.720 737.373, 241.001 751.320 C 253.030 760.021, 263.298 767.671, 263.820 768.320 C 264.341 768.969, 271.201 789.381, 279.064 813.681 C 291.151 851.033, 293.680 857.947, 295.430 858.417 C 296.569 858.723, 319.866 858.979, 347.203 858.986 C 382.676 858.996, 397.633 859.331, 399.445 860.157 C 400.842 860.793, 419.200 873.848, 440.242 889.168 C 461.284 904.488, 481.656 918.609, 485.513 920.546 C 495.762 925.696, 506.917 927.669, 517.887 926.274 C 532.049 924.472, 536.083 922.524, 558.862 906.481 C 567.479 900.412, 572.607 900.299, 581.615 905.979 C 583.563 907.207, 584.995 906.391, 599.763 895.642 L 615.796 883.971 614.479 879.595 C 612.364 872.568, 614.528 865.899, 620.248 861.820 L 623.500 859.500 677.500 858.948 C 725.775 858.454, 732.083 858.205, 737 856.601 C 753.350 851.268, 766.195 840.561, 773.005 826.589 C 775.174 822.140, 783.477 798.338, 791.456 773.695 C 799.435 749.053, 806.610 727.967, 807.401 726.837 C 808.193 725.708, 826.763 711.773, 848.670 695.871 C 873.043 678.178, 890.559 664.745, 893.806 661.256 C 899.576 655.054, 905.208 644.679, 907.515 636 C 909.347 629.105, 909.406 614.092, 907.627 607.500 C 906.884 604.750, 899.870 582.775, 892.038 558.667 C 884.207 534.558, 877.800 513.360, 877.800 511.559 C 877.800 509.758, 879.463 502.958, 881.495 496.447 C 884.349 487.304, 885.920 483.880, 888.392 481.408 C 891.780 478.020, 898 475.714, 901.439 476.570 C 903.321 477.038, 904.027 475.442, 909.560 458.202 L 915.620 439.321 912.469 437.256 C 908.734 434.807, 905.986 429.508, 906.036 424.849 C 906.055 423.007, 906.723 418.800, 907.520 415.500 C 909.415 407.653, 909.392 393.925, 907.472 386.552 C 905.370 378.485, 899.542 367.754, 893.920 361.603 C 891.254 358.686, 872.102 344.005, 849.609 327.636 C 827.820 311.780, 809.096 297.666, 807.999 296.272 C 806.903 294.878, 800.358 276.359, 793.455 255.119 C 786.551 233.879, 779.468 212.225, 777.714 207 C 770.467 185.417, 755.825 171.198, 735.489 165.997 C 728.191 164.131, 724.383 164, 677.308 164 C 637.110 164, 626.286 163.726, 623.718 162.641 C 621.948 161.894, 605.903 150.644, 588.063 137.641 C 570.223 124.639, 555.148 114.033, 554.563 114.073 C 553.978 114.113, 551.250 114.948, 548.500 115.928 M 663.542 260.120 C 652.165 265.295, 639.457 269.452, 628.270 271.657 C 614.612 274.349, 589.372 273.934, 565 270.615 C 529.015 265.716, 517.487 264.757, 501 265.294 C 466.080 266.431, 443.035 275.903, 420.373 298.432 C 400.196 318.492, 388.040 343.149, 384.866 370.457 L 383.676 380.689 373.088 378.827 C 356.635 375.934, 339.101 371.360, 319.968 364.969 C 304.677 359.861, 301.939 359.224, 298.546 359.990 C 288.049 362.357, 283.027 373.253, 287.969 382.939 C 290.627 388.149, 293.885 389.912, 312 395.942 C 336.539 404.111, 360.587 409.821, 380.318 412.165 L 390.813 413.411 394.156 420.449 C 405.861 445.084, 426.828 467.223, 449.906 479.312 C 469.062 489.347, 488.856 493.646, 511.428 492.674 C 541.007 491.401, 551.500 486.275, 551.500 473.099 C 551.500 465.812, 548.227 461.016, 541.502 458.448 C 537.171 456.794, 536.606 456.801, 528.735 458.608 C 516.707 461.370, 495.359 461.209, 484.500 458.275 C 467.832 453.771, 452.989 444.985, 441.348 432.730 C 434.771 425.806, 427.378 416.199, 428.154 415.585 C 428.344 415.434, 435.461 414.765, 443.970 414.097 C 470.864 411.988, 497.062 406.253, 522.500 396.906 C 545.907 388.305, 584.953 366.961, 590.741 359.602 C 595.144 354.004, 594.427 344.427, 589.214 339.214 C 587.266 337.266, 587.379 337.249, 606.376 336.709 C 620.187 336.317, 628.126 335.597, 634.953 334.119 C 640.152 332.994, 644.590 332.257, 644.816 332.482 C 645.565 333.231, 636.821 355.332, 630.961 367.500 C 621.316 387.529, 609.623 404.834, 595.610 419.818 C 586.821 429.215, 584.959 433.582, 586.932 440.167 C 589.305 448.087, 597.467 453.073, 605.570 451.553 C 610.355 450.655, 619.252 442.337, 630.404 428.335 C 657.964 393.730, 678.364 344.884, 688.573 289.051 C 691.506 273.010, 691.387 267.757, 687.982 262.975 C 685.514 259.508, 679.022 256.043, 675 256.045 C 673.625 256.046, 668.469 257.880, 663.542 260.120 M 493 328.993 C 467.966 331.375, 449.838 339.552, 432.224 356.406 C 422.155 366.041, 416 374.846, 416 379.614 L 416 383 425.250 382.989 C 430.337 382.983, 440.637 382.327, 448.137 381.531 C 488.301 377.268, 524.293 364.890, 559 343.402 C 572.099 335.292, 571.986 335.404, 567.916 334.665 C 566.037 334.324, 555.725 332.946, 545 331.602 C 522.109 328.735, 504.824 327.868, 493 328.993 M 656.734 561.034 C 647.078 563.448, 639.390 569.808, 635.120 578.914 C 632.997 583.441, 632.511 585.922, 632.556 592 C 632.649 604.535, 638.708 614.254, 649.839 619.720 C 654.597 622.057, 656.776 622.500, 663.500 622.500 C 670.224 622.500, 672.403 622.057, 677.161 619.720 C 688.292 614.254, 694.351 604.535, 694.444 592 C 694.510 583.054, 691.530 575.596, 685.467 569.533 C 678.412 562.478, 665.836 558.758, 656.734 561.034 M 265.931 572.334 C 227.231 592.266, 227.796 591.925, 225.186 597 C 219.657 607.750, 227.348 620, 239.626 620 C 242.287 620, 247.621 617.768, 258.744 612 C 267.229 607.600, 274.358 604, 274.586 604 C 274.814 604, 275 632.030, 275 666.288 L 275 728.576 277.250 733.030 C 280.181 738.831, 284.949 742, 290.747 742 C 296.379 742, 301.010 739.818, 304.090 735.712 L 306.500 732.500 306.767 652.424 L 307.035 572.347 304.767 569.016 C 301.494 564.206, 297.848 561.850, 292.795 561.280 C 288.680 560.817, 286.756 561.608, 265.931 572.334 M 380 562.554 C 363.742 566.042, 346.997 579.103, 339.654 594.022 C 333.540 606.445, 333.037 610.848, 333.017 652.090 C 333.002 685.268, 333.184 689.399, 334.972 696.391 C 341.942 723.642, 365.307 742, 393.020 742 C 408.855 742, 422.018 736.751, 433.502 725.859 C 441.566 718.209, 447.116 709.491, 450.282 699.500 C 452.423 692.742, 452.500 691.080, 452.495 651.500 L 452.490 610.500 449.767 602.500 C 439.758 573.086, 410.088 556.098, 380 562.554 M 524.216 563.019 C 504.353 568.223, 489.096 582.069, 481.738 601.568 C 479.572 607.310, 479.490 608.835, 479.200 649.161 C 478.940 685.147, 479.122 691.686, 480.535 697.161 C 484.811 713.735, 496.941 728.571, 512.154 735.835 C 521.933 740.504, 528.326 742, 538.500 742 C 548.687 742, 555.069 740.503, 564.899 735.809 C 580.300 728.455, 592.102 713.782, 596.485 696.540 C 598.750 687.628, 598.700 615.516, 596.423 606.644 C 588.201 574.622, 555.450 554.835, 524.216 563.019 M 757.966 568.820 C 757.123 569.194, 755.509 570.175, 754.381 571 C 750.425 573.892, 641.619 711.462, 640.321 715.213 C 636.604 725.948, 646.244 737.240, 657.663 735.528 C 661.029 735.023, 663.267 733.864, 666.073 731.170 C 672.045 725.440, 777.111 592.919, 778.731 589.074 C 781.631 582.189, 778.029 573.135, 770.931 569.464 C 768.033 567.966, 760.715 567.602, 757.966 568.820 M 383.615 594.579 C 380.256 595.652, 377.080 597.789, 373.448 601.422 C 365.197 609.672, 365 610.857, 365 652.144 C 365 684.421, 365.143 687.308, 366.990 692.245 C 374.130 711.326, 399.702 716.182, 413.347 701.046 C 420.540 693.068, 420.465 693.540, 420.809 654.207 C 421.153 614.821, 420.791 611.832, 414.706 603.816 C 407.974 594.949, 394.753 591.021, 383.615 594.579 M 528.453 595.046 C 522.763 597.236, 516.052 603.351, 513.325 608.831 C 511.670 612.157, 511.473 616.074, 511.216 650.779 C 510.952 686.405, 511.062 689.350, 512.808 693.279 C 515.392 699.094, 519.364 703.541, 524.855 706.770 C 528.933 709.166, 530.541 709.500, 538.021 709.500 C 545.197 709.500, 547.327 709.096, 551.521 706.942 C 557.117 704.067, 563.104 696.934, 564.870 691.038 C 565.621 688.533, 565.997 675.059, 565.990 650.884 C 565.981 614.845, 565.958 614.453, 563.642 609.500 C 557.387 596.127, 542.034 589.821, 528.453 595.046 M 744.500 679.399 C 731.244 683.591, 723.101 693.872, 722.243 707.500 C 721.415 720.655, 727.646 731.239, 739.715 737.180 C 752.724 743.585, 766.559 740.845, 776.382 729.920 C 788.470 716.476, 786.275 694.708, 771.784 684.316 C 763.563 678.419, 753.392 676.587, 744.500 679.399" stroke="none" fill="#fae3b4" fill-rule="evenodd"/></svg>