<svg xmlns="http://www.w3.org/2000/svg" width="1024" height="1024" viewBox="0 0 1024 1024" version="1.1"><path d="M 246.500 65.861 C 244.850 66.880, 242.758 68.566, 241.850 69.607 C 240.943 70.648, 211.468 126.850, 176.350 194.500 L 112.500 317.500 112.244 613.500 C 111.991 905.550, 112.014 909.604, 113.965 917.329 C 115.053 921.635, 117.387 927.710, 119.151 930.829 C 123.684 938.844, 134.337 949.063, 142.109 952.851 C 155.830 959.539, 124.387 959.040, 514.051 958.757 L 867.500 958.500 874.377 955.747 C 888.225 950.203, 899.185 940.118, 905.169 927.412 C 910.515 916.062, 910.966 911.360, 910.961 867 C 910.956 829.645, 910.812 826.182, 909.095 822.401 C 904.635 812.582, 892.587 810.034, 884.440 817.186 C 882.506 818.885, 880.378 821.225, 879.712 822.387 C 878.836 823.914, 878.361 836.604, 878 868.166 L 877.500 911.832 874.463 916.151 C 870.907 921.208, 866.246 924.587, 860.807 926.052 C 858.121 926.775, 749.470 927.007, 509.708 926.800 L 162.500 926.500 157.749 924.160 C 152.175 921.415, 147.742 916.419, 146.141 911.078 C 145.298 908.262, 145 833.135, 145 623.134 L 145 339 321.684 339 C 498.342 339, 498.369 339, 502.647 336.929 C 510.999 332.886, 513.986 322.568, 509.096 314.655 C 504.275 306.855, 520.951 307.559, 327.895 307 L 155.290 306.500 167.280 283.409 L 179.269 260.319 213.798 259.659 C 232.789 259.297, 256.331 259, 266.114 259 C 275.897 259, 286.286 258.509, 289.201 257.909 C 303.627 254.939, 319.253 243.006, 325.748 230 C 327.533 226.425, 331.553 215.625, 334.680 206 C 339.912 189.898, 340.371 187.741, 340.433 179 C 340.493 170.548, 340.192 168.873, 337.706 163.810 C 334.134 156.536, 325.778 148.809, 318.568 146.111 C 313.653 144.272, 309.710 144.007, 276.686 143.291 L 240.229 142.500 252.327 119.274 L 264.424 96.048 320.139 95.774 C 374.633 95.506, 375.915 95.455, 378.616 93.438 C 382.708 90.382, 385.019 86.861, 386.105 82.027 C 386.936 78.331, 386.747 77.056, 384.787 73.108 C 383.529 70.575, 380.971 67.490, 379.102 66.251 L 375.704 64 312.602 64.004 C 252.917 64.007, 249.338 64.108, 246.500 65.861 M 420.990 66.250 C 415.346 70.091, 413.483 73.468, 413.630 79.592 C 413.792 86.339, 416.805 91.202, 422.566 94.015 C 426.572 95.971, 429.077 96, 592.742 96 L 758.852 96 770.926 119.398 C 777.567 132.266, 783 143.046, 783 143.353 C 783 143.660, 765.788 144.044, 744.750 144.205 L 706.500 144.500 701.216 147.284 C 687.542 154.489, 679.561 169.802, 681.978 184.197 C 683.506 193.303, 694.723 226.171, 698.462 232.500 C 703.024 240.221, 712.628 249.199, 720.443 253.046 C 731.451 258.466, 735.102 258.975, 763.016 258.988 C 785.942 258.999, 788.885 258.812, 792.016 257.148 C 803.005 251.308, 803.284 235.288, 792.500 229.266 C 788.689 227.138, 787.421 227.032, 765.616 227.016 C 739.057 226.997, 736.544 226.506, 729.852 220.019 C 725.410 215.713, 724.924 214.665, 719.523 197.747 C 716.405 187.983, 714.006 179.208, 714.191 178.247 C 714.504 176.622, 717.499 176.482, 757.184 176.239 L 799.841 175.979 812.077 199.739 C 818.806 212.808, 829.124 232.500, 835.006 243.500 C 840.887 254.500, 850.746 273.288, 856.914 285.250 L 868.130 307 721.381 307 C 577.029 307, 574.565 307.032, 570.566 308.985 C 558.742 314.758, 558.742 331.242, 570.566 337.015 C 574.567 338.968, 577.041 339, 726.306 339 L 877.981 339 878.241 547.750 C 878.497 754.464, 878.520 756.533, 880.500 759.895 C 883.126 764.354, 886.693 766.919, 891.892 768.087 C 897.428 769.331, 903.576 766.733, 907.608 761.447 L 910.500 757.656 910.500 538.078 L 910.500 318.500 907.897 313.500 C 906.465 310.750, 878.169 256.075, 845.017 192 C 811.865 127.925, 783.656 73.795, 782.330 71.711 C 781.005 69.627, 778.475 67.041, 776.710 65.965 C 773.556 64.042, 770.465 64.007, 598.898 64.004 L 424.296 64 420.990 66.250 M 216.556 188.500 C 212.950 195.375, 207.075 206.578, 203.500 213.395 C 199.925 220.212, 197 226.062, 197 226.395 C 197 226.728, 215.735 227, 238.634 227 C 268.527 227, 281.429 226.655, 284.384 225.778 C 286.864 225.041, 290.294 222.756, 293.014 220.028 C 297.252 215.776, 297.883 214.387, 303.363 197.229 C 306.572 187.180, 308.943 178.293, 308.630 177.479 C 308.142 176.206, 302.156 176, 265.587 176 L 223.112 176 216.556 188.500 M 505.539 441.112 C 482.464 444.474, 460.590 459.567, 452.174 477.935 C 449.896 482.908, 449.787 483.758, 450.899 487.935 C 453.880 499.135, 465.954 503.847, 475.555 497.556 C 476.826 496.723, 479.539 493.521, 481.584 490.439 C 490.157 477.523, 506.837 470.223, 521.605 472.923 C 529.965 474.451, 538.949 479.164, 544.134 484.741 C 546.941 487.762, 559.270 508.063, 577.882 540.313 C 594.011 568.260, 607.023 591.311, 606.798 591.536 C 606.572 591.761, 595.163 587.463, 581.444 581.984 C 567.725 576.506, 555.020 572.018, 553.210 572.012 C 549.174 571.997, 542.686 575.185, 540.541 578.237 C 536.108 584.544, 536.686 593.848, 541.831 598.977 C 543.707 600.847, 558.865 607.368, 592.871 620.933 C 638.794 639.251, 641.516 640.205, 646.653 639.779 C 651.109 639.409, 652.673 638.740, 655.513 635.987 C 657.410 634.149, 659.398 631.262, 659.930 629.572 C 661.970 623.099, 675.240 527.091, 674.581 523.578 C 672.766 513.907, 661.428 508.330, 652.345 512.641 C 645.047 516.104, 644.359 518.049, 639.971 547.621 C 637.778 562.405, 635.865 574.866, 635.720 575.314 C 635.576 575.762, 622.673 553.937, 607.048 526.814 C 591.423 499.691, 576.973 475.025, 574.937 472 C 563.921 455.636, 544.782 443.884, 524.571 441.073 C 515.927 439.871, 514.034 439.875, 505.539 441.112 M 366.500 573.504 C 341.200 583.631, 319.027 592.687, 317.226 593.629 C 306.913 599.022, 307.105 614.813, 317.556 620.733 C 324.141 624.463, 327.260 623.805, 354 613.048 C 367.475 607.627, 378.624 603.311, 378.776 603.456 C 378.928 603.601, 367.517 623.692, 353.418 648.103 C 324.145 698.785, 323.020 700.896, 319.866 711.035 C 316.921 720.503, 316.656 737.922, 319.303 748 C 327.273 778.342, 353.097 799.943, 384.649 802.661 C 390.772 803.188, 392.453 802.959, 396.361 801.067 C 402.192 798.244, 405.390 793.274, 405.368 787.071 C 405.333 777.313, 399.951 772.222, 388.285 770.914 C 378.223 769.786, 372.014 767.611, 366.041 763.123 C 347.885 749.481, 344.208 728.131, 356.376 707 C 389.767 649.010, 407.302 618.969, 407.591 619.258 C 407.786 619.452, 409.704 631.603, 411.854 646.260 C 414.579 664.837, 416.329 673.876, 417.632 676.100 C 420.490 680.982, 424.260 683.276, 430.209 683.753 C 434.562 684.103, 436.116 683.759, 438.976 681.815 C 443.779 678.551, 447 673.445, 446.998 669.102 C 446.997 665.848, 433.825 573.361, 432.419 566.726 C 431.684 563.260, 427.656 558.391, 423.931 556.464 C 417.808 553.298, 414.607 554.248, 366.500 573.504 M 684.001 687.123 C 680.774 688.410, 677.182 691.786, 675.405 695.200 C 673.153 699.530, 673.720 705.115, 677.173 712.612 C 681.407 721.802, 682.216 734.448, 679.132 743.233 C 674.183 757.332, 662.846 767.211, 648.475 769.949 C 644.309 770.743, 624.421 770.999, 582.780 770.794 L 523.059 770.500 544.686 753.500 C 563.035 739.076, 566.608 735.834, 568.268 732.103 C 571.672 724.450, 569.415 717.290, 562.010 712.250 C 557.841 709.412, 550.762 709.238, 546.452 711.866 C 542.811 714.086, 471.088 770.435, 465.852 775.188 C 458.912 781.489, 458.661 791.776, 465.292 798.074 C 473.865 806.215, 547.242 862.894, 549.990 863.498 C 564.156 866.609, 575.207 850.640, 566.964 838.970 C 565.982 837.579, 555.766 829.029, 544.264 819.970 L 523.350 803.500 588.425 802.940 C 645.935 802.445, 654.165 802.181, 659.224 800.666 C 680.151 794.398, 696.405 781.023, 705.351 762.708 C 710.763 751.627, 713.006 742.102, 712.983 730.303 C 712.959 718.310, 710.835 709.095, 705.767 699 C 702.034 691.564, 700.942 690.218, 697.038 688.250 C 692.298 685.860, 688.083 685.496, 684.001 687.123" stroke="none" fill="#1d3c54" fill-rule="evenodd"/><path d="M 386 82.324 C 386 85.248, 382.464 90.601, 378.678 93.408 C 375.969 95.417, 374.541 95.511, 342.656 95.788 L 309.455 96.075 297.344 119.288 C 290.684 132.054, 285.433 142.838, 285.676 143.250 C 285.919 143.662, 292.150 144, 299.522 144 C 310.629 144, 313.873 144.355, 318.459 146.071 C 325.782 148.811, 334.109 156.485, 337.706 163.810 C 340.192 168.873, 340.493 170.548, 340.433 179 C 340.371 187.741, 339.912 189.898, 334.680 206 C 331.553 215.625, 327.533 226.424, 325.747 229.998 C 320.065 241.369, 307.886 251.746, 294.500 256.623 C 290.184 258.195, 285.071 258.516, 257.139 258.972 L 224.779 259.500 212.520 283 L 200.260 306.500 350.380 307 C 518.250 307.559, 504.294 306.886, 509.096 314.655 C 513.986 322.568, 510.999 332.886, 502.647 336.929 C 498.377 338.996, 498.074 339, 345.177 339 L 191.986 339 192.243 626.250 L 192.500 913.500 195.697 920.250 L 198.895 927 528.197 926.994 C 745.714 926.991, 858.728 926.648, 861.118 925.984 C 866.321 924.539, 870.977 921.108, 874.463 916.151 L 877.500 911.832 878 868.166 C 878.361 836.604, 878.836 823.914, 879.712 822.387 C 881.837 818.681, 887.841 814.120, 891.497 813.435 L 895.038 812.770 894.769 790.676 L 894.500 768.581 891.123 767.891 C 886.781 767.003, 883.019 764.172, 880.500 759.895 C 878.520 756.533, 878.497 754.464, 878.241 547.750 L 877.981 339 726.306 339 C 577.041 339, 574.567 338.968, 570.566 337.015 C 559.297 331.513, 558.669 315.878, 569.454 309.345 C 572.368 307.580, 578.897 307.478, 720.199 307 L 867.898 306.500 851.563 275 L 835.228 243.500 817.905 243.500 L 800.582 243.500 799.891 246.877 C 798.986 251.305, 796.247 254.862, 791.983 257.149 C 788.880 258.813, 785.953 258.999, 763.016 258.988 C 735.102 258.975, 731.451 258.466, 720.443 253.046 C 712.628 249.199, 703.024 240.221, 698.462 232.500 C 694.723 226.171, 683.506 193.303, 681.978 184.197 C 679.561 169.802, 687.542 154.489, 701.216 147.284 L 706.500 144.500 744.750 144.205 C 765.788 144.044, 783 143.660, 783 143.353 C 783 143.046, 777.567 132.266, 770.926 119.398 L 758.852 96 592.742 96 C 428.244 96, 426.592 95.980, 422.566 93.985 C 417.914 91.681, 414.970 88.090, 414.054 83.605 L 413.421 80.500 399.710 80.222 L 386 79.944 386 82.324 M 505.539 441.112 C 482.464 444.474, 460.590 459.567, 452.174 477.935 C 449.896 482.908, 449.787 483.758, 450.899 487.935 C 453.880 499.135, 465.954 503.847, 475.555 497.556 C 476.826 496.723, 479.539 493.521, 481.584 490.439 C 490.157 477.523, 506.837 470.223, 521.605 472.923 C 529.965 474.451, 538.949 479.164, 544.134 484.741 C 546.941 487.762, 559.270 508.063, 577.882 540.313 C 594.011 568.260, 607.023 591.311, 606.798 591.536 C 606.572 591.761, 595.163 587.463, 581.444 581.984 C 567.725 576.506, 555.020 572.018, 553.210 572.012 C 549.174 571.997, 542.686 575.185, 540.541 578.237 C 536.108 584.544, 536.686 593.848, 541.831 598.977 C 543.707 600.847, 558.865 607.368, 592.871 620.933 C 638.794 639.251, 641.516 640.205, 646.653 639.779 C 651.109 639.409, 652.673 638.740, 655.513 635.987 C 657.410 634.149, 659.398 631.262, 659.930 629.572 C 661.970 623.099, 675.240 527.091, 674.581 523.578 C 672.766 513.907, 661.428 508.330, 652.345 512.641 C 645.047 516.104, 644.359 518.049, 639.971 547.621 C 637.778 562.405, 635.865 574.866, 635.720 575.314 C 635.576 575.762, 622.673 553.937, 607.048 526.814 C 591.423 499.691, 576.973 475.025, 574.937 472 C 563.921 455.636, 544.782 443.884, 524.571 441.073 C 515.927 439.871, 514.034 439.875, 505.539 441.112 M 366.500 573.504 C 341.200 583.631, 319.027 592.687, 317.226 593.629 C 306.913 599.022, 307.105 614.813, 317.556 620.733 C 324.141 624.463, 327.260 623.805, 354 613.048 C 367.475 607.627, 378.624 603.311, 378.776 603.456 C 378.928 603.601, 367.517 623.692, 353.418 648.103 C 324.145 698.785, 323.020 700.896, 319.866 711.035 C 316.921 720.503, 316.656 737.922, 319.303 748 C 327.273 778.342, 353.097 799.943, 384.649 802.661 C 390.772 803.188, 392.453 802.959, 396.361 801.067 C 402.192 798.244, 405.390 793.274, 405.368 787.071 C 405.333 777.313, 399.951 772.222, 388.285 770.914 C 378.223 769.786, 372.014 767.611, 366.041 763.123 C 347.885 749.481, 344.208 728.131, 356.376 707 C 389.767 649.010, 407.302 618.969, 407.591 619.258 C 407.786 619.452, 409.704 631.603, 411.854 646.260 C 414.579 664.837, 416.329 673.876, 417.632 676.100 C 420.490 680.982, 424.260 683.276, 430.209 683.753 C 434.562 684.103, 436.116 683.759, 438.976 681.815 C 443.779 678.551, 447 673.445, 446.998 669.102 C 446.997 665.848, 433.825 573.361, 432.419 566.726 C 431.684 563.260, 427.656 558.391, 423.931 556.464 C 417.808 553.298, 414.607 554.248, 366.500 573.504 M 684.001 687.123 C 680.774 688.410, 677.182 691.786, 675.405 695.200 C 673.153 699.530, 673.720 705.115, 677.173 712.612 C 681.407 721.802, 682.216 734.448, 679.132 743.233 C 674.183 757.332, 662.846 767.211, 648.475 769.949 C 644.309 770.743, 624.421 770.999, 582.780 770.794 L 523.059 770.500 544.686 753.500 C 563.035 739.076, 566.608 735.834, 568.268 732.103 C 571.672 724.450, 569.415 717.290, 562.010 712.250 C 557.841 709.412, 550.762 709.238, 546.452 711.866 C 542.811 714.086, 471.088 770.435, 465.852 775.188 C 458.912 781.489, 458.661 791.776, 465.292 798.074 C 473.865 806.215, 547.242 862.894, 549.990 863.498 C 564.156 866.609, 575.207 850.640, 566.964 838.970 C 565.982 837.579, 555.766 829.029, 544.264 819.970 L 523.350 803.500 588.425 802.940 C 645.935 802.445, 654.165 802.181, 659.224 800.666 C 680.151 794.398, 696.405 781.023, 705.351 762.708 C 710.763 751.627, 713.006 742.102, 712.983 730.303 C 712.959 718.310, 710.835 709.095, 705.767 699 C 702.034 691.564, 700.942 690.218, 697.038 688.250 C 692.298 685.860, 688.083 685.496, 684.001 687.123" stroke="none" fill="#f5ba7c" fill-rule="evenodd"/></svg>